<svg xmlns="http://www.w3.org/2000/svg" xmlns:xlink="http://www.w3.org/1999/xlink" width="500" zoomAndPan="magnify" viewBox="0 0 375 374.999991" height="500" preserveAspectRatio="xMidYMid meet" version="1.0"><defs><clipPath id="a953f8aea4"><path d="M 49.777344 123 L 325 123 L 325 252 L 49.777344 252 Z M 49.777344 123 " clip-rule="nonzero"/></clipPath></defs><rect x="-37.5" width="450" fill="#ffffff" y="-37.499999" height="449.999989" fill-opacity="1"/><rect x="-37.5" width="450" fill="#ffffff" y="-37.499999" height="449.999989" fill-opacity="1"/><rect x="-37.5" width="450" fill="#ffffff" y="-37.499999" height="449.999989" fill-opacity="1"/><g clip-path="url(#a953f8aea4)"><path fill="#ffffff" d="M 266.871094 249.113281 L 321.230469 194.597656 C 325 190.816406 325 184.59375 321.230469 180.8125 L 266.871094 126.175781 C 263.101562 122.394531 256.898438 122.394531 253.128906 126.175781 C 249.359375 129.957031 249.359375 136.175781 253.128906 139.957031 L 290.949219 177.886719 L 59.53125 177.886719 C 54.183594 177.886719 49.804688 182.277344 49.804688 187.644531 C 49.804688 193.011719 54.183594 197.402344 59.53125 197.402344 L 290.828125 197.402344 L 253.007812 235.332031 C 251.0625 237.28125 250.210938 239.722656 250.210938 242.285156 C 250.210938 244.84375 251.183594 247.285156 253.007812 249.234375 C 256.898438 252.894531 263.101562 252.894531 266.871094 249.113281 Z M 266.871094 249.113281 " fill-opacity="1" fill-rule="nonzero"/></g></svg>