<svg xmlns="http://www.w3.org/2000/svg" xmlns:xlink="http://www.w3.org/1999/xlink" width="500" zoomAndPan="magnify" viewBox="0 0 375 374.999991" height="500" preserveAspectRatio="xMidYMid meet" version="1.0"><defs><g/><clipPath id="a725bec207"><path d="M 28.898438 81.398438 L 346 81.398438 L 346 294 L 28.898438 294 Z M 28.898438 81.398438 " clip-rule="nonzero"/></clipPath><clipPath id="6b964b1db1"><path d="M 46.148438 81.398438 L 328.851562 81.398438 C 333.429688 81.398438 337.816406 83.214844 341.050781 86.449219 C 344.285156 89.683594 346.101562 94.070312 346.101562 98.648438 L 346.101562 276.351562 C 346.101562 280.929688 344.285156 285.316406 341.050781 288.550781 C 337.816406 291.785156 333.429688 293.601562 328.851562 293.601562 L 46.148438 293.601562 C 41.570312 293.601562 37.183594 291.785156 33.949219 288.550781 C 30.714844 285.316406 28.898438 280.929688 28.898438 276.351562 L 28.898438 98.648438 C 28.898438 94.070312 30.714844 89.683594 33.949219 86.449219 C 37.183594 83.214844 41.570312 81.398438 46.148438 81.398438 " clip-rule="nonzero"/></clipPath></defs><g clip-path="url(#a725bec207)"><g clip-path="url(#6b964b1db1)"><path fill="#007aff" d="M 28.898438 81.398438 L 345.304688 81.398438 L 345.304688 294.09375 L 28.898438 294.09375 Z M 28.898438 81.398438 " fill-opacity="1" fill-rule="nonzero"/></g></g><g fill="#000000" fill-opacity="1"><g transform="translate(100.930661, 218.297028)"><g><path d="M 26.835938 -18.683594 L 26.835938 -29.417969 L 2.980469 -29.417969 L 2.980469 -18.683594 Z M 26.835938 -18.683594 "/></g></g></g><g fill="#000000" fill-opacity="1"><g transform="translate(130.746684, 218.297028)"><g><path d="M 34.289062 0 L 34.289062 -66.292969 L 21.964844 -66.292969 L 1.09375 -45.320312 L 9.144531 -36.875 L 20.175781 -48.105469 L 20.175781 0 Z M 34.289062 0 "/></g></g></g><g fill="#000000" fill-opacity="1"><g transform="translate(171.594639, 218.297028)"><g><path d="M 34.289062 0 L 34.289062 -66.292969 L 21.964844 -66.292969 L 1.09375 -45.320312 L 9.144531 -36.875 L 20.175781 -48.105469 L 20.175781 0 Z M 34.289062 0 "/></g></g></g><g fill="#000000" fill-opacity="1"><g transform="translate(212.442593, 218.297028)"><g><path d="M 30.8125 1.191406 C 49.695312 1.191406 58.242188 -16 58.242188 -33.097656 C 58.242188 -50.191406 49.695312 -67.285156 30.8125 -67.285156 C 11.828125 -67.285156 3.378906 -50.191406 3.378906 -33.097656 C 3.378906 -16 11.828125 1.191406 30.8125 1.191406 Z M 30.8125 -11.332031 C 21.269531 -11.332031 17.691406 -20.871094 17.691406 -33.097656 C 17.691406 -45.320312 21.269531 -54.765625 30.8125 -54.765625 C 40.253906 -54.765625 43.832031 -45.320312 43.832031 -33.097656 C 43.832031 -20.871094 40.253906 -11.332031 30.8125 -11.332031 Z M 30.8125 -11.332031 "/></g></g></g></svg>