<svg width="142" height="11" viewBox="0 0 142 11" fill="none" xmlns="http://www.w3.org/2000/svg">
<path d="M4.38623 10.8753C6.67139 10.8753 8.08057 9.72638 8.08057 7.91095V7.9046C8.08057 6.47638 7.23633 5.70197 5.30029 5.30206L4.3291 5.10529C3.25 4.88312 2.80566 4.52765 2.80566 3.93097V3.92462C2.80566 3.23907 3.43408 2.80743 4.37988 2.80109C5.34473 2.80109 5.97949 3.25812 6.0874 3.91193L6.1001 3.9881H7.90283L7.89648 3.90558C7.77588 2.37579 6.51904 1.24591 4.37988 1.24591C2.34863 1.24591 0.888672 2.36945 0.888672 4.07062V4.07697C0.888672 5.4671 1.70752 6.35577 3.61182 6.74298L4.57666 6.93976C5.71289 7.17462 6.16357 7.51105 6.16357 8.11407V8.12042C6.16357 8.82501 5.45898 9.31378 4.43701 9.31378C3.36426 9.31378 2.62158 8.8504 2.55176 8.16486L2.54541 8.10138H0.698242L0.70459 8.20294C0.8125 9.82794 2.19629 10.8753 4.38623 10.8753ZM12.7842 10.7864C14.8281 10.7864 15.7295 9.60577 15.9453 8.7298L15.958 8.66632H14.2314L14.2124 8.70441C14.0854 8.97101 13.6348 9.40265 12.8223 9.40265C11.8384 9.40265 11.2227 8.73615 11.2036 7.58722H16.0151V7.00958C16.0151 4.89581 14.7456 3.49933 12.708 3.49933C10.6704 3.49933 9.36914 4.92755 9.36914 7.14923V7.15558C9.36914 9.3963 10.6577 10.7864 12.7842 10.7864ZM12.7397 4.88947C13.5459 4.88947 14.1235 5.40997 14.2378 6.4256H11.2227C11.3369 5.43536 11.9336 4.88947 12.7397 4.88947ZM20.6045 10.7864C22.6484 10.7864 23.5498 9.60577 23.7656 8.7298L23.7783 8.66632H22.0518L22.0327 8.70441C21.9058 8.97101 21.4551 9.40265 20.6426 9.40265C19.6587 9.40265 19.043 8.73615 19.0239 7.58722H23.8354V7.00958C23.8354 4.89581 22.5659 3.49933 20.5283 3.49933C18.4907 3.49933 17.1895 4.92755 17.1895 7.14923V7.15558C17.1895 9.3963 18.478 10.7864 20.6045 10.7864ZM20.5601 4.88947C21.3662 4.88947 21.9438 5.40997 22.0581 6.4256H19.043C19.1572 5.43536 19.7539 4.88947 20.5601 4.88947ZM28.2344 10.6404H30.2466L30.9258 8.41876H34.1567L34.8359 10.6404H36.8545L33.668 1.48077H31.4146L28.2344 10.6404ZM32.4873 3.3089H32.6016L33.7188 6.98419H31.3638L32.4873 3.3089ZM38.2891 10.6404H40.1426V0.979309H38.2891V10.6404ZM42.123 10.6404H43.9766V0.979309H42.123V10.6404ZM49.4292 10.6404H55.4214V9.05988H51.3462V1.48077H49.4292V10.6404ZM57.9224 2.57892C58.4937 2.57892 58.9634 2.12189 58.9634 1.5506C58.9634 0.972961 58.4937 0.51593 57.9224 0.51593C57.3511 0.51593 56.875 0.972961 56.875 1.5506C56.875 2.12189 57.3511 2.57892 57.9224 2.57892ZM56.9893 10.6404H58.8428V3.65167H56.9893V10.6404ZM62.5371 10.6404H64.6191L67.0376 3.65167H65.0889L63.6543 8.90753H63.54L62.0928 3.65167H60.106L62.5371 10.6404ZM71.0684 10.7864C73.1123 10.7864 74.0137 9.60577 74.2295 8.7298L74.2422 8.66632H72.5156L72.4966 8.70441C72.3696 8.97101 71.9189 9.40265 71.1064 9.40265C70.1226 9.40265 69.5068 8.73615 69.4878 7.58722H74.2993V7.00958C74.2993 4.89581 73.0298 3.49933 70.9922 3.49933C68.9546 3.49933 67.6533 4.92755 67.6533 7.14923V7.15558C67.6533 9.3963 68.9419 10.7864 71.0684 10.7864ZM71.0239 4.88947C71.8301 4.88947 72.4077 5.40997 72.522 6.4256H69.5068C69.6211 5.43536 70.2178 4.88947 71.0239 4.88947ZM83.3384 10.8753C85.8394 10.8753 87.4009 9.35187 87.4009 6.92072V5.75909H83.5542V7.15558H85.5347L85.5283 7.32697C85.4902 8.48224 84.627 9.25031 83.3701 9.25031C81.8594 9.25031 80.9009 8.02521 80.9009 6.03839V6.0257C80.9009 4.07697 81.8149 2.87091 83.2939 2.87091C84.3667 2.87091 85.1475 3.41046 85.4077 4.31818L85.4204 4.38165H87.3247L87.312 4.31818C87.0391 2.49005 85.4585 1.24591 83.2939 1.24591C80.6279 1.24591 78.9458 3.10577 78.9458 6.04474V6.05743C78.9458 9.04083 80.6152 10.8753 83.3384 10.8753ZM90.8984 10.7484C91.8125 10.7484 92.5488 10.3611 92.9043 9.71368H93.0186V10.6404H94.8467V5.867C94.8467 4.37531 93.7993 3.49933 91.9458 3.49933C90.1875 3.49933 89.0322 4.31183 88.8862 5.53693L88.8799 5.59406H90.5938L90.6064 5.56866C90.7524 5.15607 91.1777 4.9212 91.8442 4.9212C92.606 4.9212 93.0186 5.26398 93.0186 5.867V6.44464L91.3301 6.5462C89.5908 6.64777 88.6196 7.38409 88.6196 8.64093V8.65363C88.6196 9.92316 89.5654 10.7484 90.8984 10.7484ZM90.4287 8.53937V8.52667C90.4287 8.01886 90.8159 7.72052 91.6094 7.66974L93.0186 7.58087V8.09503C93.0186 8.83136 92.3774 9.3963 91.5205 9.3963C90.8794 9.3963 90.4287 9.07257 90.4287 8.53937ZM96.6621 10.6404H98.5156V6.4256C98.5156 5.62579 99.0234 5.03546 99.7471 5.03546C100.471 5.03546 100.896 5.47345 100.896 6.22247V10.6404H102.75V6.34308C102.75 5.58771 103.232 5.03546 103.981 5.03546C104.755 5.03546 105.136 5.46075 105.136 6.30499V10.6404H106.99V5.84161C106.99 4.4007 106.12 3.49933 104.73 3.49933C103.752 3.49933 102.94 4.01349 102.623 4.7879H102.508C102.223 3.98175 101.518 3.49933 100.566 3.49933C99.6519 3.49933 98.9282 3.95636 98.6299 4.74347H98.5156V3.65167H96.6621V10.6404ZM111.858 10.7864C113.902 10.7864 114.804 9.60577 115.02 8.7298L115.032 8.66632H113.306L113.287 8.70441C113.16 8.97101 112.709 9.40265 111.896 9.40265C110.913 9.40265 110.297 8.73615 110.278 7.58722H115.089V7.00958C115.089 4.89581 113.82 3.49933 111.782 3.49933C109.745 3.49933 108.443 4.92755 108.443 7.14923V7.15558C108.443 9.3963 109.732 10.7864 111.858 10.7864ZM111.814 4.88947C112.62 4.88947 113.198 5.40997 113.312 6.4256H110.297C110.411 5.43536 111.008 4.88947 111.814 4.88947ZM119.387 10.7864C121.177 10.7864 122.453 9.88507 122.453 8.50128V8.49493C122.453 7.46027 121.799 6.87628 120.402 6.57794L119.241 6.33038C118.517 6.17169 118.257 5.95587 118.257 5.58136V5.57501C118.257 5.10529 118.714 4.80695 119.355 4.80695C120.047 4.80695 120.459 5.15607 120.561 5.53058L120.567 5.56232H122.288V5.53693C122.211 4.41339 121.196 3.49933 119.361 3.49933C117.616 3.49933 116.448 4.37531 116.448 5.68927V5.69562C116.448 6.74298 117.108 7.39679 118.441 7.68243L119.609 7.92999C120.32 8.08868 120.599 8.32355 120.599 8.69806V8.71075C120.599 9.17413 120.117 9.47882 119.406 9.47882C118.676 9.47882 118.25 9.16779 118.104 8.73615L118.092 8.71075H116.27L116.276 8.73615C116.41 9.93585 117.489 10.7864 119.387 10.7864ZM130.425 10.7864C132.577 10.7864 133.872 9.42804 133.872 7.14923V7.13654C133.872 4.87677 132.558 3.49933 130.425 3.49933C128.292 3.49933 126.979 4.88312 126.979 7.13654V7.14923C126.979 9.42169 128.273 10.7864 130.425 10.7864ZM130.425 9.33282C129.435 9.33282 128.876 8.52667 128.876 7.14923V7.13654C128.876 5.77179 129.441 4.95294 130.425 4.95294C131.403 4.95294 131.974 5.77179 131.974 7.13654V7.14923C131.974 8.52667 131.409 9.33282 130.425 9.33282ZM135.383 10.6404H137.236V6.59698C137.236 5.65118 137.757 5.03546 138.614 5.03546C139.49 5.03546 139.896 5.55597 139.896 6.53986V10.6404H141.75V6.12091C141.75 4.45148 140.912 3.49933 139.356 3.49933C138.36 3.49933 137.668 3.9754 137.351 4.73077H137.236V3.65167H135.383V10.6404Z" fill="#0379FF"/>
</svg>
