<svg xmlns="http://www.w3.org/2000/svg" xmlns:xlink="http://www.w3.org/1999/xlink" width="500" zoomAndPan="magnify" viewBox="0 0 375 374.999991" height="500" preserveAspectRatio="xMidYMid meet" version="1.0"><defs><clipPath id="da1ad68263"><path d="M 37.5 46.324219 L 319.5 46.324219 L 319.5 328.324219 L 37.5 328.324219 Z M 37.5 46.324219 " clip-rule="nonzero"/></clipPath><clipPath id="2b9fb41ff9"><path d="M 111.175781 120 L 246.175781 120 L 246.175781 255 L 111.175781 255 Z M 111.175781 120 " clip-rule="nonzero"/></clipPath></defs><g clip-path="url(#da1ad68263)"><path fill="#4b6640" d="M 319.5 187.324219 C 319.5 189.632812 319.441406 191.9375 319.332031 194.242188 C 319.21875 196.546875 319.046875 198.847656 318.820312 201.144531 C 318.59375 203.441406 318.3125 205.730469 317.972656 208.011719 C 317.636719 210.296875 317.242188 212.566406 316.789062 214.832031 C 316.339844 217.09375 315.835938 219.34375 315.273438 221.582031 C 314.714844 223.820312 314.097656 226.046875 313.429688 228.253906 C 312.757812 230.460938 312.035156 232.652344 311.257812 234.824219 C 310.480469 236.996094 309.648438 239.148438 308.765625 241.28125 C 307.882812 243.414062 306.949219 245.523438 305.960938 247.609375 C 304.976562 249.695312 303.9375 251.753906 302.851562 253.789062 C 301.761719 255.824219 300.625 257.832031 299.441406 259.8125 C 298.253906 261.792969 297.019531 263.738281 295.738281 265.660156 C 294.457031 267.578125 293.125 269.464844 291.753906 271.316406 C 290.378906 273.171875 288.957031 274.988281 287.496094 276.773438 C 286.03125 278.558594 284.523438 280.304688 282.972656 282.011719 C 281.425781 283.722656 279.832031 285.394531 278.203125 287.027344 C 276.570312 288.65625 274.898438 290.246094 273.191406 291.796875 C 271.480469 293.347656 269.734375 294.855469 267.949219 296.316406 C 266.164062 297.78125 264.347656 299.199219 262.492188 300.574219 C 260.640625 301.949219 258.753906 303.277344 256.835938 304.5625 C 254.917969 305.84375 252.96875 307.078125 250.988281 308.261719 C 249.007812 309.449219 247.003906 310.585938 244.96875 311.675781 C 242.933594 312.761719 240.871094 313.800781 238.785156 314.785156 C 236.699219 315.773438 234.589844 316.707031 232.457031 317.589844 C 230.328125 318.472656 228.175781 319.304688 226 320.082031 C 223.828125 320.859375 221.636719 321.582031 219.429688 322.253906 C 217.222656 322.921875 215 323.539062 212.761719 324.097656 C 210.523438 324.660156 208.269531 325.164062 206.007812 325.613281 C 203.746094 326.0625 201.472656 326.457031 199.1875 326.796875 C 196.90625 327.136719 194.617188 327.417969 192.320312 327.644531 C 190.023438 327.871094 187.722656 328.039062 185.417969 328.152344 C 183.113281 328.265625 180.808594 328.324219 178.5 328.324219 C 176.191406 328.324219 173.886719 328.265625 171.582031 328.152344 C 169.277344 328.039062 166.976562 327.871094 164.679688 327.644531 C 162.382812 327.417969 160.09375 327.136719 157.8125 326.796875 C 155.527344 326.457031 153.253906 326.0625 150.992188 325.613281 C 148.730469 325.164062 146.476562 324.660156 144.238281 324.097656 C 142 323.539062 139.777344 322.921875 137.570312 322.253906 C 135.363281 321.582031 133.171875 320.859375 131 320.082031 C 128.824219 319.304688 126.671875 318.472656 124.542969 317.589844 C 122.410156 316.707031 120.300781 315.773438 118.214844 314.785156 C 116.128906 313.800781 114.066406 312.761719 112.03125 311.675781 C 109.996094 310.585938 107.992188 309.449219 106.011719 308.261719 C 104.03125 307.078125 102.082031 305.84375 100.164062 304.5625 C 98.246094 303.277344 96.359375 301.949219 94.507812 300.574219 C 92.652344 299.199219 90.835938 297.78125 89.050781 296.316406 C 87.265625 294.855469 85.519531 293.347656 83.808594 291.796875 C 82.101562 290.246094 80.429688 288.65625 78.796875 287.027344 C 77.167969 285.394531 75.574219 283.722656 74.027344 282.011719 C 72.476562 280.304688 70.96875 278.558594 69.503906 276.773438 C 68.042969 274.988281 66.621094 273.171875 65.246094 271.316406 C 63.875 269.464844 62.542969 267.578125 61.261719 265.660156 C 59.980469 263.738281 58.746094 261.792969 57.558594 259.8125 C 56.375 257.832031 55.238281 255.824219 54.148438 253.789062 C 53.0625 251.753906 52.023438 249.695312 51.039062 247.609375 C 50.050781 245.523438 49.117188 243.414062 48.234375 241.28125 C 47.351562 239.148438 46.519531 236.996094 45.742188 234.824219 C 44.964844 232.652344 44.242188 230.460938 43.570312 228.253906 C 42.902344 226.046875 42.285156 223.820312 41.726562 221.582031 C 41.164062 219.34375 40.660156 217.09375 40.210938 214.832031 C 39.757812 212.566406 39.363281 210.296875 39.027344 208.011719 C 38.6875 205.730469 38.40625 203.441406 38.179688 201.144531 C 37.953125 198.847656 37.78125 196.546875 37.667969 194.242188 C 37.554688 191.9375 37.5 189.632812 37.5 187.324219 C 37.5 185.015625 37.554688 182.710938 37.667969 180.40625 C 37.78125 178.101562 37.953125 175.800781 38.179688 173.503906 C 38.40625 171.207031 38.6875 168.917969 39.027344 166.632812 C 39.363281 164.351562 39.757812 162.078125 40.210938 159.816406 C 40.660156 157.550781 41.164062 155.300781 41.726562 153.0625 C 42.285156 150.824219 42.902344 148.601562 43.570312 146.394531 C 44.242188 144.183594 44.964844 141.996094 45.742188 139.820312 C 46.519531 137.648438 47.351562 135.496094 48.234375 133.363281 C 49.117188 131.234375 50.050781 129.125 51.039062 127.039062 C 52.023438 124.953125 53.0625 122.890625 54.148438 120.855469 C 55.238281 118.820312 56.375 116.8125 57.558594 114.835938 C 58.746094 112.855469 59.980469 110.90625 61.261719 108.988281 C 62.542969 107.070312 63.875 105.183594 65.246094 103.328125 C 66.621094 101.476562 68.042969 99.65625 69.503906 97.875 C 70.96875 96.089844 72.476562 94.34375 74.027344 92.632812 C 75.574219 90.925781 77.167969 89.253906 78.796875 87.621094 C 80.429688 85.988281 82.101562 84.398438 83.808594 82.847656 C 85.519531 81.300781 87.265625 79.792969 89.050781 78.328125 C 90.835938 76.863281 92.652344 75.445312 94.507812 74.070312 C 96.359375 72.695312 98.246094 71.367188 100.164062 70.085938 C 102.082031 68.804688 104.03125 67.570312 106.011719 66.382812 C 107.992188 65.199219 109.996094 64.058594 112.03125 62.972656 C 114.066406 61.886719 116.128906 60.847656 118.214844 59.859375 C 120.300781 58.875 122.410156 57.941406 124.542969 57.054688 C 126.671875 56.171875 128.824219 55.34375 131 54.566406 C 133.171875 53.789062 135.363281 53.066406 137.570312 52.394531 C 139.777344 51.726562 142 51.109375 144.238281 50.550781 C 146.476562 49.988281 148.730469 49.484375 150.992188 49.03125 C 153.253906 48.582031 155.527344 48.1875 157.8125 47.851562 C 160.09375 47.511719 162.382812 47.230469 164.679688 47.003906 C 166.976562 46.777344 169.277344 46.605469 171.582031 46.492188 C 173.886719 46.378906 176.191406 46.324219 178.5 46.324219 C 180.808594 46.324219 183.113281 46.378906 185.417969 46.492188 C 187.722656 46.605469 190.023438 46.777344 192.320312 47.003906 C 194.617188 47.230469 196.90625 47.511719 199.1875 47.851562 C 201.472656 48.1875 203.746094 48.582031 206.007812 49.03125 C 208.269531 49.484375 210.523438 49.988281 212.761719 50.550781 C 215 51.109375 217.222656 51.726562 219.429688 52.394531 C 221.636719 53.066406 223.828125 53.789062 226 54.566406 C 228.175781 55.34375 230.328125 56.171875 232.457031 57.054688 C 234.589844 57.941406 236.699219 58.875 238.785156 59.859375 C 240.871094 60.847656 242.933594 61.886719 244.96875 62.972656 C 247.003906 64.058594 249.007812 65.199219 250.988281 66.382812 C 252.96875 67.570312 254.917969 68.804688 256.835938 70.085938 C 258.753906 71.367188 260.640625 72.695312 262.492188 74.070312 C 264.347656 75.445312 266.164062 76.863281 267.949219 78.328125 C 269.734375 79.792969 271.480469 81.300781 273.191406 82.847656 C 274.898438 84.398438 276.570312 85.988281 278.203125 87.621094 C 279.832031 89.253906 281.425781 90.925781 282.972656 92.632812 C 284.523438 94.34375 286.03125 96.089844 287.496094 97.875 C 288.957031 99.65625 290.378906 101.476562 291.753906 103.328125 C 293.125 105.183594 294.457031 107.070312 295.738281 108.988281 C 297.019531 110.90625 298.253906 112.855469 299.441406 114.835938 C 300.625 116.8125 301.761719 118.820312 302.851562 120.855469 C 303.9375 122.890625 304.976562 124.953125 305.960938 127.039062 C 306.949219 129.125 307.882812 131.234375 308.765625 133.363281 C 309.648438 135.496094 310.480469 137.648438 311.257812 139.820312 C 312.035156 141.996094 312.757812 144.183594 313.429688 146.394531 C 314.097656 148.601562 314.714844 150.824219 315.273438 153.0625 C 315.835938 155.300781 316.339844 157.550781 316.789062 159.816406 C 317.242188 162.078125 317.636719 164.351562 317.972656 166.632812 C 318.3125 168.917969 318.59375 171.207031 318.820312 173.503906 C 319.046875 175.800781 319.21875 178.101562 319.332031 180.40625 C 319.441406 182.710938 319.5 185.015625 319.5 187.324219 Z M 319.5 187.324219 " fill-opacity="1" fill-rule="nonzero"/></g><g clip-path="url(#2b9fb41ff9)"><path fill="#579f3a" d="M 246.175781 187.5 C 246.175781 188.605469 246.148438 189.707031 246.09375 190.8125 C 246.039062 191.914062 245.960938 193.015625 245.851562 194.117188 C 245.742188 195.214844 245.609375 196.3125 245.445312 197.402344 C 245.285156 198.496094 245.09375 199.585938 244.878906 200.667969 C 244.664062 201.753906 244.421875 202.828125 244.152344 203.902344 C 243.886719 204.972656 243.589844 206.035156 243.269531 207.09375 C 242.949219 208.152344 242.601562 209.199219 242.230469 210.238281 C 241.859375 211.28125 241.460938 212.308594 241.039062 213.332031 C 240.617188 214.351562 240.167969 215.359375 239.695312 216.359375 C 239.222656 217.359375 238.726562 218.34375 238.207031 219.320312 C 237.683594 220.292969 237.140625 221.253906 236.574219 222.203125 C 236.003906 223.148438 235.414062 224.082031 234.800781 225 C 234.1875 225.917969 233.550781 226.824219 232.894531 227.710938 C 232.234375 228.597656 231.554688 229.46875 230.855469 230.320312 C 230.152344 231.175781 229.433594 232.011719 228.691406 232.832031 C 227.949219 233.648438 227.1875 234.449219 226.40625 235.230469 C 225.625 236.011719 224.824219 236.773438 224.007812 237.515625 C 223.1875 238.257812 222.351562 238.976562 221.496094 239.679688 C 220.644531 240.378906 219.773438 241.058594 218.886719 241.714844 C 218 242.375 217.097656 243.011719 216.175781 243.625 C 215.257812 244.238281 214.324219 244.828125 213.378906 245.398438 C 212.429688 245.964844 211.46875 246.507812 210.496094 247.03125 C 209.519531 247.550781 208.535156 248.046875 207.535156 248.519531 C 206.539062 248.992188 205.527344 249.4375 204.507812 249.863281 C 203.488281 250.285156 202.457031 250.683594 201.417969 251.054688 C 200.375 251.425781 199.328125 251.773438 198.269531 252.09375 C 197.214844 252.414062 196.148438 252.707031 195.078125 252.976562 C 194.007812 253.246094 192.929688 253.488281 191.84375 253.703125 C 190.761719 253.917969 189.671875 254.105469 188.582031 254.269531 C 187.488281 254.429688 186.390625 254.566406 185.292969 254.675781 C 184.191406 254.785156 183.09375 254.863281 181.988281 254.917969 C 180.886719 254.972656 179.78125 255 178.675781 255 C 177.570312 255 176.46875 254.972656 175.363281 254.917969 C 174.261719 254.863281 173.160156 254.785156 172.058594 254.675781 C 170.960938 254.566406 169.863281 254.429688 168.773438 254.269531 C 167.679688 254.105469 166.589844 253.917969 165.507812 253.703125 C 164.425781 253.488281 163.347656 253.246094 162.273438 252.976562 C 161.203125 252.707031 160.140625 252.414062 159.082031 252.09375 C 158.023438 251.773438 156.976562 251.425781 155.9375 251.054688 C 154.894531 250.683594 153.867188 250.285156 152.84375 249.863281 C 151.824219 249.4375 150.816406 248.992188 149.816406 248.519531 C 148.816406 248.046875 147.832031 247.550781 146.855469 247.03125 C 145.882812 246.507812 144.921875 245.964844 143.972656 245.398438 C 143.027344 244.828125 142.09375 244.238281 141.175781 243.625 C 140.257812 243.011719 139.355469 242.375 138.464844 241.714844 C 137.578125 241.058594 136.707031 240.378906 135.855469 239.679688 C 135 238.976562 134.164062 238.257812 133.347656 237.515625 C 132.527344 236.773438 131.726562 236.011719 130.945312 235.230469 C 130.164062 234.449219 129.402344 233.648438 128.664062 232.832031 C 127.921875 232.011719 127.199219 231.175781 126.5 230.320312 C 125.796875 229.46875 125.117188 228.597656 124.460938 227.710938 C 123.800781 226.824219 123.164062 225.917969 122.550781 225 C 121.9375 224.082031 121.347656 223.148438 120.78125 222.203125 C 120.210938 221.253906 119.667969 220.292969 119.148438 219.320312 C 118.625 218.34375 118.128906 217.359375 117.65625 216.359375 C 117.183594 215.359375 116.738281 214.351562 116.316406 213.332031 C 115.890625 212.308594 115.496094 211.28125 115.121094 210.238281 C 114.75 209.199219 114.402344 208.152344 114.082031 207.09375 C 113.761719 206.035156 113.46875 204.972656 113.199219 203.902344 C 112.929688 202.828125 112.6875 201.753906 112.472656 200.667969 C 112.257812 199.585938 112.070312 198.496094 111.90625 197.402344 C 111.746094 196.3125 111.609375 195.214844 111.5 194.117188 C 111.394531 193.015625 111.3125 191.914062 111.257812 190.8125 C 111.203125 189.707031 111.175781 188.605469 111.175781 187.5 C 111.175781 186.394531 111.203125 185.292969 111.257812 184.1875 C 111.3125 183.085938 111.394531 181.984375 111.5 180.882812 C 111.609375 179.785156 111.746094 178.6875 111.90625 177.59375 C 112.070312 176.503906 112.257812 175.414062 112.472656 174.332031 C 112.6875 173.246094 112.929688 172.171875 113.199219 171.097656 C 113.46875 170.027344 113.761719 168.960938 114.082031 167.90625 C 114.402344 166.847656 114.75 165.800781 115.121094 164.761719 C 115.496094 163.71875 115.890625 162.6875 116.316406 161.667969 C 116.738281 160.648438 117.183594 159.636719 117.65625 158.640625 C 118.128906 157.640625 118.625 156.65625 119.148438 155.679688 C 119.667969 154.707031 120.210938 153.746094 120.78125 152.796875 C 121.347656 151.851562 121.9375 150.917969 122.550781 150 C 123.164062 149.082031 123.800781 148.175781 124.460938 147.289062 C 125.117188 146.402344 125.796875 145.53125 126.5 144.679688 C 127.199219 143.824219 127.921875 142.988281 128.664062 142.167969 C 129.402344 141.351562 130.164062 140.550781 130.945312 139.769531 C 131.726562 138.988281 132.527344 138.226562 133.347656 137.484375 C 134.164062 136.742188 135 136.023438 135.855469 135.320312 C 136.707031 134.621094 137.578125 133.941406 138.464844 133.285156 C 139.355469 132.625 140.257812 131.988281 141.175781 131.375 C 142.09375 130.761719 143.027344 130.171875 143.972656 129.601562 C 144.921875 129.035156 145.882812 128.492188 146.855469 127.96875 C 147.832031 127.449219 148.816406 126.953125 149.816406 126.480469 C 150.816406 126.007812 151.824219 125.5625 152.84375 125.136719 C 153.867188 124.714844 154.894531 124.316406 155.9375 123.945312 C 156.976562 123.574219 158.023438 123.226562 159.082031 122.90625 C 160.140625 122.585938 161.203125 122.292969 162.273438 122.023438 C 163.347656 121.753906 164.425781 121.511719 165.507812 121.296875 C 166.589844 121.082031 167.679688 120.894531 168.773438 120.730469 C 169.863281 120.570312 170.960938 120.433594 172.058594 120.324219 C 173.160156 120.214844 174.261719 120.136719 175.363281 120.082031 C 176.46875 120.027344 177.570312 120 178.675781 120 C 179.78125 120 180.886719 120.027344 181.988281 120.082031 C 183.09375 120.136719 184.191406 120.214844 185.292969 120.324219 C 186.390625 120.433594 187.488281 120.570312 188.582031 120.730469 C 189.671875 120.894531 190.761719 121.082031 191.84375 121.296875 C 192.929688 121.511719 194.007812 121.753906 195.078125 122.023438 C 196.148438 122.292969 197.214844 122.585938 198.269531 122.90625 C 199.328125 123.226562 200.375 123.574219 201.417969 123.945312 C 202.457031 124.316406 203.488281 124.714844 204.507812 125.136719 C 205.527344 125.5625 206.539062 126.007812 207.535156 126.480469 C 208.535156 126.953125 209.523438 127.449219 210.496094 127.96875 C 211.46875 128.492188 212.429688 129.035156 213.378906 129.601562 C 214.324219 130.171875 215.257812 130.761719 216.175781 131.375 C 217.097656 131.988281 218 132.625 218.886719 133.285156 C 219.773438 133.941406 220.644531 134.621094 221.496094 135.320312 C 222.351562 136.023438 223.1875 136.742188 224.007812 137.484375 C 224.824219 138.226562 225.625 138.988281 226.40625 139.769531 C 227.1875 140.550781 227.949219 141.351562 228.691406 142.167969 C 229.433594 142.988281 230.152344 143.824219 230.855469 144.679688 C 231.554688 145.53125 232.234375 146.402344 232.894531 147.289062 C 233.550781 148.175781 234.1875 149.082031 234.800781 150 C 235.414062 150.917969 236.003906 151.851562 236.574219 152.796875 C 237.140625 153.746094 237.683594 154.707031 238.207031 155.679688 C 238.726562 156.65625 239.222656 157.640625 239.695312 158.640625 C 240.167969 159.636719 240.617188 160.648438 241.039062 161.667969 C 241.460938 162.6875 241.859375 163.71875 242.230469 164.761719 C 242.601562 165.800781 242.949219 166.847656 243.269531 167.90625 C 243.589844 168.960938 243.886719 170.027344 244.152344 171.097656 C 244.421875 172.171875 244.664062 173.246094 244.878906 174.332031 C 245.09375 175.414062 245.285156 176.503906 245.445312 177.59375 C 245.609375 178.6875 245.742188 179.785156 245.851562 180.882812 C 245.960938 181.984375 246.039062 183.085938 246.09375 184.1875 C 246.148438 185.292969 246.175781 186.394531 246.175781 187.5 Z M 246.175781 187.5 " fill-opacity="1" fill-rule="nonzero"/></g></svg>