<svg width="325" height="148" viewBox="0 0 325 148" fill="none" xmlns="http://www.w3.org/2000/svg">
<rect x="0.533746" y="0.41427" width="323.76" height="146.848" rx="3.65" fill="#121212" stroke="#0379FF" stroke-width="0.7"/>
<ellipse cx="21.6282" cy="15.7458" rx="3.04" ry="3.03842" fill="#009B2B"/>
<path d="M26.6883 15.7458C26.6883 18.5065 24.4498 20.7446 21.6883 20.7446C18.9269 20.7446 16.6883 18.5065 16.6883 15.7458C16.6883 12.985 18.9269 10.7469 21.6883 10.7469C24.4498 10.7469 26.6883 12.985 26.6883 15.7458Z" stroke="#009B2B" stroke-width="0.3"/>
<path d="M25.568 15.7974C25.5399 17.9387 23.7803 19.6519 21.6375 19.6238C19.4947 19.5957 17.7806 17.8369 17.8086 15.6957C17.8367 13.5545 19.5964 11.8413 21.7391 11.8693C23.8819 11.8974 25.5961 13.6562 25.568 15.7974Z" stroke="#009B2B" stroke-width="0.3"/>
<path d="M14.6765 46.2651H15.9714V39.5429H16.0729L18.758 46.2651H19.8117L22.5031 39.5429H22.5983V46.2651H23.8932V37.1054H22.2556L19.3356 44.4116H19.2341L16.3141 37.1054H14.6765V46.2651ZM27.924 46.3794C28.8381 46.3794 29.5617 45.9858 29.968 45.2876H30.0759V46.2651H31.4406V41.5488C31.4406 40.1015 30.4631 39.2383 28.7302 39.2383C27.1623 39.2383 26.0768 39.9936 25.9118 41.1235L25.9055 41.1679H27.2321L27.2385 41.1425C27.4035 40.6538 27.905 40.3745 28.6667 40.3745C29.5998 40.3745 30.0759 40.7934 30.0759 41.5488V42.1582L28.2097 42.2661C26.5656 42.3676 25.6389 43.0849 25.6389 44.3164V44.3291C25.6389 45.5796 26.61 46.3794 27.924 46.3794ZM27.0099 44.2719V44.2592C27.0099 43.6372 27.4416 43.2944 28.3937 43.2373L30.0759 43.1294V43.7197C30.0759 44.6084 29.3205 45.2812 28.2922 45.2812C27.5495 45.2812 27.0099 44.9067 27.0099 44.2719ZM33.383 46.2651H34.7604V42.2216C34.7604 41.1108 35.3889 40.4189 36.3981 40.4189C37.4074 40.4189 37.8835 40.9839 37.8835 42.1264V46.2651H39.2546V41.8027C39.2546 40.1587 38.404 39.2383 36.8615 39.2383C35.8586 39.2383 35.1984 39.6826 34.862 40.4189H34.7604V39.3716H33.383V46.2651ZM44.0788 46.3984C45.7863 46.3984 46.7702 45.478 47.0178 44.1386L47.0305 44.0815H45.7101L45.6974 44.1133C45.4753 44.8559 44.9421 45.2495 44.0788 45.2495C42.9426 45.2495 42.238 44.3227 42.238 42.7993V42.7866C42.238 41.3012 42.9299 40.3872 44.0788 40.3872C44.9929 40.3872 45.5515 40.895 45.7038 41.5742L45.7101 41.5932L47.0305 41.5869V41.5551C46.84 40.2158 45.8054 39.2383 44.0724 39.2383C42.0602 39.2383 40.8351 40.603 40.8351 42.7866V42.7993C40.8351 45.0273 42.0666 46.3984 44.0788 46.3984ZM48.6555 46.2651H50.0329V42.2216C50.0329 41.1108 50.6613 40.4189 51.6706 40.4189C52.6799 40.4189 53.1559 40.9839 53.1559 42.1264V46.2651H54.527V41.8027C54.527 40.1587 53.6765 39.2383 52.134 39.2383C51.131 39.2383 50.4709 39.6826 50.1345 40.4189H50.0329V36.6674H48.6555V46.2651ZM59.3449 46.3984C61.1096 46.3984 62.0617 45.3828 62.2902 44.4751L62.3029 44.4179L60.9763 44.4243L60.9509 44.4751C60.7858 44.8305 60.259 45.2685 59.3766 45.2685C58.2404 45.2685 57.5168 44.5005 57.4914 43.1801H62.3791V42.6977C62.3791 40.6284 61.1984 39.2383 59.2751 39.2383C57.3517 39.2383 56.1076 40.6792 56.1076 42.831V42.8374C56.1076 45.021 57.3264 46.3984 59.3449 46.3984ZM59.2814 40.3681C60.2145 40.3681 60.9064 40.9648 61.0143 42.1963H57.5104C57.631 41.0092 58.342 40.3681 59.2814 40.3681ZM66.5241 46.3984C68.1618 46.3984 69.3806 45.5288 69.3806 44.2529V44.2402C69.3806 43.2436 68.7458 42.6787 67.4191 42.3676L66.3273 42.1201C65.5529 41.936 65.2355 41.6694 65.2355 41.2378V41.2251C65.2355 40.6728 65.7814 40.2983 66.5368 40.2983C67.3112 40.2983 67.8 40.6601 67.9333 41.1425V41.1552H69.2473V41.1489C69.1266 40.0254 68.1174 39.2383 66.5432 39.2383C64.9816 39.2383 63.8644 40.1015 63.8644 41.3012V41.3076C63.8644 42.3169 64.4675 42.9072 65.7687 43.2055L66.8669 43.4594C67.6667 43.6435 67.9904 43.9355 67.9904 44.3672V44.3799C67.9904 44.9448 67.4001 45.332 66.5495 45.332C65.7307 45.332 65.2292 44.9829 65.0578 44.4624L65.0515 44.456H63.674V44.4624C63.8073 45.6176 64.861 46.3984 66.5241 46.3984ZM73.5764 46.3095C73.843 46.3095 74.0969 46.2778 74.319 46.2397V45.1416C74.1286 45.1606 74.008 45.167 73.7985 45.167C73.1193 45.167 72.84 44.8623 72.84 44.1196V40.457H74.319V39.3716H72.84V37.6323H71.4372V39.3716H70.3581V40.457H71.4372V44.4497C71.4372 45.7763 72.0593 46.3095 73.5764 46.3095ZM78.7433 46.3984C80.508 46.3984 81.4601 45.3828 81.6887 44.4751L81.7014 44.4179L80.3747 44.4243L80.3493 44.4751C80.1843 44.8305 79.6574 45.2685 78.7751 45.2685C77.6389 45.2685 76.9152 44.5005 76.8898 43.1801H81.7775V42.6977C81.7775 40.6284 80.5969 39.2383 78.6735 39.2383C76.7502 39.2383 75.506 40.6792 75.506 42.831V42.8374C75.506 45.021 76.7248 46.3984 78.7433 46.3984ZM78.6799 40.3681C79.613 40.3681 80.3049 40.9648 80.4128 42.1963H76.9089C77.0295 41.0092 77.7404 40.3681 78.6799 40.3681ZM83.4152 46.2651H84.7927V42.1455C84.7927 41.1489 85.5099 40.5014 86.5637 40.5014C86.8239 40.5014 87.0588 40.5332 87.3063 40.584V39.3144C87.1667 39.2827 86.9255 39.2509 86.7033 39.2509C85.7829 39.2509 85.1418 39.6826 84.8942 40.4126H84.7927V39.3716H83.4152V46.2651ZM96.0344 46.4873C98.3386 46.4873 99.7414 45.1225 99.7414 43.1103V37.1054H98.3195V43.0024C98.3195 44.3291 97.4943 45.2304 96.0344 45.2304C94.5744 45.2304 93.7429 44.3291 93.7429 43.0024V37.1054H92.321V43.1103C92.321 45.1225 93.7365 46.4873 96.0344 46.4873ZM101.874 46.2651H103.252V42.2216C103.252 41.1108 103.88 40.4189 104.889 40.4189C105.899 40.4189 106.375 40.9839 106.375 42.1264V46.2651H107.746V41.8027C107.746 40.1587 106.895 39.2383 105.353 39.2383C104.35 39.2383 103.69 39.6826 103.353 40.4189H103.252V39.3716H101.874V46.2651ZM110.386 38.1401C110.856 38.1401 111.25 37.7529 111.25 37.2832C111.25 36.8071 110.856 36.4199 110.386 36.4199C109.91 36.4199 109.523 36.8071 109.523 37.2832C109.523 37.7529 109.91 38.1401 110.386 38.1401ZM109.695 46.2651H111.066V39.3716H109.695V46.2651ZM115.674 46.3095C115.941 46.3095 116.195 46.2778 116.417 46.2397V45.1416C116.226 45.1606 116.106 45.167 115.896 45.167C115.217 45.167 114.938 44.8623 114.938 44.1196V40.457H116.417V39.3716H114.938V37.6323H113.535V39.3716H112.456V40.457H113.535V44.4497C113.535 45.7763 114.157 46.3095 115.674 46.3095ZM120.841 46.3984C122.606 46.3984 123.558 45.3828 123.786 44.4751L123.799 44.4179L122.472 44.4243L122.447 44.4751C122.282 44.8305 121.755 45.2685 120.873 45.2685C119.737 45.2685 119.013 44.5005 118.987 43.1801H123.875V42.6977C123.875 40.6284 122.695 39.2383 120.771 39.2383C118.848 39.2383 117.604 40.6792 117.604 42.831V42.8374C117.604 45.021 118.822 46.3984 120.841 46.3984ZM120.778 40.3681C121.711 40.3681 122.403 40.9648 122.51 42.1963H119.007C119.127 41.0092 119.838 40.3681 120.778 40.3681ZM128.027 46.3794C128.991 46.3794 129.747 45.935 130.147 45.1797H130.255V46.2651H131.626V36.6674H130.255V40.4633H130.147C129.779 39.7207 128.972 39.2509 128.027 39.2509C126.275 39.2509 125.17 40.6284 125.17 42.812V42.8247C125.17 44.9892 126.294 46.3794 128.027 46.3794ZM128.42 45.205C127.265 45.205 126.573 44.3037 126.573 42.8247V42.812C126.573 41.333 127.265 40.4316 128.42 40.4316C129.563 40.4316 130.274 41.3393 130.274 42.812V42.8247C130.274 44.2973 129.569 45.205 128.42 45.205Z" fill="white"/>
<path d="M225.923 44.2651H226.978V35.81H225.929L223.679 37.4272V38.5405L225.829 36.9819H225.923V44.2651ZM232.186 35.6108C230.481 35.6108 229.228 36.8354 229.228 38.5229V38.5346C229.228 40.1577 230.411 41.3647 231.999 41.3647C233.142 41.3647 233.938 40.7495 234.249 40.0581H234.36C234.36 40.1225 234.36 40.1928 234.354 40.2573C234.29 42.021 233.663 43.521 232.128 43.521C231.272 43.521 230.681 43.0815 230.423 42.3725L230.399 42.3081H229.339L229.356 42.3842C229.644 43.6323 230.698 44.4643 232.116 44.4643C234.167 44.4643 235.368 42.7768 235.368 39.894V39.8823C235.368 36.7007 233.733 35.6108 232.186 35.6108ZM232.181 40.4448C231.085 40.4448 230.288 39.6362 230.288 38.5112V38.4995C230.288 37.4038 231.138 36.5424 232.198 36.5424C233.27 36.5424 234.108 37.4214 234.108 38.5346V38.5405C234.108 39.6421 233.276 40.4448 232.181 40.4448ZM236.979 41.3354H240.917V40.3862H236.979V41.3354ZM246.583 44.2651H247.614V42.5132H248.815V41.5698H247.614V35.81H246.085C244.901 37.5737 243.606 39.6362 242.464 41.5522V42.5132H246.583V44.2651ZM243.542 41.5757V41.5053C244.462 39.9526 245.569 38.2065 246.519 36.7885H246.589V41.5757H243.542ZM250.362 41.3354H254.3V40.3862H250.362V41.3354ZM259.966 44.2651H260.997V42.5132H262.198V41.5698H260.997V35.81H259.468C258.284 37.5737 256.989 39.6362 255.847 41.5522V42.5132H259.966V44.2651ZM256.925 41.5757V41.5053C257.845 39.9526 258.952 38.2065 259.901 36.7885H259.972V41.5757H256.925ZM263.165 46.4155H263.921L264.841 43.0815H263.675L263.165 46.4155ZM270.354 44.2651H275.827V43.3159H271.819V43.2221L273.741 41.2358C275.27 39.6596 275.686 38.9565 275.686 37.9897V37.978C275.686 36.6128 274.556 35.6108 273.079 35.6108C271.462 35.6108 270.302 36.6889 270.296 38.1889L270.308 38.1948L271.315 38.2007L271.321 38.1889C271.321 37.1928 271.995 36.5307 273.009 36.5307C274.005 36.5307 274.608 37.1987 274.608 38.0893V38.101C274.608 38.8393 274.292 39.2788 273.214 40.4448L270.354 43.5385V44.2651ZM277.603 44.2651H278.622V40.5268C278.622 39.4194 279.261 38.7397 280.269 38.7397C281.276 38.7397 281.745 39.2846 281.745 40.4214V44.2651H282.765V40.1753C282.765 38.6753 281.974 37.8374 280.556 37.8374C279.624 37.8374 279.032 38.2299 278.716 38.8979H278.622V37.9487H277.603V44.2651ZM286.942 44.3764C287.821 44.3764 288.524 43.9604 288.911 43.2573H289.005V44.2651H290.024V35.4409H289.005V38.9448H288.911C288.565 38.271 287.81 37.8374 286.942 37.8374C285.337 37.8374 284.294 39.1206 284.294 41.101V41.1128C284.294 43.0815 285.343 44.3764 286.942 44.3764ZM287.177 43.4741C286.022 43.4741 285.337 42.5835 285.337 41.1128V41.101C285.337 39.6303 286.022 38.7397 287.177 38.7397C288.325 38.7397 289.028 39.6421 289.028 41.101V41.1128C289.028 42.5717 288.325 43.4741 287.177 43.4741ZM295.485 44.2651H300.724V43.3159H296.54V40.4096H300.507V39.4721H296.54V36.7592H300.724V35.81H295.485V44.2651ZM302.634 44.2651H303.688V41.2475H305.821C307.409 41.2475 308.534 40.1284 308.534 38.5229V38.5112C308.534 36.9057 307.409 35.81 305.821 35.81H302.634V44.2651ZM305.552 36.7475C306.759 36.7475 307.456 37.4096 307.456 38.5229V38.5346C307.456 39.6479 306.759 40.31 305.552 40.31H303.688V36.7475H305.552ZM310.263 44.2651H315.395V43.3159H311.317V35.81H310.263V44.2651Z" fill="#7E7979"/>
<path d="M225.923 67.6185H226.978V59.1635H225.929L223.679 60.7806V61.8939L225.829 60.3353H225.923V67.6185ZM229.421 67.6185H234.894V66.6693H230.886V66.5756L232.808 64.5892C234.337 63.0131 234.753 62.3099 234.753 61.3431V61.3314C234.753 59.9662 233.622 58.9642 232.145 58.9642C230.528 58.9642 229.368 60.0424 229.362 61.5424L229.374 61.5482L230.382 61.5541L230.388 61.5424C230.388 60.5463 231.061 59.8842 232.075 59.8842C233.071 59.8842 233.675 60.5521 233.675 61.4427V61.4545C233.675 62.1927 233.358 62.6322 232.28 63.7982L229.421 66.892V67.6185ZM236.581 64.6888H240.519V63.7396H236.581V64.6888ZM242.323 67.6185H247.796V66.6693H243.788V66.5756L245.71 64.5892C247.239 63.0131 247.655 62.3099 247.655 61.3431V61.3314C247.655 59.9662 246.524 58.9642 245.048 58.9642C243.431 58.9642 242.27 60.0424 242.265 61.5424L242.276 61.5482L243.284 61.5541L243.29 61.5424C243.29 60.5463 243.964 59.8842 244.978 59.8842C245.974 59.8842 246.577 60.5521 246.577 61.4427V61.4545C246.577 62.1927 246.261 62.6322 245.183 63.7982L242.323 66.892V67.6185ZM249.483 64.6888H253.421V63.7396H249.483V64.6888ZM259.087 67.6185H260.118V65.8666H261.319V64.9232H260.118V59.1635H258.589C257.405 60.9271 256.11 62.9896 254.968 64.9056V65.8666H259.087V67.6185ZM256.046 64.9291V64.8588C256.966 63.306 258.073 61.5599 259.022 60.142H259.093V64.9291H256.046ZM262.286 69.7689H263.042L263.962 66.4349H262.796L262.286 69.7689ZM272.464 67.8177C274.169 67.8177 275.423 66.5931 275.423 64.9056V64.8939C275.423 63.2709 274.239 62.0638 272.651 62.0638C271.509 62.0638 270.712 62.6791 270.401 63.3705H270.29C270.29 63.306 270.29 63.2357 270.296 63.1713C270.36 61.4076 270.987 59.9076 272.522 59.9076C273.378 59.9076 273.97 60.347 274.228 61.056L274.251 61.1205H275.311L275.294 61.0443C275.007 59.7963 273.952 58.9642 272.534 58.9642C270.483 58.9642 269.282 60.6517 269.282 63.5345V63.5463C269.282 66.7279 270.917 67.8177 272.464 67.8177ZM270.542 64.8939V64.8881C270.542 63.7865 271.374 62.9838 272.47 62.9838C273.565 62.9838 274.362 63.7924 274.362 64.9174V64.9291C274.362 66.0248 273.513 66.8861 272.452 66.8861C271.38 66.8861 270.542 66.0072 270.542 64.8939ZM279.366 67.6654C279.565 67.6654 279.759 67.642 279.958 67.6068V66.7396C279.77 66.7572 279.671 66.7631 279.489 66.7631C278.833 66.7631 278.575 66.4642 278.575 65.7201V62.1459H279.958V61.3021H278.575V59.6674H277.52V61.3021H276.524V62.1459H277.52V65.9779C277.52 67.1849 278.065 67.6654 279.366 67.6654ZM281.54 67.6185H282.56V63.8802C282.56 62.7728 283.198 62.0931 284.206 62.0931C285.214 62.0931 285.683 62.6381 285.683 63.7748V67.6185H286.702V63.5287C286.702 62.0287 285.911 61.1908 284.493 61.1908C283.561 61.1908 282.97 61.5834 282.653 62.2513H282.56V58.7943H281.54V67.6185ZM292.052 67.6185H297.29V66.6693H293.106V63.7631H297.073V62.8256H293.106V60.1127H297.29V59.1635H292.052V67.6185ZM299.2 67.6185H300.255V64.601H302.388C303.976 64.601 305.101 63.4818 305.101 61.8763V61.8646C305.101 60.2592 303.976 59.1635 302.388 59.1635H299.2V67.6185ZM302.118 60.101C303.325 60.101 304.022 60.7631 304.022 61.8763V61.8881C304.022 63.0013 303.325 63.6635 302.118 63.6635H300.255V60.101H302.118ZM306.829 67.6185H311.962V66.6693H307.884V59.1635H306.829V67.6185Z" fill="#7E7979"/>
<path d="M165.75 44.2651H167.015V42.5835H168.181V41.4702H167.015V35.81H165.146C163.98 37.562 162.738 39.56 161.625 41.4702V42.5835H165.75V44.2651ZM162.884 41.4936V41.4116C163.752 39.9292 164.783 38.2827 165.691 36.9174H165.767V41.4936H162.884Z" fill="white"/>
<path d="M161.827 68.2858H167.523V67.1667H163.614V67.0495L165.407 65.2624C166.942 63.7389 167.388 63.0006 167.388 62.0397V62.0221C167.388 60.6276 166.228 59.6256 164.651 59.6256C162.952 59.6256 161.757 60.7155 161.751 62.2624L161.763 62.2741H162.993L162.999 62.2565C162.999 61.3307 163.632 60.7096 164.581 60.7096C165.507 60.7096 166.075 61.319 166.075 62.1452V62.1628C166.075 62.8483 165.753 63.2819 164.634 64.4479L161.827 67.3952V68.2858Z" fill="white"/>
<path d="M36.863 21.0938C38.5681 21.0938 39.822 19.8692 39.822 18.1817V18.17C39.822 16.547 38.6384 15.3399 37.0505 15.3399C35.908 15.3399 35.1111 15.9552 34.8005 16.6466H34.6892C34.6892 16.5821 34.6892 16.5118 34.6951 16.4474C34.7595 14.6837 35.3865 13.1837 36.9216 13.1837C37.7771 13.1837 38.3689 13.6231 38.6267 14.3321L38.6501 14.3966H39.7107L39.6931 14.3204C39.406 13.0724 38.3513 12.2403 36.9333 12.2403C34.8826 12.2403 33.6814 13.9278 33.6814 16.8106V16.8224C33.6814 20.004 35.3162 21.0938 36.863 21.0938ZM34.9412 18.17V18.1642C34.9412 17.0626 35.7732 16.2599 36.8689 16.2599C37.9646 16.2599 38.7615 17.0685 38.7615 18.1935V18.2052C38.7615 19.3009 37.9119 20.1622 36.8513 20.1622C35.7791 20.1622 34.9412 19.2833 34.9412 18.17ZM44.5037 21.0938C46.2087 21.0938 47.4626 19.8692 47.4626 18.1817V18.17C47.4626 16.547 46.2791 15.3399 44.6912 15.3399C43.5486 15.3399 42.7517 15.9552 42.4412 16.6466H42.3298C42.3298 16.5821 42.3298 16.5118 42.3357 16.4474C42.4001 14.6837 43.0271 13.1837 44.5623 13.1837C45.4177 13.1837 46.0095 13.6231 46.2673 14.3321L46.2908 14.3966H47.3513L47.3337 14.3204C47.0466 13.0724 45.9919 12.2403 44.574 12.2403C42.5232 12.2403 41.322 13.9278 41.322 16.8106V16.8224C41.322 20.004 42.9568 21.0938 44.5037 21.0938ZM42.5818 18.17V18.1642C42.5818 17.0626 43.4138 16.2599 44.5095 16.2599C45.6052 16.2599 46.4021 17.0685 46.4021 18.1935V18.2052C46.4021 19.3009 45.5525 20.1622 44.4919 20.1622C43.4197 20.1622 42.5818 19.2833 42.5818 18.17ZM49.9939 15.1583C50.4158 15.1583 50.7556 14.8126 50.7556 14.3966C50.7556 13.9747 50.4158 13.6349 49.9939 13.6349C49.5779 13.6349 49.2322 13.9747 49.2322 14.3966C49.2322 14.8126 49.5779 15.1583 49.9939 15.1583ZM49.9939 19.6935C50.4158 19.6935 50.7556 19.3477 50.7556 18.9317C50.7556 18.5099 50.4158 18.17 49.9939 18.17C49.5779 18.17 49.2322 18.5099 49.2322 18.9317C49.2322 19.3477 49.5779 19.6935 49.9939 19.6935ZM55.6951 21.0938C57.4119 21.0938 58.6365 19.9044 58.6365 18.1993V18.1876C58.6365 16.5528 57.4939 15.3634 55.906 15.3634C55.1384 15.3634 54.4763 15.6739 54.1013 16.2423H54.0076L54.2947 13.3829H58.1677V12.4395H53.4626L53.0173 17.297H53.9314C54.0369 17.0977 54.1716 16.9337 54.3181 16.7931C54.6814 16.4474 55.1619 16.2774 55.7244 16.2774C56.8201 16.2774 57.6052 17.0802 57.6052 18.2052V18.2169C57.6052 19.3595 56.8318 20.1622 55.7068 20.1622C54.7166 20.1622 53.9841 19.5177 53.8845 18.7091L53.8787 18.6622H52.865L52.8708 18.7267C52.9939 20.0802 54.1189 21.0938 55.6951 21.0938ZM60.3357 20.8946H65.8083V19.9454H61.8005V19.8517L63.7224 17.8653C65.2517 16.2892 65.6677 15.586 65.6677 14.6192V14.6075C65.6677 13.2423 64.5369 12.2403 63.0603 12.2403C61.4431 12.2403 60.283 13.3185 60.2771 14.8185L60.2888 14.8243L61.2966 14.8302L61.3025 14.8185C61.3025 13.8224 61.9763 13.1602 62.99 13.1602C63.9861 13.1602 64.5896 13.8282 64.5896 14.7188V14.7306C64.5896 15.4688 64.2732 15.9083 63.1951 17.0743L60.3357 20.1681V20.8946ZM70.9529 20.8946H76.4255V19.9454H72.4177V19.8517L74.3396 17.8653C75.8689 16.2892 76.2849 15.586 76.2849 14.6192V14.6075C76.2849 13.2423 75.1541 12.2403 73.6775 12.2403C72.0603 12.2403 70.9001 13.3185 70.8943 14.8185L70.906 14.8243L71.9138 14.8302L71.9197 14.8185C71.9197 13.8224 72.5935 13.1602 73.6072 13.1602C74.6033 13.1602 75.2068 13.8282 75.2068 14.7188V14.7306C75.2068 15.4688 74.8904 15.9083 73.8123 17.0743L70.9529 20.1681V20.8946ZM78.2009 20.8946H79.2205V17.1563C79.2205 16.0489 79.8591 15.3692 80.8669 15.3692C81.8748 15.3692 82.3435 15.9142 82.3435 17.0509V20.8946H83.363V16.8048C83.363 15.3048 82.572 14.4669 81.1541 14.4669C80.2224 14.4669 79.6306 14.8595 79.3142 15.5274H79.2205V14.5782H78.2009V20.8946ZM87.5408 21.006C88.4197 21.006 89.1228 20.5899 89.5095 19.8868H89.6033V20.8946H90.6228V12.0704H89.6033V15.5743H89.5095C89.1638 14.9005 88.408 14.4669 87.5408 14.4669C85.9353 14.4669 84.8923 15.7501 84.8923 17.7306V17.7423C84.8923 19.711 85.9412 21.006 87.5408 21.006ZM87.7751 20.1036C86.6208 20.1036 85.9353 19.213 85.9353 17.7423V17.7306C85.9353 16.2599 86.6208 15.3692 87.7751 15.3692C88.9236 15.3692 89.6267 16.2716 89.6267 17.7306V17.7423C89.6267 19.2013 88.9236 20.1036 87.7751 20.1036Z" fill="white"/>
<path d="M14.6765 69.6185H20.3893V68.3934H16.0983V60.4589H14.6765V69.6185ZM22.7507 61.4935C23.2204 61.4935 23.614 61.1063 23.614 60.6366C23.614 60.1605 23.2204 59.7733 22.7507 59.7733C22.2746 59.7733 21.8874 60.1605 21.8874 60.6366C21.8874 61.1063 22.2746 61.4935 22.7507 61.4935ZM22.0588 69.6185H23.4299V62.725H22.0588V69.6185ZM27.3337 69.6185H28.8L31.2883 62.725H29.841L28.1271 68.222H28.0192L26.299 62.725H24.8391L27.3337 69.6185ZM35.3 69.7518C37.0646 69.7518 38.0168 68.7362 38.2453 67.8285L38.258 67.7714L36.9313 67.7777L36.9059 67.8285C36.7409 68.184 36.2141 68.6219 35.3317 68.6219C34.1955 68.6219 33.4719 67.8539 33.4465 66.5336H38.3342V66.0511C38.3342 63.9818 37.1535 62.5917 35.2302 62.5917C33.3068 62.5917 32.0627 64.0326 32.0627 66.1844V66.1908C32.0627 68.3744 33.2814 69.7518 35.3 69.7518ZM35.2365 63.7216C36.1696 63.7216 36.8615 64.3182 36.9694 65.5497H33.4655C33.5861 64.3627 34.2971 63.7216 35.2365 63.7216ZM39.9719 69.6185H41.3493V65.4989C41.3493 64.5023 42.0666 63.8549 43.1203 63.8549C43.3806 63.8549 43.6154 63.8866 43.863 63.9374V62.6678C43.7233 62.6361 43.4821 62.6044 43.2599 62.6044C42.3395 62.6044 41.6984 63.036 41.4509 63.766H41.3493V62.725H39.9719V69.6185ZM45.2785 71.9164H46.6559V68.5267H46.7575C47.1257 69.2694 47.9318 69.7328 48.8776 69.7328C50.6296 69.7328 51.7341 68.3617 51.7341 66.1781V66.1654C51.7341 63.9945 50.6169 62.6044 48.8776 62.6044C47.9128 62.6044 47.1574 63.0551 46.7575 63.8104H46.6559V62.725H45.2785V71.9164ZM48.4904 68.5585C47.3415 68.5585 46.6306 67.6508 46.6306 66.1781V66.1654C46.6306 64.6927 47.3415 63.785 48.4904 63.785C49.6393 63.785 50.3312 64.6801 50.3312 66.1654V66.1781C50.3312 67.6571 49.6393 68.5585 48.4904 68.5585ZM56.3107 69.7518C58.3293 69.7518 59.5671 68.3998 59.5671 66.1781V66.1654C59.5671 63.9437 58.3229 62.5917 56.3107 62.5917C54.2922 62.5917 53.048 63.9501 53.048 66.1654V66.1781C53.048 68.3998 54.2858 69.7518 56.3107 69.7518ZM56.3107 68.6029C55.1237 68.6029 54.4572 67.7079 54.4572 66.1781V66.1654C54.4572 64.6356 55.1237 63.7406 56.3107 63.7406C57.4914 63.7406 58.1642 64.6356 58.1642 66.1654V66.1781C58.1642 67.7015 57.4914 68.6029 56.3107 68.6029ZM64.131 69.7518C66.1496 69.7518 67.3874 68.3998 67.3874 66.1781V66.1654C67.3874 63.9437 66.1432 62.5917 64.131 62.5917C62.1125 62.5917 60.8683 63.9501 60.8683 66.1654V66.1781C60.8683 68.3998 62.1061 69.7518 64.131 69.7518ZM64.131 68.6029C62.944 68.6029 62.2775 67.7079 62.2775 66.1781V66.1654C62.2775 64.6356 62.944 63.7406 64.131 63.7406C65.3117 63.7406 65.9846 64.6356 65.9846 66.1654V66.1781C65.9846 67.7015 65.3117 68.6029 64.131 68.6029ZM69.0949 69.6185H70.4724V60.0209H69.0949V69.6185Z" fill="white"/>
<rect x="12.1684" y="84.7817" width="130.394" height="49.0461" rx="4" fill="#3F3C3C"/>
<path d="M22.4614 104.273H23.6567V98.0675H23.7505L26.229 104.273H27.2016L29.686 98.0675H29.7739V104.273H30.9692V95.8175H29.4575L26.7622 102.562H26.6684L23.9731 95.8175H22.4614V104.273ZM34.6899 104.378C35.5337 104.378 36.2016 104.015 36.5766 103.37H36.6762V104.273H37.936V99.9191C37.936 98.5831 37.0337 97.7863 35.4341 97.7863C33.9868 97.7863 32.9848 98.4835 32.8325 99.5265L32.8266 99.5675H34.0512L34.0571 99.5441C34.2094 99.0929 34.6723 98.8351 35.3755 98.8351C36.2368 98.8351 36.6762 99.2218 36.6762 99.9191V100.482L34.9536 100.581C33.436 100.675 32.5805 101.337 32.5805 102.474V102.485C32.5805 103.64 33.477 104.378 34.6899 104.378ZM33.8462 102.433V102.421C33.8462 101.847 34.2446 101.53 35.1235 101.478L36.6762 101.378V101.923C36.6762 102.743 35.979 103.364 35.0298 103.364C34.3442 103.364 33.8462 103.019 33.8462 102.433ZM39.729 104.273H41.0005V100.54C41.0005 99.5148 41.5805 98.8761 42.5122 98.8761C43.4438 98.8761 43.8833 99.3976 43.8833 100.452V104.273H45.1489V100.153C45.1489 98.6359 44.3637 97.7863 42.9399 97.7863C42.0141 97.7863 41.4048 98.1964 41.0942 98.8761H41.0005V97.9093H39.729V104.273ZM49.602 104.396C51.1782 104.396 52.0864 103.546 52.3149 102.31L52.3266 102.257H51.1079L51.0962 102.286C50.8911 102.972 50.3989 103.335 49.602 103.335C48.5532 103.335 47.9028 102.48 47.9028 101.073V101.062C47.9028 99.6906 48.5415 98.8468 49.602 98.8468C50.4458 98.8468 50.9614 99.3156 51.102 99.9425L51.1079 99.9601L52.3266 99.9542V99.9249C52.1508 98.6886 51.1958 97.7863 49.5962 97.7863C47.7387 97.7863 46.6079 99.046 46.6079 101.062V101.073C46.6079 103.13 47.7446 104.396 49.602 104.396ZM53.8266 104.273H55.0981V100.54C55.0981 99.5148 55.6782 98.8761 56.6098 98.8761C57.5415 98.8761 57.9809 99.3976 57.9809 100.452V104.273H59.2466V100.153C59.2466 98.6359 58.4614 97.7863 57.0376 97.7863C56.1118 97.7863 55.5024 98.1964 55.1919 98.8761H55.0981V95.4132H53.8266V104.273ZM63.6938 104.396C65.3227 104.396 66.2016 103.458 66.4126 102.62L66.4243 102.568L65.1997 102.573L65.1762 102.62C65.0239 102.948 64.5376 103.353 63.7231 103.353C62.6743 103.353 62.0063 102.644 61.9829 101.425H66.4946V100.98C66.4946 99.0695 65.4048 97.7863 63.6294 97.7863C61.854 97.7863 60.7055 99.1163 60.7055 101.103V101.109C60.7055 103.124 61.8305 104.396 63.6938 104.396ZM63.6352 98.8292C64.4966 98.8292 65.1352 99.38 65.2348 100.517H62.0005C62.1118 99.421 62.768 98.8292 63.6352 98.8292ZM70.3208 104.396C71.8325 104.396 72.9575 103.593 72.9575 102.415V102.403C72.9575 101.484 72.3716 100.962 71.1469 100.675L70.1391 100.446C69.4243 100.276 69.1313 100.03 69.1313 99.632V99.6202C69.1313 99.1105 69.6352 98.7648 70.3325 98.7648C71.0473 98.7648 71.4985 99.0988 71.6216 99.5441V99.5558H72.8344V99.5499C72.7231 98.5128 71.7915 97.7863 70.3383 97.7863C68.8969 97.7863 67.8657 98.5831 67.8657 99.6906V99.6964C67.8657 100.628 68.4223 101.173 69.6235 101.448L70.6372 101.683C71.3755 101.853 71.6743 102.122 71.6743 102.521V102.532C71.6743 103.054 71.1294 103.411 70.3442 103.411C69.5883 103.411 69.1255 103.089 68.9673 102.609L68.9614 102.603H67.6899V102.609C67.813 103.675 68.7856 104.396 70.3208 104.396ZM76.8305 104.314C77.0766 104.314 77.311 104.284 77.5161 104.249V103.235C77.3403 103.253 77.229 103.259 77.0356 103.259C76.4087 103.259 76.1508 102.978 76.1508 102.292V98.9113H77.5161V97.9093H76.1508V96.3038H74.8559V97.9093H73.8598V98.9113H74.8559V102.597C74.8559 103.821 75.4301 104.314 76.8305 104.314ZM81.6001 104.396C83.229 104.396 84.1079 103.458 84.3188 102.62L84.3305 102.568L83.1059 102.573L83.0825 102.62C82.9301 102.948 82.4438 103.353 81.6294 103.353C80.5805 103.353 79.9126 102.644 79.8891 101.425H84.4008V100.98C84.4008 99.0695 83.311 97.7863 81.5356 97.7863C79.7602 97.7863 78.6118 99.1163 78.6118 101.103V101.109C78.6118 103.124 79.7368 104.396 81.6001 104.396ZM81.5415 98.8292C82.4028 98.8292 83.0415 99.38 83.1411 100.517H79.9067C80.018 99.421 80.6743 98.8292 81.5415 98.8292ZM85.9126 104.273H87.1841V100.47C87.1841 99.5499 87.8462 98.9523 88.8188 98.9523C89.0591 98.9523 89.2758 98.9816 89.5044 99.0284V97.8566C89.3755 97.8273 89.1528 97.798 88.9477 97.798C88.0981 97.798 87.5063 98.1964 87.2778 98.8702H87.1841V97.9093H85.9126V104.273ZM97.561 104.478C99.688 104.478 100.983 103.218 100.983 101.36V95.8175H99.6704V101.261C99.6704 102.485 98.9087 103.318 97.561 103.318C96.2133 103.318 95.4458 102.485 95.4458 101.261V95.8175H94.1333V101.36C94.1333 103.218 95.4399 104.478 97.561 104.478ZM102.952 104.273H104.223V100.54C104.223 99.5148 104.803 98.8761 105.735 98.8761C106.666 98.8761 107.106 99.3976 107.106 100.452V104.273H108.372V100.153C108.372 98.6359 107.586 97.7863 106.163 97.7863C105.237 97.7863 104.627 98.1964 104.317 98.8761H104.223V97.9093H102.952V104.273ZM110.809 96.7726C111.243 96.7726 111.606 96.4152 111.606 95.9816C111.606 95.5421 111.243 95.1847 110.809 95.1847C110.37 95.1847 110.012 95.5421 110.012 95.9816C110.012 96.4152 110.37 96.7726 110.809 96.7726ZM110.17 104.273H111.436V97.9093H110.17V104.273ZM115.69 104.314C115.936 104.314 116.17 104.284 116.375 104.249V103.235C116.2 103.253 116.088 103.259 115.895 103.259C115.268 103.259 115.01 102.978 115.01 102.292V98.9113H116.375V97.9093H115.01V96.3038H113.715V97.9093H112.719V98.9113H113.715V102.597C113.715 103.821 114.29 104.314 115.69 104.314ZM120.459 104.396C122.088 104.396 122.967 103.458 123.178 102.62L123.19 102.568L121.965 102.573L121.942 102.62C121.79 102.948 121.303 103.353 120.489 103.353C119.44 103.353 118.772 102.644 118.749 101.425H123.26V100.98C123.26 99.0695 122.17 97.7863 120.395 97.7863C118.62 97.7863 117.471 99.1163 117.471 101.103V101.109C117.471 103.124 118.596 104.396 120.459 104.396ZM120.401 98.8292C121.262 98.8292 121.901 99.38 122 100.517H118.766C118.877 99.421 119.534 98.8292 120.401 98.8292ZM127.092 104.378C127.983 104.378 128.68 103.968 129.049 103.271H129.149V104.273H130.415V95.4132H129.149V98.9171H129.049C128.709 98.2316 127.965 97.798 127.092 97.798C125.475 97.798 124.456 99.0695 124.456 101.085V101.097C124.456 103.095 125.493 104.378 127.092 104.378ZM127.456 103.294C126.389 103.294 125.75 102.462 125.75 101.097V101.085C125.75 99.7198 126.389 98.8878 127.456 98.8878C128.51 98.8878 129.166 99.7257 129.166 101.085V101.097C129.166 102.456 128.516 103.294 127.456 103.294Z" fill="white"/>
<path opacity="0.9" d="M58.2896 120.95H62.1861V119.409H58.2896V120.95ZM66.065 123.592H67.8345V115.137H66.0709L63.8853 116.655V118.249L65.9595 116.807H66.065V123.592ZM73.2662 114.915C71.3619 114.915 70.0259 116.192 70.0259 117.92V117.932C70.0259 119.532 71.1334 120.704 72.7798 120.704C73.9517 120.704 74.6548 120.118 74.9595 119.467H75.0767C75.0767 119.532 75.0767 119.596 75.0767 119.655C75.0123 121.196 74.4732 122.397 73.2486 122.397C72.5689 122.397 72.0884 122.04 71.8834 121.512L71.8658 121.459H70.1314L70.1431 121.512C70.4068 122.836 71.6197 123.803 73.2545 123.803C75.4224 123.803 76.7584 122.122 76.7584 119.291V119.28C76.7584 116.309 75.2232 114.915 73.2662 114.915ZM73.2662 119.397C72.3814 119.397 71.7369 118.758 71.7369 117.868V117.856C71.7369 116.995 72.4224 116.321 73.2779 116.321C74.1392 116.321 74.813 117.006 74.813 117.891V117.903C74.813 118.776 74.1392 119.397 73.2662 119.397ZM81.5923 123.809C83.6841 123.809 84.9498 122.098 84.9498 119.368V119.356C84.9498 116.62 83.6841 114.92 81.5923 114.92C79.5064 114.92 78.2349 116.62 78.2349 119.356V119.368C78.2349 122.098 79.5064 123.809 81.5923 123.809ZM81.5923 122.409C80.5963 122.409 80.0279 121.278 80.0279 119.368V119.356C80.0279 117.44 80.5963 116.321 81.5923 116.321C82.5943 116.321 83.1627 117.44 83.1627 119.356V119.368C83.1627 121.278 82.5943 122.409 81.5923 122.409Z" fill="#0379FF"/>
<rect x="149.238" y="84.3019" width="68.7618" height="49.0461" rx="4" fill="#3F3C3C"/>
<path d="M169.988 104.273H173.041C175.56 104.273 177.019 102.714 177.019 100.03V100.019C177.019 97.3644 175.548 95.8175 173.041 95.8175H169.988V104.273ZM171.3 103.142V96.9484H172.894C174.646 96.9484 175.683 98.0909 175.683 100.036V100.048C175.683 102.011 174.664 103.142 172.894 103.142H171.3ZM178.654 104.273H179.925V100.47C179.925 99.5499 180.588 98.9523 181.56 98.9523C181.8 98.9523 182.017 98.9816 182.246 99.0284V97.8566C182.117 97.8273 181.894 97.798 181.689 97.798C180.84 97.798 180.248 98.1964 180.019 98.8702H179.925V97.9093H178.654V104.273ZM185.158 104.378C186.002 104.378 186.67 104.015 187.045 103.37H187.144V104.273H188.404V99.9191C188.404 98.5831 187.502 97.7863 185.902 97.7863C184.455 97.7863 183.453 98.4835 183.3 99.5265L183.295 99.5675H184.519L184.525 99.5441C184.677 99.0929 185.14 98.8351 185.843 98.8351C186.705 98.8351 187.144 99.2218 187.144 99.9191V100.482L185.422 100.581C183.904 100.675 183.048 101.337 183.048 102.474V102.485C183.048 103.64 183.945 104.378 185.158 104.378ZM184.314 102.433V102.421C184.314 101.847 184.713 101.53 185.591 101.478L187.144 101.378V101.923C187.144 102.743 186.447 103.364 185.498 103.364C184.812 103.364 184.314 103.019 184.314 102.433ZM191.152 104.273H192.447L193.759 99.5265H193.859L195.177 104.273H196.484L198.236 97.9093H196.976L195.84 102.819H195.74L194.427 97.9093H193.22L191.908 102.819H191.814L190.672 97.9093H189.394L191.152 104.273Z" fill="white"/>
<path opacity="0.9" d="M167.156 120.95H169.687V123.405H171.228V120.95H173.766V119.409H171.228V116.954H169.687V119.409H167.156V120.95ZM178.506 123.78C180.48 123.78 181.799 122.743 181.799 121.207V121.196C181.799 120.047 180.978 119.321 179.719 119.204V119.168C180.709 118.963 181.482 118.278 181.482 117.223V117.211C181.482 115.864 180.31 114.95 178.494 114.95C176.719 114.95 175.529 115.934 175.406 117.446L175.4 117.516H177.029L177.035 117.463C177.105 116.76 177.662 116.309 178.494 116.309C179.326 116.309 179.812 116.743 179.812 117.446V117.457C179.812 118.143 179.238 118.612 178.348 118.612H177.404V119.872H178.371C179.396 119.872 180 120.317 180 121.125V121.137C180 121.852 179.408 122.356 178.506 122.356C177.592 122.356 176.988 121.887 176.912 121.231L176.906 121.166H175.213L175.219 121.243C175.336 122.754 176.596 123.78 178.506 123.78ZM185.443 123.592H187.213V115.137H185.449L183.264 116.655V118.249L185.338 116.807H185.443V123.592ZM192.768 123.809C194.859 123.809 196.125 122.098 196.125 119.368V119.356C196.125 116.62 194.859 114.92 192.768 114.92C190.682 114.92 189.41 116.62 189.41 119.356V119.368C189.41 122.098 190.682 123.809 192.768 123.809ZM192.768 122.409C191.771 122.409 191.203 121.278 191.203 119.368V119.356C191.203 117.44 191.771 116.321 192.768 116.321C193.769 116.321 194.338 117.44 194.338 119.356V119.368C194.338 121.278 193.769 122.409 192.768 122.409Z" fill="#0379FF"/>
<rect x="225.083" y="84.4642" width="89.0482" height="49.0461" rx="4" fill="#3F3C3C"/>
<path d="M245.63 104.435H250.903V103.304H246.942V95.9798H245.63V104.435ZM253.083 96.9349C253.516 96.9349 253.88 96.5775 253.88 96.1439C253.88 95.7044 253.516 95.347 253.083 95.347C252.643 95.347 252.286 95.7044 252.286 96.1439C252.286 96.5775 252.643 96.9349 253.083 96.9349ZM252.444 104.435H253.71V98.0716H252.444V104.435ZM257.313 104.435H258.667L260.964 98.0716H259.628L258.046 103.146H257.946L256.358 98.0716H255.01L257.313 104.435ZM264.667 104.558C266.296 104.558 267.175 103.62 267.385 102.783L267.397 102.73L266.173 102.736L266.149 102.783C265.997 103.111 265.51 103.515 264.696 103.515C263.647 103.515 262.979 102.806 262.956 101.587H267.468V101.142C267.468 99.2318 266.378 97.9485 264.602 97.9485C262.827 97.9485 261.678 99.2786 261.678 101.265V101.271C261.678 103.286 262.803 104.558 264.667 104.558ZM264.608 98.9915C265.469 98.9915 266.108 99.5423 266.208 100.679H262.973C263.085 99.5833 263.741 98.9915 264.608 98.9915ZM268.979 104.435H270.251V100.632C270.251 99.7122 270.913 99.1146 271.885 99.1146C272.126 99.1146 272.343 99.1439 272.571 99.1907V98.0189C272.442 97.9896 272.219 97.9603 272.014 97.9603C271.165 97.9603 270.573 98.3587 270.344 99.0325H270.251V98.0716H268.979V104.435ZM273.878 106.556H275.149V103.427H275.243C275.583 104.113 276.327 104.54 277.2 104.54C278.817 104.54 279.837 103.275 279.837 101.259V101.247C279.837 99.2435 278.805 97.9603 277.2 97.9603C276.309 97.9603 275.612 98.3763 275.243 99.0735H275.149V98.0716H273.878V106.556ZM276.843 103.456C275.782 103.456 275.126 102.618 275.126 101.259V101.247C275.126 99.888 275.782 99.0501 276.843 99.0501C277.903 99.0501 278.542 99.8763 278.542 101.247V101.259C278.542 102.624 277.903 103.456 276.843 103.456ZM284.061 104.558C285.925 104.558 287.067 103.31 287.067 101.259V101.247C287.067 99.1966 285.919 97.9485 284.061 97.9485C282.198 97.9485 281.05 99.2025 281.05 101.247V101.259C281.05 103.31 282.192 104.558 284.061 104.558ZM284.061 103.497C282.966 103.497 282.35 102.671 282.35 101.259V101.247C282.35 99.8353 282.966 99.0091 284.061 99.0091C285.151 99.0091 285.772 99.8353 285.772 101.247V101.259C285.772 102.665 285.151 103.497 284.061 103.497ZM291.28 104.558C293.143 104.558 294.286 103.31 294.286 101.259V101.247C294.286 99.1966 293.137 97.9485 291.28 97.9485C289.417 97.9485 288.268 99.2025 288.268 101.247V101.259C288.268 103.31 289.411 104.558 291.28 104.558ZM291.28 103.497C290.184 103.497 289.569 102.671 289.569 101.259V101.247C289.569 99.8353 290.184 99.0091 291.28 99.0091C292.37 99.0091 292.991 99.8353 292.991 101.247V101.259C292.991 102.665 292.37 103.497 291.28 103.497ZM295.862 104.435H297.134V95.5755H295.862V104.435Z" fill="white"/>
<path opacity="0.9" d="M252.613 120.632H255.145V123.087H256.686V120.632H259.223V119.091H256.686V116.636H255.145V119.091H252.613V120.632ZM264.725 123.275H266.412V121.722H267.514V120.304H266.412V114.82H263.928C262.803 116.554 261.654 118.429 260.582 120.333V121.722H264.725V123.275ZM262.176 120.351V120.257C262.937 118.892 263.846 117.421 264.666 116.161H264.76V120.351H262.176ZM272.307 123.492C274.398 123.492 275.664 121.781 275.664 119.05V119.038C275.664 116.302 274.398 114.603 272.307 114.603C270.221 114.603 268.949 116.302 268.949 119.038V119.05C268.949 121.781 270.221 123.492 272.307 123.492ZM272.307 122.091C271.311 122.091 270.742 120.96 270.742 119.05V119.038C270.742 117.122 271.311 116.003 272.307 116.003C273.309 116.003 273.877 117.122 273.877 119.038V119.05C273.877 120.96 273.309 122.091 272.307 122.091ZM280.521 123.492C282.613 123.492 283.879 121.781 283.879 119.05V119.038C283.879 116.302 282.613 114.603 280.521 114.603C278.436 114.603 277.164 116.302 277.164 119.038V119.05C277.164 121.781 278.436 123.492 280.521 123.492ZM280.521 122.091C279.525 122.091 278.957 120.96 278.957 119.05V119.038C278.957 117.122 279.525 116.003 280.521 116.003C281.523 116.003 282.092 117.122 282.092 119.038V119.05C282.092 120.96 281.523 122.091 280.521 122.091Z" fill="#0379FF"/>
</svg>
