<svg xmlns="http://www.w3.org/2000/svg" xmlns:xlink="http://www.w3.org/1999/xlink" width="500" zoomAndPan="magnify" viewBox="0 0 375 374.999991" height="500" preserveAspectRatio="xMidYMid meet" version="1.0"><defs><g/><clipPath id="695e1784eb"><path d="M 59.585938 85.765625 L 315.335938 85.765625 L 315.335938 310.015625 L 59.585938 310.015625 Z M 59.585938 85.765625 " clip-rule="nonzero"/></clipPath><clipPath id="97422ecf19"><path d="M 132 221.648438 L 239 221.648438 L 239 228.398438 L 132 228.398438 Z M 132 221.648438 " clip-rule="nonzero"/></clipPath></defs><g clip-path="url(#695e1784eb)"><path fill="#ffffff" d="M 59.664062 99.167969 L 59.664062 233.132812 C 59.664062 240.550781 65.644531 246.535156 73.058594 246.535156 L 110.730469 246.535156 L 89.875 310.015625 L 175.652344 246.535156 L 301.867188 246.535156 C 309.277344 246.535156 315.257812 240.550781 315.257812 233.132812 L 315.257812 99.167969 C 315.257812 91.75 309.277344 85.765625 301.867188 85.765625 L 73.058594 85.765625 C 65.644531 85.765625 59.664062 91.75 59.664062 99.167969 Z M 59.664062 99.167969 " fill-opacity="1" fill-rule="nonzero"/></g><g clip-path="url(#97422ecf19)"><path fill="#000000" d="M 235.320312 221.648438 L 136.40625 221.648438 C 134.457031 221.648438 132.875 223.160156 132.875 225.023438 C 132.875 226.886719 134.457031 228.398438 136.40625 228.398438 L 235.320312 228.398438 C 237.273438 228.398438 238.855469 226.886719 238.855469 225.023438 C 238.855469 223.160156 237.273438 221.648438 235.320312 221.648438 Z M 235.320312 221.648438 " fill-opacity="1" fill-rule="nonzero"/></g><g fill="#000000" fill-opacity="1"><g transform="translate(123.962896, 211.007046)"><g><path d="M 119.988281 -79.800781 L 119.988281 -84.046875 C 119.703125 -96.78125 112.769531 -115.035156 77.539062 -115.742188 C 44.144531 -116.449219 25.328125 -99.613281 23.628906 -77.539062 C 22.355469 -61.265625 30.84375 -52.636719 40.890625 -49.382812 L 71.3125 -40.042969 C 75.699219 -38.628906 79.945312 -36.082031 79.519531 -31.128906 C 79.09375 -24.335938 69.472656 -22.640625 63.671875 -22.78125 C 54.617188 -23.203125 48.109375 -27.875 48.109375 -34.664062 L 13.300781 -34.664062 L 13.300781 -30.84375 C 14.148438 -9.621094 33.675781 2.972656 58.296875 3.253906 C 86.878906 3.394531 113.195312 -9.621094 115.316406 -34.808594 C 116.730469 -51.503906 110.363281 -61.972656 93.527344 -67.066406 L 67.773438 -74.707031 C 63.953125 -75.839844 59.851562 -77.539062 59.851562 -81.5 C 59.851562 -88.574219 69.191406 -90.414062 76.125 -89.707031 C 84.046875 -89.140625 85.460938 -84.472656 85.886719 -79.800781 Z M 119.988281 -79.800781 "/></g></g></g></svg>