<svg xmlns="http://www.w3.org/2000/svg" xmlns:xlink="http://www.w3.org/1999/xlink" width="500" zoomAndPan="magnify" viewBox="0 0 375 374.999991" height="500" preserveAspectRatio="xMidYMid meet" version="1.0"><defs><g/><clipPath id="cd92fb454f"><path d="M 91 315.601562 L 292 315.601562 L 292 329.101562 L 91 329.101562 Z M 91 315.601562 " clip-rule="nonzero"/></clipPath></defs><g fill="#ffffff" fill-opacity="1"><g transform="translate(59.693686, 291.075848)"><g><path d="M 242.496094 -161.28125 L 242.496094 -169.863281 C 241.925781 -195.597656 227.914062 -232.488281 156.707031 -233.917969 C 89.21875 -235.347656 51.1875 -201.316406 47.753906 -156.707031 C 45.183594 -123.820312 62.339844 -106.378906 82.644531 -99.800781 L 144.125 -80.925781 C 152.988281 -78.066406 161.570312 -72.921875 160.710938 -62.910156 C 159.851562 -49.1875 140.40625 -45.753906 128.683594 -46.039062 C 110.382812 -46.898438 97.226562 -56.335938 97.226562 -70.0625 L 26.878906 -70.0625 L 26.878906 -62.339844 C 28.597656 -19.445312 68.058594 6.003906 117.816406 6.578125 C 175.582031 6.863281 228.769531 -19.445312 233.058594 -70.347656 C 235.917969 -104.089844 223.050781 -125.25 189.023438 -135.546875 L 136.976562 -150.988281 C 129.253906 -153.277344 120.960938 -156.707031 120.960938 -164.714844 C 120.960938 -179.011719 139.835938 -182.730469 153.847656 -181.300781 C 169.863281 -180.15625 172.722656 -170.71875 173.578125 -161.28125 Z M 242.496094 -161.28125 "/></g></g></g><g clip-path="url(#cd92fb454f)"><path fill="#ffde59" d="M 284.714844 315.601562 L 97.828125 315.601562 C 94.144531 315.601562 91.15625 318.625 91.15625 322.351562 C 91.15625 326.078125 94.144531 329.101562 97.828125 329.101562 L 284.714844 329.101562 C 288.398438 329.101562 291.386719 326.078125 291.386719 322.351562 C 291.386719 318.625 288.398438 315.601562 284.714844 315.601562 Z M 284.714844 315.601562 " fill-opacity="1" fill-rule="nonzero"/></g></svg>