<svg xmlns="http://www.w3.org/2000/svg" xmlns:xlink="http://www.w3.org/1999/xlink" width="500" zoomAndPan="magnify" viewBox="0 0 375 374.999991" height="500" preserveAspectRatio="xMidYMid meet" version="1.0"><defs><g/><clipPath id="708e96cf08"><path d="M 40.46875 71.90625 L 176 71.90625 L 176 303.71875 L 40.46875 303.71875 Z M 40.46875 71.90625 " clip-rule="nonzero"/></clipPath><clipPath id="a3847a0f9c"><path d="M 57.71875 71.90625 L 158.460938 71.90625 C 167.988281 71.90625 175.710938 79.628906 175.710938 89.15625 L 175.710938 285.84375 C 175.710938 295.371094 167.988281 303.09375 158.460938 303.09375 L 57.71875 303.09375 C 48.191406 303.09375 40.46875 295.371094 40.46875 285.84375 L 40.46875 89.15625 C 40.46875 79.628906 48.191406 71.90625 57.71875 71.90625 " clip-rule="nonzero"/></clipPath><clipPath id="decbdedae0"><path d="M 199.289062 71.90625 L 335 71.90625 L 335 303.71875 L 199.289062 303.71875 Z M 199.289062 71.90625 " clip-rule="nonzero"/></clipPath><clipPath id="eeb5b56476"><path d="M 216.539062 71.90625 L 317.28125 71.90625 C 326.808594 71.90625 334.53125 79.628906 334.53125 89.15625 L 334.53125 285.84375 C 334.53125 295.371094 326.808594 303.09375 317.28125 303.09375 L 216.539062 303.09375 C 207.011719 303.09375 199.289062 295.371094 199.289062 285.84375 L 199.289062 89.15625 C 199.289062 79.628906 207.011719 71.90625 216.539062 71.90625 " clip-rule="nonzero"/></clipPath></defs><g clip-path="url(#708e96cf08)"><g clip-path="url(#a3847a0f9c)"><path fill="#737373" d="M 40.46875 71.90625 L 176.707031 71.90625 L 176.707031 303.71875 L 40.46875 303.71875 Z M 40.46875 71.90625 " fill-opacity="1" fill-rule="nonzero"/></g></g><g clip-path="url(#decbdedae0)"><g clip-path="url(#eeb5b56476)"><path fill="#737373" d="M 199.289062 71.90625 L 335.53125 71.90625 L 335.53125 303.71875 L 199.289062 303.71875 Z M 199.289062 71.90625 " fill-opacity="1" fill-rule="nonzero"/></g></g><g fill="#000000" fill-opacity="1"><g transform="translate(52.537947, 246.828712)"><g><path d="M 55.546875 1.625 C 47.253906 1.625 39.8125 -0.367188 33.21875 -4.359375 C 26.625 -8.347656 21.367188 -14.679688 17.453125 -23.359375 C 13.546875 -32.046875 11.59375 -43.082031 11.59375 -56.46875 C 11.59375 -69.851562 13.546875 -80.882812 17.453125 -89.5625 C 21.367188 -98.238281 26.625 -104.570312 33.21875 -108.5625 C 39.8125 -112.5625 47.253906 -114.5625 55.546875 -114.5625 C 63.835938 -114.5625 71.273438 -112.5625 77.859375 -108.5625 C 84.453125 -104.570312 89.691406 -98.238281 93.578125 -89.5625 C 97.472656 -80.882812 99.421875 -69.851562 99.421875 -56.46875 C 99.421875 -43.082031 97.472656 -32.046875 93.578125 -23.359375 C 89.691406 -14.679688 84.453125 -8.347656 77.859375 -4.359375 C 71.273438 -0.367188 63.835938 1.625 55.546875 1.625 Z M 55.546875 -10.65625 C 65.378906 -10.65625 72.832031 -14.195312 77.90625 -21.28125 C 82.976562 -28.363281 85.515625 -40.09375 85.515625 -56.46875 C 85.515625 -72.84375 82.976562 -84.570312 77.90625 -91.65625 C 72.832031 -98.738281 65.378906 -102.28125 55.546875 -102.28125 C 49.054688 -102.28125 43.59375 -100.785156 39.15625 -97.796875 C 34.726562 -94.804688 31.34375 -89.9375 29 -83.1875 C 26.65625 -76.445312 25.484375 -67.539062 25.484375 -56.46875 C 25.484375 -45.394531 26.65625 -36.484375 29 -29.734375 C 31.34375 -22.992188 34.726562 -18.128906 39.15625 -15.140625 C 43.59375 -12.148438 49.054688 -10.65625 55.546875 -10.65625 Z M 55.546875 -10.65625 "/></g></g></g><g fill="#000000" fill-opacity="1"><g transform="translate(222.831494, 246.828712)"><g><path d="M 5.484375 -8.953125 C 5.484375 -15.191406 6.164062 -20.445312 7.53125 -24.71875 C 8.894531 -28.988281 11.117188 -32.890625 14.203125 -36.421875 C 17.296875 -39.953125 21.675781 -43.75 27.34375 -47.8125 L 42.40625 -58.703125 C 46.53125 -61.640625 49.738281 -64.1875 52.03125 -66.34375 C 54.320312 -68.507812 56.046875 -70.773438 57.203125 -73.140625 C 58.359375 -75.515625 58.9375 -78.222656 58.9375 -81.265625 C 58.9375 -85.847656 57.546875 -89.382812 54.765625 -91.875 C 51.984375 -94.375 47.8125 -95.625 42.25 -95.625 C 36.894531 -95.625 32.128906 -94.347656 27.953125 -91.796875 C 23.785156 -89.253906 20.335938 -85.769531 17.609375 -81.34375 L 16.140625 -80.953125 L 3.859375 -94.703125 C 7.878906 -100.679688 13.117188 -105.484375 19.578125 -109.109375 C 26.046875 -112.742188 33.890625 -114.5625 43.109375 -114.5625 C 51.546875 -114.5625 58.609375 -113.171875 64.296875 -110.390625 C 69.992188 -107.609375 74.21875 -103.804688 76.96875 -98.984375 C 79.726562 -94.171875 81.109375 -88.648438 81.109375 -82.421875 C 81.109375 -77.066406 79.988281 -72.175781 77.75 -67.75 C 75.507812 -63.320312 72.40625 -59.226562 68.4375 -55.46875 C 64.476562 -51.707031 59.40625 -47.660156 53.21875 -43.328125 L 39.859375 -33.984375 C 35.835938 -31.097656 33.03125 -28.535156 31.4375 -26.296875 C 29.84375 -24.054688 29.046875 -21.519531 29.046875 -18.6875 L 80.03125 -18.6875 L 80.03125 0 L 5.484375 0 Z M 5.484375 -8.953125 "/></g></g></g></svg>