<svg xmlns="http://www.w3.org/2000/svg" xmlns:xlink="http://www.w3.org/1999/xlink" width="500" zoomAndPan="magnify" viewBox="0 0 375 374.999991" height="500" preserveAspectRatio="xMidYMid meet" version="1.0"><defs><clipPath id="a4cc738b86"><path d="M 50.484375 114.195312 L 324.234375 114.195312 L 324.234375 260.445312 L 50.484375 260.445312 Z M 50.484375 114.195312 " clip-rule="nonzero"/></clipPath></defs><g clip-path="url(#a4cc738b86)"><path fill="#a6a6a6" d="M 324.054688 179.816406 C 323.824219 177.582031 323.488281 175.363281 323.054688 173.160156 C 322.617188 170.953125 322.082031 168.777344 321.445312 166.621094 C 320.808594 164.46875 320.074219 162.347656 319.242188 160.261719 C 318.410156 158.175781 317.484375 156.128906 316.460938 154.128906 C 315.441406 152.128906 314.332031 150.179688 313.128906 148.277344 C 311.929688 146.378906 310.644531 144.539062 309.273438 142.757812 C 307.902344 140.976562 306.453125 139.265625 304.921875 137.617188 C 303.394531 135.96875 301.792969 134.394531 300.121094 132.894531 C 298.445312 131.394531 296.707031 129.976562 294.902344 128.636719 C 293.09375 127.296875 291.234375 126.042969 289.3125 124.871094 C 287.390625 123.703125 285.421875 122.625 283.398438 121.640625 C 281.378906 120.652344 279.320312 119.757812 277.214844 118.960938 C 275.113281 118.164062 272.980469 117.464844 270.8125 116.863281 C 268.644531 116.261719 266.453125 115.761719 264.242188 115.363281 C 262.027344 114.964844 259.800781 114.667969 257.558594 114.472656 C 255.320312 114.277344 253.074219 114.183594 250.824219 114.195312 L 123.894531 114.195312 C 122.695312 114.195312 121.5 114.226562 120.300781 114.285156 C 119.105469 114.34375 117.910156 114.433594 116.71875 114.550781 C 115.523438 114.667969 114.335938 114.8125 113.152344 114.988281 C 111.964844 115.164062 110.785156 115.367188 109.609375 115.601562 C 108.433594 115.835938 107.265625 116.097656 106.101562 116.386719 C 104.941406 116.679688 103.785156 117 102.636719 117.347656 C 101.492188 117.691406 100.355469 118.070312 99.226562 118.472656 C 98.097656 118.875 96.980469 119.304688 95.871094 119.761719 C 94.765625 120.222656 93.667969 120.707031 92.585938 121.21875 C 91.503906 121.730469 90.433594 122.265625 89.375 122.832031 C 88.320312 123.394531 87.277344 123.984375 86.25 124.601562 C 85.21875 125.214844 84.207031 125.855469 83.210938 126.519531 C 82.214844 127.1875 81.234375 127.875 80.273438 128.585938 C 79.3125 129.300781 78.367188 130.035156 77.441406 130.796875 C 76.511719 131.554688 75.605469 132.335938 74.71875 133.140625 C 73.832031 133.945312 72.960938 134.769531 72.113281 135.613281 C 71.269531 136.460938 70.441406 137.328125 69.636719 138.214844 C 68.832031 139.101562 68.050781 140.007812 67.289062 140.933594 C 66.527344 141.855469 65.792969 142.800781 65.078125 143.761719 C 64.363281 144.722656 63.675781 145.699219 63.007812 146.695312 C 62.34375 147.691406 61.703125 148.703125 61.085938 149.726562 C 60.46875 150.753906 59.878906 151.796875 59.3125 152.851562 C 58.75 153.90625 58.210938 154.976562 57.699219 156.058594 C 57.183594 157.140625 56.699219 158.234375 56.242188 159.339844 C 55.78125 160.445312 55.351562 161.558594 54.949219 162.6875 C 54.542969 163.8125 54.167969 164.949219 53.820312 166.09375 C 53.472656 167.242188 53.152344 168.394531 52.863281 169.554688 C 52.570312 170.714844 52.308594 171.882812 52.074219 173.054688 C 51.839844 174.230469 51.636719 175.410156 51.460938 176.59375 C 51.285156 177.777344 51.136719 178.964844 51.019531 180.15625 C 50.902344 181.34375 50.8125 182.539062 50.753906 183.734375 C 50.695312 184.929688 50.667969 186.125 50.667969 187.320312 C 50.667969 188.519531 50.695312 189.714844 50.753906 190.910156 C 50.8125 192.105469 50.902344 193.296875 51.019531 194.488281 C 51.136719 195.679688 51.285156 196.867188 51.460938 198.050781 C 51.636719 199.234375 51.839844 200.414062 52.074219 201.589844 C 52.308594 202.761719 52.570312 203.929688 52.863281 205.089844 C 53.152344 206.25 53.472656 207.402344 53.820312 208.550781 C 54.167969 209.695312 54.542969 210.832031 54.949219 211.957031 C 55.351562 213.085938 55.78125 214.199219 56.242188 215.304688 C 56.699219 216.410156 57.183594 217.503906 57.699219 218.585938 C 58.210938 219.667969 58.75 220.738281 59.3125 221.792969 C 59.878906 222.847656 60.46875 223.890625 61.085938 224.914062 C 61.703125 225.941406 62.34375 226.953125 63.007812 227.949219 C 63.675781 228.941406 64.363281 229.921875 65.078125 230.882812 C 65.792969 231.84375 66.527344 232.789062 67.289062 233.710938 C 68.050781 234.636719 68.832031 235.542969 69.636719 236.429688 C 70.441406 237.316406 71.269531 238.183594 72.113281 239.03125 C 72.960938 239.875 73.832031 240.699219 74.71875 241.503906 C 75.605469 242.308594 76.511719 243.089844 77.441406 243.847656 C 78.367188 244.609375 79.3125 245.34375 80.273438 246.058594 C 81.234375 246.769531 82.214844 247.457031 83.210938 248.125 C 84.207031 248.789062 85.21875 249.429688 86.25 250.042969 C 87.277344 250.660156 88.320312 251.25 89.375 251.8125 C 90.433594 252.375 91.503906 252.914062 92.585938 253.425781 C 93.667969 253.9375 94.765625 254.421875 95.871094 254.878906 C 96.980469 255.339844 98.097656 255.769531 99.226562 256.171875 C 100.355469 256.574219 101.492188 256.949219 102.636719 257.296875 C 103.785156 257.644531 104.941406 257.964844 106.101562 258.253906 C 107.265625 258.546875 108.433594 258.808594 109.609375 259.042969 C 110.785156 259.277344 111.964844 259.480469 113.152344 259.65625 C 114.335938 259.832031 115.523438 259.976562 116.71875 260.09375 C 117.910156 260.210938 119.105469 260.300781 120.300781 260.359375 C 121.5 260.417969 122.695312 260.445312 123.894531 260.445312 L 250.824219 260.445312 C 253.074219 260.460938 255.320312 260.367188 257.558594 260.171875 C 259.800781 259.976562 262.027344 259.679688 264.242188 259.28125 C 266.453125 258.882812 268.644531 258.382812 270.8125 257.78125 C 272.980469 257.179688 275.113281 256.480469 277.214844 255.683594 C 279.320312 254.882812 281.378906 253.992188 283.398438 253.003906 C 285.421875 252.019531 287.390625 250.941406 289.3125 249.769531 C 291.234375 248.601562 293.09375 247.347656 294.902344 246.007812 C 296.707031 244.667969 298.445312 243.25 300.121094 241.75 C 301.792969 240.25 303.394531 238.675781 304.921875 237.027344 C 306.453125 235.378906 307.902344 233.667969 309.273438 231.886719 C 310.644531 230.105469 311.929688 228.265625 313.128906 226.367188 C 314.332031 224.464844 315.441406 222.515625 316.460938 220.515625 C 317.484375 218.515625 318.410156 216.46875 319.242188 214.382812 C 320.074219 212.296875 320.808594 210.175781 321.445312 208.023438 C 322.082031 205.867188 322.617188 203.691406 323.054688 201.484375 C 323.488281 199.28125 323.824219 197.0625 324.054688 194.828125 C 324.578125 189.824219 324.578125 184.820312 324.054688 179.816406 Z M 253.65625 238.316406 C 251.972656 238.328125 250.292969 238.257812 248.617188 238.105469 C 246.941406 237.953125 245.277344 237.71875 243.625 237.402344 C 241.972656 237.085938 240.339844 236.691406 238.726562 236.214844 C 237.113281 235.738281 235.523438 235.183594 233.964844 234.550781 C 232.40625 233.917969 230.882812 233.207031 229.394531 232.425781 C 227.90625 231.644531 226.457031 230.789062 225.050781 229.863281 C 223.648438 228.941406 222.292969 227.949219 220.984375 226.890625 C 219.675781 225.832031 218.425781 224.710938 217.226562 223.53125 C 216.03125 222.347656 214.894531 221.109375 213.820312 219.816406 C 212.746094 218.523438 211.738281 217.183594 210.796875 215.789062 C 209.851562 214.398438 208.980469 212.960938 208.179688 211.484375 C 207.378906 210.003906 206.652344 208.492188 206.003906 206.941406 C 205.351562 205.394531 204.777344 203.816406 204.28125 202.210938 C 203.785156 200.601562 203.371094 198.976562 203.035156 197.328125 C 202.699219 195.683594 202.445312 194.023438 202.273438 192.351562 C 202.101562 190.679688 202.011719 189.003906 202.007812 187.324219 C 202 185.644531 202.078125 183.964844 202.234375 182.292969 C 202.394531 180.621094 202.636719 178.960938 202.957031 177.308594 C 203.28125 175.660156 203.683594 174.03125 204.167969 172.421875 C 204.652344 170.8125 205.210938 169.230469 205.851562 167.675781 C 206.492188 166.121094 207.207031 164.601562 207.996094 163.117188 C 208.785156 161.632812 209.644531 160.191406 210.578125 158.792969 C 211.507812 157.394531 212.507812 156.042969 213.570312 154.742188 C 214.636719 153.441406 215.761719 152.195312 216.949219 151.003906 C 218.136719 149.8125 219.382812 148.683594 220.679688 147.613281 C 221.980469 146.546875 223.328125 145.542969 224.726562 144.609375 C 226.125 143.671875 227.566406 142.808594 229.046875 142.015625 C 230.53125 141.21875 232.050781 140.5 233.605469 139.855469 C 235.160156 139.210938 236.742188 138.644531 238.351562 138.15625 C 239.960938 137.667969 241.589844 137.257812 243.242188 136.929688 C 244.890625 136.601562 246.554688 136.355469 248.230469 136.1875 C 249.902344 136.023438 251.582031 135.941406 253.265625 135.941406 C 254.949219 135.941406 256.628906 136.023438 258.300781 136.1875 C 259.976562 136.355469 261.640625 136.601562 263.289062 136.929688 C 264.941406 137.257812 266.570312 137.667969 268.179688 138.15625 C 269.789062 138.644531 271.371094 139.210938 272.925781 139.855469 C 274.480469 140.5 276 141.21875 277.484375 142.011719 C 278.964844 142.808594 280.40625 143.671875 281.804688 144.609375 C 283.203125 145.542969 284.550781 146.546875 285.851562 147.613281 C 287.148438 148.683594 288.394531 149.8125 289.582031 151 C 290.769531 152.191406 291.894531 153.4375 292.960938 154.738281 C 294.023438 156.039062 295.023438 157.390625 295.953125 158.789062 C 296.886719 160.191406 297.746094 161.632812 298.535156 163.117188 C 299.324219 164.601562 300.039062 166.121094 300.679688 167.675781 C 301.320312 169.226562 301.882812 170.808594 302.363281 172.421875 C 302.847656 174.03125 303.25 175.660156 303.574219 177.308594 C 303.898438 178.957031 304.136719 180.617188 304.296875 182.292969 C 304.457031 183.964844 304.53125 185.640625 304.527344 187.320312 C 304.523438 188.996094 304.4375 190.667969 304.269531 192.335938 C 304.101562 194.003906 303.855469 195.660156 303.523438 197.300781 C 303.195312 198.945312 302.785156 200.566406 302.296875 202.171875 C 301.808594 203.773438 301.242188 205.347656 300.597656 206.894531 C 299.953125 208.441406 299.238281 209.957031 298.445312 211.433594 C 297.652344 212.910156 296.789062 214.34375 295.859375 215.738281 C 294.925781 217.128906 293.925781 218.472656 292.859375 219.769531 C 291.796875 221.0625 290.671875 222.304688 289.484375 223.488281 C 288.296875 224.671875 287.054688 225.796875 285.757812 226.859375 C 284.460938 227.925781 283.117188 228.921875 281.722656 229.851562 C 280.328125 230.785156 278.890625 231.644531 277.410156 232.4375 C 275.929688 233.226562 274.417969 233.945312 272.867188 234.585938 C 271.316406 235.230469 269.742188 235.796875 268.136719 236.285156 C 266.53125 236.773438 264.90625 237.179688 263.261719 237.511719 C 261.613281 237.839844 259.957031 238.085938 258.289062 238.253906 C 256.617188 238.421875 254.945312 238.507812 253.265625 238.507812 Z M 253.65625 238.316406 " fill-opacity="1" fill-rule="nonzero"/></g></svg>