<svg width="325" height="191" viewBox="0 0 325 191" fill="none" xmlns="http://www.w3.org/2000/svg">
<rect x="0.795831" y="0.724695" width="323.76" height="189.548" rx="3.65" fill="#121212" stroke="#0379FF" stroke-width="0.7"/>
<g clip-path="url(#clip0_3_583)">
<path d="M202.126 166.187V166.807H190.399V166.187L191.702 164.948V161.231C191.702 159.31 193.025 157.619 194.96 157.074V156.894C194.96 156.565 195.097 156.25 195.341 156.018C195.586 155.785 195.917 155.655 196.262 155.655C196.608 155.655 196.939 155.785 197.184 156.018C197.428 156.25 197.565 156.565 197.565 156.894V157.074C199.5 157.619 200.823 159.31 200.823 161.231V164.948L202.126 166.187ZM197.565 167.426C197.565 167.755 197.428 168.07 197.184 168.303C196.939 168.535 196.608 168.666 196.262 168.666C195.917 168.666 195.586 168.535 195.341 168.303C195.097 168.07 194.96 167.755 194.96 167.426" fill="#0379FF"/>
</g>
<path d="M14.9385 46.5756H16.2335V39.8534H16.335L19.0201 46.5756H20.0738L22.7652 39.8534H22.8604V46.5756H24.1553V37.4159H22.5176L19.5977 44.722H19.4962L16.5762 37.4159H14.9385V46.5756ZM28.1861 46.6898C29.1002 46.6898 29.8238 46.2963 30.23 45.598H30.338V46.5756H31.7027V41.8593C31.7027 40.412 30.7252 39.5487 28.9922 39.5487C27.4244 39.5487 26.3389 40.3041 26.1739 41.434L26.1675 41.4784H27.4942L27.5005 41.453C27.6656 40.9642 28.1671 40.6849 28.9288 40.6849C29.8619 40.6849 30.338 41.1039 30.338 41.8593V42.4686L28.4717 42.5765C26.8277 42.6781 25.9009 43.3954 25.9009 44.6268V44.6395C25.9009 45.89 26.8721 46.6898 28.1861 46.6898ZM27.272 44.5824V44.5697C27.272 43.9476 27.7037 43.6049 28.6558 43.5477L30.338 43.4398V44.0302C30.338 44.9188 29.5826 45.5917 28.5543 45.5917C27.8116 45.5917 27.272 45.2172 27.272 44.5824ZM36.1588 46.6898C37.1236 46.6898 37.879 46.2455 38.2789 45.4901H38.3868V46.5756H39.7579V36.9779H38.3868V40.7738H38.2789C37.9107 40.0311 37.1046 39.5614 36.1588 39.5614C34.4068 39.5614 33.3023 40.9388 33.3023 43.1224V43.1351C33.3023 45.2997 34.4258 46.6898 36.1588 46.6898ZM36.5523 45.5155C35.397 45.5155 34.7051 44.6141 34.7051 43.1351V43.1224C34.7051 41.6434 35.397 40.7421 36.5523 40.7421C37.6949 40.7421 38.4058 41.6498 38.4058 43.1224V43.1351C38.4058 44.6078 37.7012 45.5155 36.5523 45.5155ZM41.8082 46.5756H43.1856V42.4559C43.1856 41.4594 43.9029 40.8119 44.9566 40.8119C45.2169 40.8119 45.4517 40.8436 45.6993 40.8944V39.6249C45.5596 39.5931 45.3184 39.5614 45.0963 39.5614C44.1758 39.5614 43.5347 39.993 43.2872 40.723H43.1856V39.682H41.8082V46.5756ZM47.7305 38.4506C48.2003 38.4506 48.5938 38.0634 48.5938 37.5936C48.5938 37.1176 48.2003 36.7303 47.7305 36.7303C47.2545 36.7303 46.8672 37.1176 46.8672 37.5936C46.8672 38.0634 47.2545 38.4506 47.7305 38.4506ZM47.0386 46.5756H48.4097V39.682H47.0386V46.5756ZM52.9293 46.6898C53.8941 46.6898 54.6495 46.2455 55.0494 45.4901H55.1573V46.5756H56.5284V36.9779H55.1573V40.7738H55.0494C54.6812 40.0311 53.8751 39.5614 52.9293 39.5614C51.1773 39.5614 50.0728 40.9388 50.0728 43.1224V43.1351C50.0728 45.2997 51.1964 46.6898 52.9293 46.6898ZM53.3228 45.5155C52.1675 45.5155 51.4756 44.6141 51.4756 43.1351V43.1224C51.4756 41.6434 52.1675 40.7421 53.3228 40.7421C54.4654 40.7421 55.1763 41.6498 55.1763 43.1224V43.1351C55.1763 44.6078 54.4717 45.5155 53.3228 45.5155Z" fill="white"/>
<path d="M226.185 44.5756H227.24V36.1205H226.191L223.941 37.7377V38.851L226.091 37.2924H226.185V44.5756ZM232.449 35.9213C230.743 35.9213 229.49 37.1459 229.49 38.8334V38.8451C229.49 40.4681 230.673 41.6752 232.261 41.6752C233.404 41.6752 234.201 41.0599 234.511 40.3685H234.622C234.622 40.433 234.622 40.5033 234.617 40.5677C234.552 42.3314 233.925 43.8314 232.39 43.8314C231.535 43.8314 230.943 43.392 230.685 42.683L230.661 42.6185H229.601L229.618 42.6947C229.906 43.9427 230.96 44.7748 232.378 44.7748C234.429 44.7748 235.63 43.0873 235.63 40.2045V40.1927C235.63 37.0111 233.995 35.9213 232.449 35.9213ZM232.443 40.7552C231.347 40.7552 230.55 39.9467 230.55 38.8217V38.8099C230.55 37.7142 231.4 36.8529 232.46 36.8529C233.533 36.8529 234.37 37.7318 234.37 38.8451V38.851C234.37 39.9525 233.538 40.7552 232.443 40.7552ZM237.242 41.6459H241.179V40.6967H237.242V41.6459ZM246.845 44.5756H247.876V42.8236H249.077V41.8802H247.876V36.1205H246.347C245.163 37.8842 243.868 39.9467 242.726 41.8627V42.8236H246.845V44.5756ZM243.804 41.8861V41.8158C244.724 40.2631 245.831 38.517 246.781 37.099H246.851V41.8861H243.804ZM250.624 41.6459H254.562V40.6967H250.624V41.6459ZM260.228 44.5756H261.259V42.8236H262.46V41.8802H261.259V36.1205H259.73C258.546 37.8842 257.251 39.9467 256.109 41.8627V42.8236H260.228V44.5756ZM257.187 41.8861V41.8158C258.107 40.2631 259.214 38.517 260.163 37.099H260.234V41.8861H257.187ZM263.427 46.726H264.183L265.103 43.392H263.937L263.427 46.726ZM270.617 44.5756H276.089V43.6263H272.081V43.5326L274.003 41.5463C275.533 39.9701 275.949 39.267 275.949 38.3002V38.2885C275.949 36.9232 274.818 35.9213 273.341 35.9213C271.724 35.9213 270.564 36.9994 270.558 38.4994L270.57 38.5052L271.577 38.5111L271.583 38.4994C271.583 37.5033 272.257 36.8412 273.271 36.8412C274.267 36.8412 274.87 37.5092 274.87 38.3998V38.4115C274.87 39.1498 274.554 39.5892 273.476 40.7552L270.617 43.849V44.5756ZM277.865 44.5756H278.884V40.8373C278.884 39.7299 279.523 39.0502 280.531 39.0502C281.538 39.0502 282.007 39.5951 282.007 40.7318V44.5756H283.027V40.4857C283.027 38.9857 282.236 38.1478 280.818 38.1478C279.886 38.1478 279.294 38.5404 278.978 39.2084H278.884V38.2592H277.865V44.5756ZM287.204 44.6869C288.083 44.6869 288.786 44.2709 289.173 43.5677H289.267V44.5756H290.286V35.7513H289.267V39.2552H289.173C288.827 38.5814 288.072 38.1478 287.204 38.1478C285.599 38.1478 284.556 39.431 284.556 41.4115V41.4232C284.556 43.392 285.605 44.6869 287.204 44.6869ZM287.439 43.7845C286.285 43.7845 285.599 42.8939 285.599 41.4232V41.4115C285.599 39.9408 286.285 39.0502 287.439 39.0502C288.587 39.0502 289.29 39.9525 289.29 41.4115V41.4232C289.29 42.8822 288.587 43.7845 287.439 43.7845ZM295.747 44.5756H300.986V43.6263H296.802V40.7201H300.769V39.7826H296.802V37.0697H300.986V36.1205H295.747V44.5756ZM302.896 44.5756H303.951V41.558H306.083C307.671 41.558 308.796 40.4388 308.796 38.8334V38.8217C308.796 37.2162 307.671 36.1205 306.083 36.1205H302.896V44.5756ZM305.814 37.058C307.021 37.058 307.718 37.7201 307.718 38.8334V38.8451C307.718 39.9584 307.021 40.6205 305.814 40.6205H303.951V37.058H305.814ZM310.525 44.5756H315.658V43.6263H311.579V36.1205H310.525V44.5756Z" fill="#7E7979"/>
<path d="M226.185 67.929H227.24V59.4739H226.191L223.941 61.0911V62.2043L226.091 60.6458H226.185V67.929ZM229.683 67.929H235.156V66.9797H231.148V66.886L233.07 64.8997C234.599 63.3235 235.015 62.6204 235.015 61.6536V61.6418C235.015 60.2766 233.884 59.2747 232.408 59.2747C230.79 59.2747 229.63 60.3528 229.624 61.8528L229.636 61.8586L230.644 61.8645L230.65 61.8528C230.65 60.8567 231.324 60.1946 232.337 60.1946C233.333 60.1946 233.937 60.8625 233.937 61.7532V61.7649C233.937 62.5032 233.62 62.9426 232.542 64.1086L229.683 67.2024V67.929ZM236.843 64.9993H240.781V64.05H236.843V64.9993ZM242.585 67.929H248.058V66.9797H244.05V66.886L245.972 64.8997C247.501 63.3235 247.917 62.6204 247.917 61.6536V61.6418C247.917 60.2766 246.786 59.2747 245.31 59.2747C243.693 59.2747 242.533 60.3528 242.527 61.8528L242.538 61.8586L243.546 61.8645L243.552 61.8528C243.552 60.8567 244.226 60.1946 245.24 60.1946C246.236 60.1946 246.839 60.8625 246.839 61.7532V61.7649C246.839 62.5032 246.523 62.9426 245.445 64.1086L242.585 67.2024V67.929ZM249.745 64.9993H253.683V64.05H249.745V64.9993ZM259.349 67.929H260.38V66.177H261.581V65.2336H260.38V59.4739H258.851C257.667 61.2375 256.372 63.3 255.23 65.2161V66.177H259.349V67.929ZM256.308 65.2395V65.1692C257.228 63.6165 258.335 61.8704 259.285 60.4524H259.355V65.2395H256.308ZM262.548 70.0793H263.304L264.224 66.7454H263.058L262.548 70.0793ZM272.726 68.1282C274.431 68.1282 275.685 66.9036 275.685 65.2161V65.2043C275.685 63.5813 274.501 62.3743 272.913 62.3743C271.771 62.3743 270.974 62.9895 270.663 63.6809H270.552C270.552 63.6165 270.552 63.5461 270.558 63.4817C270.622 61.718 271.249 60.218 272.785 60.218C273.64 60.218 274.232 60.6575 274.49 61.3665L274.513 61.4309H275.574L275.556 61.3547C275.269 60.1067 274.214 59.2747 272.796 59.2747C270.745 59.2747 269.544 60.9622 269.544 63.845V63.8567C269.544 67.0383 271.179 68.1282 272.726 68.1282ZM270.804 65.2043V65.1985C270.804 64.0969 271.636 63.2942 272.732 63.2942C273.827 63.2942 274.624 64.1028 274.624 65.2278V65.2395C274.624 66.3352 273.775 67.1965 272.714 67.1965C271.642 67.1965 270.804 66.3176 270.804 65.2043ZM279.628 67.9758C279.827 67.9758 280.021 67.9524 280.22 67.9172V67.05C280.033 67.0676 279.933 67.0735 279.751 67.0735C279.095 67.0735 278.837 66.7747 278.837 66.0305V62.4563H280.22V61.6125H278.837V59.9778H277.783V61.6125H276.786V62.4563H277.783V66.2883C277.783 67.4954 278.327 67.9758 279.628 67.9758ZM281.802 67.929H282.822V64.1907C282.822 63.0833 283.46 62.4036 284.468 62.4036C285.476 62.4036 285.945 62.9485 285.945 64.0852V67.929H286.964V63.8391C286.964 62.3391 286.173 61.5012 284.755 61.5012C283.824 61.5012 283.232 61.8938 282.915 62.5618H282.822V59.1047H281.802V67.929ZM292.314 67.929H297.552V66.9797H293.368V64.0735H297.335V63.136H293.368V60.4231H297.552V59.4739H292.314V67.929ZM299.462 67.929H300.517V64.9114H302.65C304.238 64.9114 305.363 63.7922 305.363 62.1868V62.175C305.363 60.5696 304.238 59.4739 302.65 59.4739H299.462V67.929ZM302.38 60.4114C303.587 60.4114 304.285 61.0735 304.285 62.1868V62.1985C304.285 63.3118 303.587 63.9739 302.38 63.9739H300.517V60.4114H302.38ZM307.091 67.929H312.224V66.9797H308.146V59.4739H307.091V67.929Z" fill="#7E7979"/>
<path d="M16.1334 22.2222H17.2408L18.0905 19.8022H21.4537L22.3033 22.2222H23.4108L20.2936 13.7671H19.2506L16.1334 22.2222ZM19.7252 15.1323H19.819L21.1432 18.9058H18.401L19.7252 15.1323ZM24.7643 24.3315H25.7838V21.2261H25.8776C26.2233 21.8999 26.9791 22.3335 27.8463 22.3335C29.4518 22.3335 30.4948 21.0503 30.4948 19.0698V19.0581C30.4948 17.0894 29.4459 15.7944 27.8463 15.7944C26.9674 15.7944 26.2643 16.2104 25.8776 16.9136H25.7838V15.9058H24.7643V24.3315ZM27.6119 21.4312C26.4635 21.4312 25.7604 20.5288 25.7604 19.0698V19.0581C25.7604 17.5991 26.4635 16.6968 27.6119 16.6968C28.7662 16.6968 29.4518 17.5874 29.4518 19.0581V19.0698C29.4518 20.5405 28.7662 21.4312 27.6119 21.4312ZM32.0885 22.2222H33.108V18.3081C33.108 17.3823 33.7994 16.7671 34.7721 16.7671C34.9948 16.7671 35.1881 16.7905 35.399 16.8257V15.8354C35.2994 15.8179 35.0826 15.7944 34.8893 15.7944C34.0338 15.7944 33.442 16.1812 33.2018 16.8433H33.108V15.9058H32.0885V22.2222ZM37.1979 14.687C37.5846 14.687 37.901 14.3706 37.901 13.9839C37.901 13.5972 37.5846 13.2808 37.1979 13.2808C36.8112 13.2808 36.4948 13.5972 36.4948 13.9839C36.4948 14.3706 36.8112 14.687 37.1979 14.687ZM36.6823 22.2222H37.7018V15.9058H36.6823V22.2222ZM39.6823 22.2222H40.7018V13.3979H39.6823V22.2222ZM48.0963 22.2222H49.151V13.7671H48.1022L45.8522 15.3843V16.4976L48.0026 14.939H48.0963V22.2222ZM67.1627 22.2222H68.2174V13.7671H67.1686L64.9186 15.3843V16.4976L67.069 14.939H67.1627V22.2222ZM73.4908 22.4214C75.36 22.4214 76.485 20.7163 76.485 17.9976V17.9858C76.485 15.2671 75.36 13.5679 73.4908 13.5679C71.6217 13.5679 70.5084 15.2671 70.5084 17.9858V17.9976C70.5084 20.7163 71.6217 22.4214 73.4908 22.4214ZM73.4908 21.5015C72.278 21.5015 71.569 20.1538 71.569 17.9976V17.9858C71.569 15.8296 72.278 14.4937 73.4908 14.4937C74.7037 14.4937 75.4244 15.8296 75.4244 17.9858V17.9976C75.4244 20.1538 74.7037 21.5015 73.4908 21.5015ZM79.0573 16.4858C79.4791 16.4858 79.819 16.1401 79.819 15.7241C79.819 15.3022 79.4791 14.9624 79.0573 14.9624C78.6412 14.9624 78.2955 15.3022 78.2955 15.7241C78.2955 16.1401 78.6412 16.4858 79.0573 16.4858ZM79.0573 21.021C79.4791 21.021 79.819 20.6753 79.819 20.2593C79.819 19.8374 79.4791 19.4976 79.0573 19.4976C78.6412 19.4976 78.2955 19.8374 78.2955 20.2593C78.2955 20.6753 78.6412 21.021 79.0573 21.021ZM84.6119 22.4214C86.4811 22.4214 87.6061 20.7163 87.6061 17.9976V17.9858C87.6061 15.2671 86.4811 13.5679 84.6119 13.5679C82.7428 13.5679 81.6295 15.2671 81.6295 17.9858V17.9976C81.6295 20.7163 82.7428 22.4214 84.6119 22.4214ZM84.6119 21.5015C83.399 21.5015 82.6901 20.1538 82.6901 17.9976V17.9858C82.6901 15.8296 83.399 14.4937 84.6119 14.4937C85.8248 14.4937 86.5455 15.8296 86.5455 17.9858V17.9976C86.5455 20.1538 85.8248 21.5015 84.6119 21.5015ZM92.1705 22.4214C94.0397 22.4214 95.1647 20.7163 95.1647 17.9976V17.9858C95.1647 15.2671 94.0397 13.5679 92.1705 13.5679C90.3014 13.5679 89.1881 15.2671 89.1881 17.9858V17.9976C89.1881 20.7163 90.3014 22.4214 92.1705 22.4214ZM92.1705 21.5015C90.9576 21.5015 90.2487 20.1538 90.2487 17.9976V17.9858C90.2487 15.8296 90.9576 14.4937 92.1705 14.4937C93.3834 14.4937 94.1041 15.8296 94.1041 17.9858V17.9976C94.1041 20.1538 93.3834 21.5015 92.1705 21.5015ZM99.735 22.2222H100.842L101.692 19.8022H105.055L105.905 22.2222H107.012L103.895 13.7671H102.852L99.735 22.2222ZM103.327 15.1323H103.421L104.745 18.9058H102.003L103.327 15.1323ZM108.495 22.2222H109.479V15.7651H109.544L112.215 22.2222H113.106L115.778 15.7651H115.842V22.2222H116.827V13.7671H115.602L112.708 20.8218H112.614L109.719 13.7671H108.495V22.2222Z" fill="white"/>
<path d="M14.9385 69.929H16.3223V63.2766H16.4239L21.1275 69.929H22.4097V60.7693H21.0259V67.4343H20.9307L16.2208 60.7693H14.9385V69.929ZM27.4752 70.0623C29.4937 70.0623 30.7315 68.7102 30.7315 66.4885V66.4758C30.7315 64.2542 29.4874 62.9021 27.4752 62.9021C25.4566 62.9021 24.2125 64.2605 24.2125 66.4758V66.4885C24.2125 68.7102 25.4503 70.0623 27.4752 70.0623ZM27.4752 68.9133C26.2881 68.9133 25.6216 68.0183 25.6216 66.4885V66.4758C25.6216 64.946 26.2881 64.051 27.4752 64.051C28.6558 64.051 29.3287 64.946 29.3287 66.4758V66.4885C29.3287 68.012 28.6558 68.9133 27.4752 68.9133ZM34.9781 69.9734C35.2447 69.9734 35.4986 69.9417 35.7208 69.9036V68.8054C35.5303 68.8245 35.4097 68.8308 35.2003 68.8308C34.5211 68.8308 34.2418 68.5261 34.2418 67.7834V64.1208H35.7208V63.0354H34.2418V61.2961H32.8389V63.0354H31.7598V64.1208H32.8389V68.1135C32.8389 69.4402 33.461 69.9734 34.9781 69.9734ZM39.9547 69.9734C40.2213 69.9734 40.4752 69.9417 40.6973 69.9036V68.8054C40.5069 68.8245 40.3863 68.8308 40.1768 68.8308C39.4976 68.8308 39.2183 68.5261 39.2183 67.7834V64.1208H40.6973V63.0354H39.2183V61.2961H37.8155V63.0354H36.7364V64.1208H37.8155V68.1135C37.8155 69.4402 38.4376 69.9734 39.9547 69.9734ZM43.0206 61.804C43.4903 61.804 43.8839 61.4167 43.8839 60.947C43.8839 60.4709 43.4903 60.0837 43.0206 60.0837C42.5445 60.0837 42.1573 60.4709 42.1573 60.947C42.1573 61.4167 42.5445 61.804 43.0206 61.804ZM42.3287 69.929H43.6998V63.0354H42.3287V69.929ZM45.7056 69.929H47.0831V65.8855C47.0831 64.7747 47.7115 64.0828 48.7208 64.0828C49.73 64.0828 50.2061 64.6477 50.2061 65.7903V69.929H51.5772V65.4666C51.5772 63.8225 50.7266 62.9021 49.1841 62.9021C48.1812 62.9021 47.5211 63.3464 47.1846 64.0828H47.0831V63.0354H45.7056V69.929ZM56.4141 72.3601C58.3692 72.3601 59.607 71.3572 59.607 69.7893V63.0354H58.2359V64.1653H58.1534C57.7535 63.3909 57.0045 62.9148 56.0396 62.9148C54.2496 62.9148 53.1514 64.3049 53.1514 66.2727V66.2854C53.1514 68.2278 54.2432 69.5925 56.0142 69.5925C56.96 69.5925 57.7217 69.1736 58.1407 68.4246H58.2422V69.783C58.2422 70.7224 57.5694 71.2556 56.4332 71.2556C55.5001 71.2556 54.9415 70.9192 54.8272 70.4431L54.8209 70.4304H53.4307L53.418 70.4431C53.5831 71.592 54.6622 72.3601 56.4141 72.3601ZM56.3951 68.4563C55.2208 68.4563 54.5606 67.5613 54.5606 66.2791V66.2664C54.5606 64.9841 55.2208 64.0828 56.3951 64.0828C57.5567 64.0828 58.2676 64.9841 58.2676 66.2664V66.2791C58.2676 67.5676 57.563 68.4563 56.3951 68.4563ZM61.6509 69.929H63.0284V65.8855C63.0284 64.7747 63.6568 64.0828 64.6661 64.0828C65.6754 64.0828 66.1514 64.6477 66.1514 65.7903V69.929H67.5225V65.4666C67.5225 63.8225 66.6719 62.9021 65.1295 62.9021C64.1265 62.9021 63.4664 63.3464 63.1299 64.0828H63.0284V60.3313H61.6509V69.929ZM71.3375 70.0432C72.2515 70.0432 72.9752 69.6497 73.3814 68.9514H73.4893V69.929H74.8541V65.2126C74.8541 63.7654 73.8765 62.9021 72.1436 62.9021C70.5757 62.9021 69.4903 63.6575 69.3253 64.7874L69.3189 64.8318H70.6456L70.6519 64.8064C70.817 64.3176 71.3184 64.0383 72.0801 64.0383C73.0132 64.0383 73.4893 64.4573 73.4893 65.2126V65.822L71.6231 65.9299C69.9791 66.0315 69.0523 66.7488 69.0523 67.9802V67.9929C69.0523 69.2434 70.0235 70.0432 71.3375 70.0432ZM70.4234 67.9358V67.9231C70.4234 67.301 70.855 66.9583 71.8072 66.9011L73.4893 66.7932V67.3835C73.4893 68.2722 72.7339 68.9451 71.7056 68.9451C70.963 68.9451 70.4234 68.5706 70.4234 67.9358ZM76.7964 69.929H78.1739V65.6951C78.1739 64.7937 78.7896 64.0828 79.6212 64.0828C80.4337 64.0828 80.9478 64.5779 80.9478 65.365V69.929H82.3189V65.5681C82.3189 64.7366 82.8965 64.0828 83.7725 64.0828C84.6739 64.0828 85.1055 64.5525 85.1055 65.5046V69.929H86.4766V65.1746C86.4766 63.74 85.6641 62.9021 84.274 62.9021C83.3155 62.9021 82.522 63.3909 82.1729 64.1335H82.065C81.7603 63.3909 81.0938 62.9021 80.1544 62.9021C79.253 62.9021 78.5801 63.3401 78.2755 64.0955H78.1739V63.0354H76.7964V69.929Z" fill="white"/>
<rect x="12.4305" y="85.0922" width="130.394" height="49.0461" rx="4" fill="#3F3C3C"/>
<path d="M22.7235 104.583H23.9188V98.3779H24.0125L26.4911 104.583H27.4637L29.9481 98.3779H30.036V104.583H31.2313V96.1279H29.7196L27.0243 102.872H26.9305L24.2352 96.1279H22.7235V104.583ZM34.952 104.688C35.7957 104.688 36.4637 104.325 36.8387 103.681H36.9383V104.583H38.1981V100.229C38.1981 98.8936 37.2957 98.0967 35.6961 98.0967C34.2489 98.0967 33.2469 98.7939 33.0946 99.8369L33.0887 99.8779H34.3133L34.3192 99.8545C34.4715 99.4033 34.9344 99.1455 35.6375 99.1455C36.4989 99.1455 36.9383 99.5322 36.9383 100.229V100.792L35.2157 100.892C33.6981 100.985 32.8426 101.647 32.8426 102.784V102.796C32.8426 103.95 33.7391 104.688 34.952 104.688ZM34.1082 102.743V102.731C34.1082 102.157 34.5067 101.841 35.3856 101.788L36.9383 101.688V102.233C36.9383 103.054 36.2411 103.675 35.2918 103.675C34.6063 103.675 34.1082 103.329 34.1082 102.743ZM39.9911 104.583H41.2625V100.851C41.2625 99.8252 41.8426 99.1865 42.7743 99.1865C43.7059 99.1865 44.1454 99.708 44.1454 100.763V104.583H45.411V100.464C45.411 98.9463 44.6258 98.0967 43.202 98.0967C42.2762 98.0967 41.6668 98.5068 41.3563 99.1865H41.2625V98.2197H39.9911V104.583ZM49.8641 104.706C51.4403 104.706 52.3485 103.856 52.577 102.62L52.5887 102.567H51.37L51.3582 102.597C51.1532 103.282 50.661 103.646 49.8641 103.646C48.8153 103.646 48.1649 102.79 48.1649 101.384V101.372C48.1649 100.001 48.8036 99.1572 49.8641 99.1572C50.7079 99.1572 51.2235 99.626 51.3641 100.253L51.37 100.271L52.5887 100.265V100.235C52.4129 98.999 51.4579 98.0967 49.8582 98.0967C48.0008 98.0967 46.87 99.3564 46.87 101.372V101.384C46.87 103.44 48.0067 104.706 49.8641 104.706ZM54.0887 104.583H55.3602V100.851C55.3602 99.8252 55.9403 99.1865 56.8719 99.1865C57.8036 99.1865 58.243 99.708 58.243 100.763V104.583H59.5086V100.464C59.5086 98.9463 58.7235 98.0967 57.2997 98.0967C56.3739 98.0967 55.7645 98.5068 55.4539 99.1865H55.3602V95.7236H54.0887V104.583ZM63.9559 104.706C65.5848 104.706 66.4637 103.769 66.6747 102.931L66.6864 102.878L65.4618 102.884L65.4383 102.931C65.286 103.259 64.7997 103.663 63.9852 103.663C62.9364 103.663 62.2684 102.954 62.245 101.735H66.7567V101.29C66.7567 99.3799 65.6668 98.0967 63.8914 98.0967C62.1161 98.0967 60.9676 99.4268 60.9676 101.413V101.419C60.9676 103.435 62.0926 104.706 63.9559 104.706ZM63.8973 99.1396C64.7586 99.1396 65.3973 99.6904 65.4969 100.827H62.2625C62.3739 99.7314 63.0301 99.1396 63.8973 99.1396ZM70.5829 104.706C72.0946 104.706 73.2196 103.903 73.2196 102.726V102.714C73.2196 101.794 72.6336 101.272 71.409 100.985L70.4012 100.757C69.6864 100.587 69.3934 100.341 69.3934 99.9424V99.9307C69.3934 99.4209 69.8973 99.0752 70.5946 99.0752C71.3094 99.0752 71.7606 99.4092 71.8836 99.8545V99.8662H73.0965V99.8604C72.9852 98.8232 72.0536 98.0967 70.6004 98.0967C69.159 98.0967 68.1278 98.8936 68.1278 100.001V100.007C68.1278 100.938 68.6844 101.483 69.8856 101.759L70.8993 101.993C71.6375 102.163 71.9364 102.433 71.9364 102.831V102.843C71.9364 103.364 71.3914 103.722 70.6063 103.722C69.8504 103.722 69.3875 103.399 69.2293 102.919L69.2235 102.913H67.952V102.919C68.075 103.985 69.0477 104.706 70.5829 104.706ZM77.0926 104.624C77.3387 104.624 77.5731 104.595 77.7782 104.56V103.546C77.6024 103.563 77.4911 103.569 77.2977 103.569C76.6707 103.569 76.4129 103.288 76.4129 102.603V99.2217H77.7782V98.2197H76.4129V96.6143H75.118V98.2197H74.1219V99.2217H75.118V102.907C75.118 104.132 75.6922 104.624 77.0926 104.624ZM81.8622 104.706C83.4911 104.706 84.37 103.769 84.5809 102.931L84.5926 102.878L83.368 102.884L83.3446 102.931C83.1922 103.259 82.7059 103.663 81.8914 103.663C80.8426 103.663 80.1747 102.954 80.1512 101.735H84.6629V101.29C84.6629 99.3799 83.5731 98.0967 81.7977 98.0967C80.0223 98.0967 78.8739 99.4268 78.8739 101.413V101.419C78.8739 103.435 79.9989 104.706 81.8622 104.706ZM81.8036 99.1396C82.6649 99.1396 83.3036 99.6904 83.4032 100.827H80.1688C80.2801 99.7314 80.9364 99.1396 81.8036 99.1396ZM86.1747 104.583H87.4461V100.78C87.4461 99.8604 88.1082 99.2627 89.0809 99.2627C89.3211 99.2627 89.5379 99.292 89.7664 99.3389V98.167C89.6375 98.1377 89.4149 98.1084 89.2098 98.1084C88.3602 98.1084 87.7684 98.5068 87.5399 99.1807H87.4461V98.2197H86.1747V104.583ZM97.8231 104.788C99.95 104.788 101.245 103.528 101.245 101.671V96.1279H99.9325V101.571C99.9325 102.796 99.1707 103.628 97.8231 103.628C96.4754 103.628 95.7079 102.796 95.7079 101.571V96.1279H94.3954V101.671C94.3954 103.528 95.702 104.788 97.8231 104.788ZM103.214 104.583H104.485V100.851C104.485 99.8252 105.065 99.1865 105.997 99.1865C106.929 99.1865 107.368 99.708 107.368 100.763V104.583H108.634V100.464C108.634 98.9463 107.848 98.0967 106.425 98.0967C105.499 98.0967 104.889 98.5068 104.579 99.1865H104.485V98.2197H103.214V104.583ZM111.071 97.083C111.505 97.083 111.868 96.7256 111.868 96.292C111.868 95.8525 111.505 95.4951 111.071 95.4951C110.632 95.4951 110.274 95.8525 110.274 96.292C110.274 96.7256 110.632 97.083 111.071 97.083ZM110.432 104.583H111.698V98.2197H110.432V104.583ZM115.952 104.624C116.198 104.624 116.432 104.595 116.638 104.56V103.546C116.462 103.563 116.35 103.569 116.157 103.569C115.53 103.569 115.272 103.288 115.272 102.603V99.2217H116.638V98.2197H115.272V96.6143H113.977V98.2197H112.981V99.2217H113.977V102.907C113.977 104.132 114.552 104.624 115.952 104.624ZM120.722 104.706C122.35 104.706 123.229 103.769 123.44 102.931L123.452 102.878L122.227 102.884L122.204 102.931C122.052 103.259 121.565 103.663 120.751 103.663C119.702 103.663 119.034 102.954 119.011 101.735H123.522V101.29C123.522 99.3799 122.432 98.0967 120.657 98.0967C118.882 98.0967 117.733 99.4268 117.733 101.413V101.419C117.733 103.435 118.858 104.706 120.722 104.706ZM120.663 99.1396C121.524 99.1396 122.163 99.6904 122.263 100.827H119.028C119.139 99.7314 119.796 99.1396 120.663 99.1396ZM127.354 104.688C128.245 104.688 128.942 104.278 129.311 103.581H129.411V104.583H130.677V95.7236H129.411V99.2275H129.311C128.972 98.542 128.227 98.1084 127.354 98.1084C125.737 98.1084 124.718 99.3799 124.718 101.396V101.407C124.718 103.405 125.755 104.688 127.354 104.688ZM127.718 103.604C126.651 103.604 126.013 102.772 126.013 101.407V101.396C126.013 100.03 126.651 99.1982 127.718 99.1982C128.772 99.1982 129.429 100.036 129.429 101.396V101.407C129.429 102.767 128.778 103.604 127.718 103.604Z" fill="white"/>
<path d="M121.214 166.384H122.907V160.976H123.001L126.915 166.384H128.38V157.929H126.686V163.314H126.593L122.69 157.929H121.214V166.384ZM133.132 166.519C135.118 166.519 136.313 165.265 136.313 163.161V163.15C136.313 161.064 135.101 159.792 133.132 159.792C131.163 159.792 129.95 161.07 129.95 163.15V163.161C129.95 165.259 131.145 166.519 133.132 166.519ZM133.132 165.177C132.218 165.177 131.702 164.433 131.702 163.161V163.15C131.702 161.89 132.224 161.134 133.132 161.134C134.034 161.134 134.561 161.89 134.561 163.15V163.161C134.561 164.433 134.04 165.177 133.132 165.177ZM140.386 166.407C140.714 166.407 141.03 166.372 141.241 166.331V165.06C141.077 165.077 140.96 165.089 140.737 165.089C140.157 165.089 139.911 164.831 139.911 164.251V161.222H141.241V159.933H139.911V158.392H138.183V159.933H137.186V161.222H138.183V164.644C138.183 165.898 138.815 166.407 140.386 166.407ZM143.538 158.943C144.065 158.943 144.499 158.521 144.499 157.993C144.499 157.46 144.065 157.038 143.538 157.038C143.011 157.038 142.571 157.46 142.571 157.993C142.571 158.521 143.011 158.943 143.538 158.943ZM142.677 166.384H144.388V159.933H142.677V166.384ZM146.608 166.384H148.319V161.222H149.649V159.933H148.284V159.447C148.284 158.884 148.53 158.573 149.192 158.573C149.415 158.573 149.597 158.591 149.702 158.609V157.466C149.456 157.431 149.169 157.402 148.823 157.402C147.265 157.402 146.608 158.046 146.608 159.329V159.933H145.565V161.222H146.608V166.384ZM151.776 168.657C153.37 168.657 154.22 168.083 154.794 166.378L156.991 159.933H155.186L153.833 164.82H153.716L152.362 159.933H150.481L152.749 166.384L152.69 166.63C152.567 167.134 152.216 167.368 151.606 167.368C151.448 167.368 151.278 167.363 151.161 167.351V168.64C151.36 168.652 151.577 168.657 151.776 168.657ZM161.444 166.384H163.02V160.63H163.138L165.306 166.384H166.413L168.581 160.63H168.698V166.384H170.274V157.929H168.247L165.915 164.116H165.81L163.472 157.929H161.444V166.384ZM174.997 166.519C176.884 166.519 177.716 165.429 177.915 164.62L177.927 164.562H176.333L176.315 164.597C176.198 164.843 175.782 165.241 175.032 165.241C174.124 165.241 173.556 164.626 173.538 163.566H177.979V163.032C177.979 161.081 176.808 159.792 174.927 159.792C173.046 159.792 171.845 161.111 171.845 163.161V163.167C171.845 165.236 173.034 166.519 174.997 166.519ZM174.956 161.075C175.7 161.075 176.233 161.556 176.339 162.493H173.556C173.661 161.579 174.212 161.075 174.956 161.075Z" fill="#0379FF"/>
<path opacity="0.9" d="M58.5517 121.26H62.4482V119.719H58.5517V121.26ZM66.3271 123.903H68.0966V115.448H66.3329L64.1474 116.965V118.559L66.2216 117.118H66.3271V123.903ZM73.5283 115.225C71.624 115.225 70.288 116.502 70.288 118.231V118.243C70.288 119.842 71.3954 121.014 73.0419 121.014C74.2138 121.014 74.9169 120.428 75.2216 119.778H75.3388C75.3388 119.842 75.3388 119.907 75.3388 119.965C75.2744 121.506 74.7353 122.707 73.5107 122.707C72.831 122.707 72.3505 122.35 72.1454 121.823L72.1279 121.77H70.3935L70.4052 121.823C70.6689 123.147 71.8818 124.114 73.5165 124.114C75.6845 124.114 77.0204 122.432 77.0204 119.602V119.59C77.0204 116.62 75.4853 115.225 73.5283 115.225ZM73.5283 119.707C72.6435 119.707 71.999 119.069 71.999 118.178V118.166C71.999 117.305 72.6845 116.631 73.54 116.631C74.4013 116.631 75.0751 117.317 75.0751 118.202V118.213C75.0751 119.086 74.4013 119.707 73.5283 119.707ZM81.8544 124.12C83.9462 124.12 85.2119 122.409 85.2119 119.678V119.666C85.2119 116.93 83.9462 115.231 81.8544 115.231C79.7685 115.231 78.497 116.93 78.497 119.666V119.678C78.497 122.409 79.7685 124.12 81.8544 124.12ZM81.8544 122.719C80.8583 122.719 80.29 121.588 80.29 119.678V119.666C80.29 117.75 80.8583 116.631 81.8544 116.631C82.8564 116.631 83.4247 117.75 83.4247 119.666V119.678C83.4247 121.588 82.8564 122.719 81.8544 122.719Z" fill="#0379FF"/>
<rect x="149.5" y="84.6124" width="68.7618" height="49.0461" rx="4" fill="#3F3C3C"/>
<path d="M170.25 104.583H173.303C175.822 104.583 177.281 103.024 177.281 100.341V100.329C177.281 97.6748 175.811 96.1279 173.303 96.1279H170.25V104.583ZM171.563 103.452V97.2588H173.156C174.908 97.2588 175.945 98.4014 175.945 100.347V100.358C175.945 102.321 174.926 103.452 173.156 103.452H171.563ZM178.916 104.583H180.188V100.78C180.188 99.8604 180.85 99.2627 181.822 99.2627C182.063 99.2627 182.279 99.292 182.508 99.3389V98.167C182.379 98.1377 182.156 98.1084 181.951 98.1084C181.102 98.1084 180.51 98.5068 180.281 99.1807H180.188V98.2197H178.916V104.583ZM185.42 104.688C186.264 104.688 186.932 104.325 187.307 103.681H187.406V104.583H188.666V100.229C188.666 98.8936 187.764 98.0967 186.164 98.0967C184.717 98.0967 183.715 98.7939 183.563 99.8369L183.557 99.8779H184.781L184.787 99.8545C184.939 99.4033 185.402 99.1455 186.105 99.1455C186.967 99.1455 187.406 99.5322 187.406 100.229V100.792L185.684 100.892C184.166 100.985 183.311 101.647 183.311 102.784V102.796C183.311 103.95 184.207 104.688 185.42 104.688ZM184.576 102.743V102.731C184.576 102.157 184.975 101.841 185.854 101.788L187.406 101.688V102.233C187.406 103.054 186.709 103.675 185.76 103.675C185.074 103.675 184.576 103.329 184.576 102.743ZM191.414 104.583H192.709L194.022 99.8369H194.121L195.439 104.583H196.746L198.498 98.2197H197.238L196.102 103.13H196.002L194.689 98.2197H193.482L192.17 103.13H192.076L190.934 98.2197H189.656L191.414 104.583Z" fill="white"/>
<path opacity="0.9" d="M167.418 121.26H169.95V123.715H171.491V121.26H174.028V119.719H171.491V117.264H169.95V119.719H167.418V121.26ZM178.768 124.09C180.742 124.09 182.061 123.053 182.061 121.518V121.506C182.061 120.358 181.241 119.631 179.981 119.514V119.479C180.971 119.274 181.744 118.588 181.744 117.534V117.522C181.744 116.174 180.573 115.26 178.756 115.26C176.981 115.26 175.791 116.245 175.668 117.756L175.662 117.827H177.291L177.297 117.774C177.367 117.071 177.924 116.62 178.756 116.62C179.588 116.62 180.075 117.053 180.075 117.756V117.768C180.075 118.453 179.5 118.922 178.61 118.922H177.666V120.182H178.633C179.659 120.182 180.262 120.627 180.262 121.436V121.448C180.262 122.162 179.67 122.666 178.768 122.666C177.854 122.666 177.25 122.198 177.174 121.541L177.168 121.477H175.475L175.481 121.553C175.598 123.065 176.858 124.09 178.768 124.09ZM185.705 123.903H187.475V115.448H185.711L183.526 116.965V118.559L185.6 117.118H185.705V123.903ZM193.03 124.12C195.121 124.12 196.387 122.409 196.387 119.678V119.666C196.387 116.93 195.121 115.231 193.03 115.231C190.944 115.231 189.672 116.93 189.672 119.666V119.678C189.672 122.409 190.944 124.12 193.03 124.12ZM193.03 122.719C192.034 122.719 191.465 121.588 191.465 119.678V119.666C191.465 117.75 192.034 116.631 193.03 116.631C194.032 116.631 194.6 117.75 194.6 119.666V119.678C194.6 121.588 194.032 122.719 193.03 122.719Z" fill="#0379FF"/>
<rect x="225.345" y="84.7747" width="89.0482" height="49.0461" rx="4" fill="#3F3C3C"/>
<path d="M237.523 104.745H238.801V98.6047H238.895L243.236 104.745H244.42V96.2902H243.143V102.443H243.055L238.707 96.2902H237.523V104.745ZM249.096 104.868C250.959 104.868 252.102 103.62 252.102 101.57V101.558C252.102 99.507 250.953 98.259 249.096 98.259C247.232 98.259 246.084 99.5129 246.084 101.558V101.57C246.084 103.62 247.227 104.868 249.096 104.868ZM249.096 103.808C248 103.808 247.385 102.982 247.385 101.57V101.558C247.385 100.146 248 99.3195 249.096 99.3195C250.186 99.3195 250.807 100.146 250.807 101.558V101.57C250.807 102.976 250.186 103.808 249.096 103.808ZM256.021 104.786C256.268 104.786 256.502 104.757 256.707 104.722V103.708C256.531 103.726 256.42 103.732 256.227 103.732C255.6 103.732 255.342 103.45 255.342 102.765V99.384H256.707V98.382H255.342V96.7766H254.047V98.382H253.051V99.384H254.047V103.07C254.047 104.294 254.621 104.786 256.021 104.786ZM260.615 104.786C260.861 104.786 261.096 104.757 261.301 104.722V103.708C261.125 103.726 261.014 103.732 260.82 103.732C260.193 103.732 259.936 103.45 259.936 102.765V99.384H261.301V98.382H259.936V96.7766H258.641V98.382H257.645V99.384H258.641V103.07C258.641 104.294 259.215 104.786 260.615 104.786ZM263.445 97.2453C263.879 97.2453 264.242 96.8879 264.242 96.4543C264.242 96.0148 263.879 95.6574 263.445 95.6574C263.006 95.6574 262.648 96.0148 262.648 96.4543C262.648 96.8879 263.006 97.2453 263.445 97.2453ZM262.807 104.745H264.072V98.382H262.807V104.745ZM265.924 104.745H267.195V101.013C267.195 99.9875 267.775 99.3488 268.707 99.3488C269.639 99.3488 270.078 99.8703 270.078 100.925V104.745H271.344V100.626C271.344 99.1086 270.559 98.259 269.135 98.259C268.209 98.259 267.6 98.6691 267.289 99.3488H267.195V98.382H265.924V104.745ZM275.809 106.989C277.613 106.989 278.756 106.064 278.756 104.616V98.382H277.49V99.425H277.414C277.045 98.7101 276.353 98.2707 275.463 98.2707C273.811 98.2707 272.797 99.5539 272.797 101.37V101.382C272.797 103.175 273.805 104.435 275.439 104.435C276.312 104.435 277.016 104.048 277.402 103.357H277.496V104.611C277.496 105.478 276.875 105.97 275.826 105.97C274.965 105.97 274.449 105.659 274.344 105.22L274.338 105.208H273.055L273.043 105.22C273.195 106.28 274.191 106.989 275.809 106.989ZM275.791 103.386C274.707 103.386 274.098 102.56 274.098 101.376V101.364C274.098 100.181 274.707 99.3488 275.791 99.3488C276.863 99.3488 277.52 100.181 277.52 101.364V101.376C277.52 102.566 276.869 103.386 275.791 103.386ZM280.643 104.745H281.914V101.013C281.914 99.9875 282.494 99.3488 283.426 99.3488C284.357 99.3488 284.797 99.8703 284.797 100.925V104.745H286.062V100.626C286.062 99.1086 285.277 98.259 283.853 98.259C282.928 98.259 282.318 98.6691 282.008 99.3488H281.914V95.8859H280.643V104.745ZM289.584 104.851C290.428 104.851 291.096 104.487 291.471 103.843H291.57V104.745H292.83V100.392C292.83 99.0558 291.928 98.259 290.328 98.259C288.881 98.259 287.879 98.9562 287.727 99.9992L287.721 100.04H288.945L288.951 100.017C289.103 99.5656 289.566 99.3078 290.27 99.3078C291.131 99.3078 291.57 99.6945 291.57 100.392V100.954L289.848 101.054C288.33 101.148 287.475 101.81 287.475 102.946V102.958C287.475 104.112 288.371 104.851 289.584 104.851ZM288.74 102.905V102.894C288.74 102.32 289.139 102.003 290.018 101.95L291.57 101.851V102.396C291.57 103.216 290.873 103.837 289.924 103.837C289.238 103.837 288.74 103.491 288.74 102.905ZM294.623 104.745H295.895V100.837C295.895 100.005 296.463 99.3488 297.23 99.3488C297.98 99.3488 298.455 99.8058 298.455 100.532V104.745H299.721V100.72C299.721 99.9523 300.254 99.3488 301.062 99.3488C301.895 99.3488 302.293 99.7824 302.293 100.661V104.745H303.559V100.357C303.559 99.0324 302.809 98.259 301.525 98.259C300.641 98.259 299.908 98.7101 299.586 99.3957H299.486C299.205 98.7101 298.59 98.259 297.723 98.259C296.891 98.259 296.27 98.6633 295.988 99.3605H295.895V98.382H294.623V104.745Z" fill="white"/>
<path opacity="0.9" d="M252.875 120.943H255.407V123.398H256.948V120.943H259.485V119.402H256.948V116.947H255.407V119.402H252.875V120.943ZM263.135 123.585H264.905V115.13H263.141L260.955 116.648V118.241L263.03 116.8H263.135V123.585ZM270.412 123.802C272.311 123.802 273.623 122.589 273.623 120.808V120.796C273.623 119.185 272.487 118.025 270.91 118.025C270.102 118.025 269.446 118.376 269.106 118.945H269L269.211 116.536H273.119V115.13H267.834L267.442 120.134H268.959C269.053 119.952 269.194 119.794 269.352 119.665C269.633 119.425 269.996 119.302 270.424 119.302C271.321 119.302 271.959 119.929 271.959 120.831V120.843C271.959 121.751 271.327 122.39 270.418 122.39C269.621 122.39 269.041 121.892 268.918 121.271L268.907 121.23H267.301L267.307 121.312C267.407 122.724 268.602 123.802 270.412 123.802ZM278.381 123.802C280.28 123.802 281.592 122.589 281.592 120.808V120.796C281.592 119.185 280.455 118.025 278.879 118.025C278.071 118.025 277.414 118.376 277.075 118.945H276.969L277.18 116.536H281.088V115.13H275.803L275.41 120.134H276.928C277.022 119.952 277.162 119.794 277.321 119.665C277.602 119.425 277.965 119.302 278.393 119.302C279.289 119.302 279.928 119.929 279.928 120.831V120.843C279.928 121.751 279.295 122.39 278.387 122.39C277.59 122.39 277.01 121.892 276.887 121.271L276.875 121.23H275.27L275.276 121.312C275.375 122.724 276.571 123.802 278.381 123.802Z" fill="#0379FF"/>
<rect x="14.1396" y="147.04" width="298.344" height="32.2415" rx="3.65" stroke="#0379FF" stroke-width="0.7"/>
<defs>
<clipPath id="clip0_3_583">
<rect width="13" height="14" fill="white" transform="translate(190 155)"/>
</clipPath>
</defs>
</svg>
