<svg width="325" height="191" viewBox="0 0 325 191" fill="none" xmlns="http://www.w3.org/2000/svg">
<rect x="0.795801" y="0.724695" width="323.76" height="189.548" rx="3.65" fill="#121212" stroke="#0379FF" stroke-width="0.7"/>
<g clip-path="url(#clip0_73_191)">
<path d="M202.126 166.187V166.807H190.399V166.187L191.702 164.948V161.231C191.702 159.31 193.025 157.619 194.96 157.074V156.894C194.96 156.565 195.097 156.25 195.341 156.018C195.586 155.785 195.917 155.655 196.263 155.655C196.608 155.655 196.94 155.785 197.184 156.018C197.428 156.25 197.565 156.565 197.565 156.894V157.074C199.5 157.619 200.823 159.31 200.823 161.231V164.948L202.126 166.187ZM197.565 167.426C197.565 167.755 197.428 168.07 197.184 168.303C196.94 168.535 196.608 168.666 196.263 168.666C195.917 168.666 195.586 168.535 195.341 168.303C195.097 168.07 194.96 167.755 194.96 167.426" fill="#0379FF"/>
</g>
<path d="M14.7234 44.583H15.9187V38.3779H16.0125L18.491 44.583H19.4636L21.948 38.3779H22.0359V44.583H23.2312V36.1279H21.7195L19.0242 42.8721H18.9304L16.2351 36.1279H14.7234V44.583ZM26.9519 44.6885C27.7957 44.6885 28.4636 44.3252 28.8386 43.6807H28.9382V44.583H30.198V40.2295C30.198 38.8936 29.2957 38.0967 27.696 38.0967C26.2488 38.0967 25.2468 38.7939 25.0945 39.8369L25.0886 39.8779H26.3132L26.3191 39.8545C26.4714 39.4033 26.9343 39.1455 27.6375 39.1455C28.4988 39.1455 28.9382 39.5322 28.9382 40.2295V40.792L27.2156 40.8916C25.698 40.9854 24.8425 41.6475 24.8425 42.7842V42.7959C24.8425 43.9502 25.739 44.6885 26.9519 44.6885ZM26.1082 42.7432V42.7314C26.1082 42.1572 26.5066 41.8408 27.3855 41.7881L28.9382 41.6885V42.2334C28.9382 43.0537 28.241 43.6748 27.2917 43.6748C26.6062 43.6748 26.1082 43.3291 26.1082 42.7432ZM31.991 44.583H33.2625V40.8506C33.2625 39.8252 33.8425 39.1865 34.7742 39.1865C35.7058 39.1865 36.1453 39.708 36.1453 40.7627V44.583H37.4109V40.4639C37.4109 38.9463 36.6257 38.0967 35.2019 38.0967C34.2761 38.0967 33.6667 38.5068 33.3562 39.1865H33.2625V38.2197H31.991V44.583ZM41.864 44.7061C43.4402 44.7061 44.3484 43.8564 44.5769 42.6201L44.5886 42.5674H43.3699L43.3582 42.5967C43.1531 43.2822 42.6609 43.6455 41.864 43.6455C40.8152 43.6455 40.1648 42.79 40.1648 41.3838V41.3721C40.1648 40.001 40.8035 39.1572 41.864 39.1572C42.7078 39.1572 43.2234 39.626 43.364 40.2529L43.3699 40.2705L44.5886 40.2646V40.2354C44.4128 38.999 43.4578 38.0967 41.8582 38.0967C40.0007 38.0967 38.8699 39.3564 38.8699 41.3721V41.3838C38.8699 43.4404 40.0066 44.7061 41.864 44.7061ZM46.0886 44.583H47.3601V40.8506C47.3601 39.8252 47.9402 39.1865 48.8718 39.1865C49.8035 39.1865 50.2429 39.708 50.2429 40.7627V44.583H51.5085V40.4639C51.5085 38.9463 50.7234 38.0967 49.2996 38.0967C48.3738 38.0967 47.7644 38.5068 47.4539 39.1865H47.3601V35.7236H46.0886V44.583ZM55.9558 44.7061C57.5847 44.7061 58.4636 43.7686 58.6746 42.9307L58.6863 42.8779L57.4617 42.8838L57.4382 42.9307C57.2859 43.2588 56.7996 43.6631 55.9851 43.6631C54.9363 43.6631 54.2683 42.9541 54.2449 41.7354H58.7566V41.29C58.7566 39.3799 57.6667 38.0967 55.8914 38.0967C54.116 38.0967 52.9675 39.4268 52.9675 41.4131V41.4189C52.9675 43.4346 54.0925 44.7061 55.9558 44.7061ZM55.8972 39.1396C56.7585 39.1396 57.3972 39.6904 57.4968 40.8271H54.2625C54.3738 39.7314 55.03 39.1396 55.8972 39.1396ZM62.5828 44.7061C64.0945 44.7061 65.2195 43.9033 65.2195 42.7256V42.7139C65.2195 41.7939 64.6335 41.2725 63.4089 40.9854L62.4011 40.7568C61.6863 40.5869 61.3933 40.3408 61.3933 39.9424V39.9307C61.3933 39.4209 61.8972 39.0752 62.5945 39.0752C63.3093 39.0752 63.7605 39.4092 63.8835 39.8545V39.8662H65.0964V39.8604C64.9851 38.8232 64.0535 38.0967 62.6003 38.0967C61.1589 38.0967 60.1277 38.8936 60.1277 40.001V40.0068C60.1277 40.9385 60.6843 41.4834 61.8855 41.7588L62.8992 41.9932C63.6375 42.1631 63.9363 42.4326 63.9363 42.8311V42.8428C63.9363 43.3643 63.3914 43.7217 62.6062 43.7217C61.8503 43.7217 61.3875 43.3994 61.2292 42.9189L61.2234 42.9131H59.9519V42.9189C60.075 43.9854 61.0476 44.7061 62.5828 44.7061ZM69.0925 44.624C69.3386 44.624 69.573 44.5947 69.7781 44.5596V43.5459C69.6023 43.5635 69.491 43.5693 69.2976 43.5693C68.6707 43.5693 68.4128 43.2881 68.4128 42.6025V39.2217H69.7781V38.2197H68.4128V36.6143H67.1179V38.2197H66.1218V39.2217H67.1179V42.9072C67.1179 44.1318 67.6921 44.624 69.0925 44.624ZM73.8621 44.7061C75.491 44.7061 76.3699 43.7686 76.5808 42.9307L76.5925 42.8779L75.3679 42.8838L75.3445 42.9307C75.1921 43.2588 74.7058 43.6631 73.8914 43.6631C72.8425 43.6631 72.1746 42.9541 72.1511 41.7354H76.6628V41.29C76.6628 39.3799 75.573 38.0967 73.7976 38.0967C72.0222 38.0967 70.8738 39.4268 70.8738 41.4131V41.4189C70.8738 43.4346 71.9988 44.7061 73.8621 44.7061ZM73.8035 39.1396C74.6648 39.1396 75.3035 39.6904 75.4031 40.8271H72.1687C72.28 39.7314 72.9363 39.1396 73.8035 39.1396ZM78.1746 44.583H79.446V40.7803C79.446 39.8604 80.1082 39.2627 81.0808 39.2627C81.321 39.2627 81.5378 39.292 81.7664 39.3389V38.167C81.6375 38.1377 81.4148 38.1084 81.2097 38.1084C80.3601 38.1084 79.7683 38.5068 79.5398 39.1807H79.446V38.2197H78.1746V44.583ZM89.823 44.7881C91.95 44.7881 93.2449 43.5283 93.2449 41.6709V36.1279H91.9324V41.5713C91.9324 42.7959 91.1707 43.6279 89.823 43.6279C88.4753 43.6279 87.7078 42.7959 87.7078 41.5713V36.1279H86.3953V41.6709C86.3953 43.5283 87.7019 44.7881 89.823 44.7881ZM95.2136 44.583H96.4851V40.8506C96.4851 39.8252 97.0652 39.1865 97.9968 39.1865C98.9285 39.1865 99.3679 39.708 99.3679 40.7627V44.583H100.634V40.4639C100.634 38.9463 99.8484 38.0967 98.4246 38.0967C97.4988 38.0967 96.8894 38.5068 96.5789 39.1865H96.4851V38.2197H95.2136V44.583ZM103.071 37.083C103.505 37.083 103.868 36.7256 103.868 36.292C103.868 35.8525 103.505 35.4951 103.071 35.4951C102.632 35.4951 102.274 35.8525 102.274 36.292C102.274 36.7256 102.632 37.083 103.071 37.083ZM102.432 44.583H103.698V38.2197H102.432V44.583ZM107.952 44.624C108.198 44.624 108.432 44.5947 108.637 44.5596V43.5459C108.462 43.5635 108.35 43.5693 108.157 43.5693C107.53 43.5693 107.272 43.2881 107.272 42.6025V39.2217H108.637V38.2197H107.272V36.6143H105.977V38.2197H104.981V39.2217H105.977V42.9072C105.977 44.1318 106.552 44.624 107.952 44.624ZM112.721 44.7061C114.35 44.7061 115.229 43.7686 115.44 42.9307L115.452 42.8779L114.227 42.8838L114.204 42.9307C114.052 43.2588 113.565 43.6631 112.751 43.6631C111.702 43.6631 111.034 42.9541 111.01 41.7354H115.522V41.29C115.522 39.3799 114.432 38.0967 112.657 38.0967C110.882 38.0967 109.733 39.4268 109.733 41.4131V41.4189C109.733 43.4346 110.858 44.7061 112.721 44.7061ZM112.663 39.1396C113.524 39.1396 114.163 39.6904 114.262 40.8271H111.028C111.139 39.7314 111.796 39.1396 112.663 39.1396ZM119.354 44.6885C120.245 44.6885 120.942 44.2783 121.311 43.5811H121.411V44.583H122.677V35.7236H121.411V39.2275H121.311C120.971 38.542 120.227 38.1084 119.354 38.1084C117.737 38.1084 116.718 39.3799 116.718 41.3955V41.4072C116.718 43.4053 117.755 44.6885 119.354 44.6885ZM119.718 43.6045C118.651 43.6045 118.012 42.7725 118.012 41.4072V41.3955C118.012 40.0303 118.651 39.1982 119.718 39.1982C120.772 39.1982 121.428 40.0361 121.428 41.3955V41.4072C121.428 42.7666 120.778 43.6045 119.718 43.6045Z" fill="white"/>
<path d="M226.185 44.5756H227.24V36.1205H226.191L223.941 37.7377V38.851L226.091 37.2924H226.185V44.5756ZM232.448 35.9213C230.743 35.9213 229.49 37.1459 229.49 38.8334V38.8451C229.49 40.4681 230.673 41.6752 232.261 41.6752C233.404 41.6752 234.2 41.0599 234.511 40.3685H234.622C234.622 40.433 234.622 40.5033 234.616 40.5677C234.552 42.3314 233.925 43.8314 232.39 43.8314C231.534 43.8314 230.943 43.392 230.685 42.683L230.661 42.6185H229.601L229.618 42.6947C229.906 43.9427 230.96 44.7748 232.378 44.7748C234.429 44.7748 235.63 43.0873 235.63 40.2045V40.1927C235.63 37.0111 233.995 35.9213 232.448 35.9213ZM232.443 40.7552C231.347 40.7552 230.55 39.9467 230.55 38.8217V38.8099C230.55 37.7142 231.4 36.8529 232.46 36.8529C233.532 36.8529 234.37 37.7318 234.37 38.8451V38.851C234.37 39.9525 233.538 40.7552 232.443 40.7552ZM237.241 41.6459H241.179V40.6967H237.241V41.6459ZM246.845 44.5756H247.876V42.8236H249.077V41.8802H247.876V36.1205H246.347C245.163 37.8842 243.868 39.9467 242.726 41.8627V42.8236H246.845V44.5756ZM243.804 41.8861V41.8158C244.724 40.2631 245.831 38.517 246.781 37.099H246.851V41.8861H243.804ZM250.624 41.6459H254.562V40.6967H250.624V41.6459ZM260.228 44.5756H261.259V42.8236H262.46V41.8802H261.259V36.1205H259.73C258.546 37.8842 257.251 39.9467 256.109 41.8627V42.8236H260.228V44.5756ZM257.187 41.8861V41.8158C258.107 40.2631 259.214 38.517 260.163 37.099H260.234V41.8861H257.187ZM263.427 46.726H264.183L265.103 43.392H263.937L263.427 46.726ZM270.616 44.5756H276.089V43.6263H272.081V43.5326L274.003 41.5463C275.532 39.9701 275.948 39.267 275.948 38.3002V38.2885C275.948 36.9232 274.818 35.9213 273.341 35.9213C271.724 35.9213 270.564 36.9994 270.558 38.4994L270.57 38.5052L271.577 38.5111L271.583 38.4994C271.583 37.5033 272.257 36.8412 273.271 36.8412C274.267 36.8412 274.87 37.5092 274.87 38.3998V38.4115C274.87 39.1498 274.554 39.5892 273.476 40.7552L270.616 43.849V44.5756ZM277.865 44.5756H278.884V40.8373C278.884 39.7299 279.523 39.0502 280.531 39.0502C281.538 39.0502 282.007 39.5951 282.007 40.7318V44.5756H283.027V40.4857C283.027 38.9857 282.236 38.1478 280.818 38.1478C279.886 38.1478 279.294 38.5404 278.978 39.2084H278.884V38.2592H277.865V44.5756ZM287.204 44.6869C288.083 44.6869 288.786 44.2709 289.173 43.5677H289.267V44.5756H290.286V35.7513H289.267V39.2552H289.173C288.827 38.5814 288.072 38.1478 287.204 38.1478C285.599 38.1478 284.556 39.431 284.556 41.4115V41.4232C284.556 43.392 285.605 44.6869 287.204 44.6869ZM287.439 43.7845C286.284 43.7845 285.599 42.8939 285.599 41.4232V41.4115C285.599 39.9408 286.284 39.0502 287.439 39.0502C288.587 39.0502 289.29 39.9525 289.29 41.4115V41.4232C289.29 42.8822 288.587 43.7845 287.439 43.7845ZM295.747 44.5756H300.986V43.6263H296.802V40.7201H300.769V39.7826H296.802V37.0697H300.986V36.1205H295.747V44.5756ZM302.896 44.5756H303.95V41.558H306.083C307.671 41.558 308.796 40.4388 308.796 38.8334V38.8217C308.796 37.2162 307.671 36.1205 306.083 36.1205H302.896V44.5756ZM305.814 37.058C307.021 37.058 307.718 37.7201 307.718 38.8334V38.8451C307.718 39.9584 307.021 40.6205 305.814 40.6205H303.95V37.058H305.814ZM310.525 44.5756H315.657V43.6263H311.579V36.1205H310.525V44.5756Z" fill="#7E7979"/>
<path d="M226.185 67.929H227.24V59.4739H226.191L223.941 61.0911V62.2043L226.091 60.6458H226.185V67.929ZM229.683 67.929H235.156V66.9797H231.148V66.886L233.07 64.8997C234.599 63.3235 235.015 62.6204 235.015 61.6536V61.6418C235.015 60.2766 233.884 59.2747 232.407 59.2747C230.79 59.2747 229.63 60.3528 229.624 61.8528L229.636 61.8586L230.644 61.8645L230.65 61.8528C230.65 60.8567 231.323 60.1946 232.337 60.1946C233.333 60.1946 233.937 60.8625 233.937 61.7532V61.7649C233.937 62.5032 233.62 62.9426 232.542 64.1086L229.683 67.2024V67.929ZM236.843 64.9993H240.781V64.05H236.843V64.9993ZM242.585 67.929H248.058V66.9797H244.05V66.886L245.972 64.8997C247.501 63.3235 247.917 62.6204 247.917 61.6536V61.6418C247.917 60.2766 246.786 59.2747 245.31 59.2747C243.693 59.2747 242.532 60.3528 242.527 61.8528L242.538 61.8586L243.546 61.8645L243.552 61.8528C243.552 60.8567 244.226 60.1946 245.24 60.1946C246.236 60.1946 246.839 60.8625 246.839 61.7532V61.7649C246.839 62.5032 246.523 62.9426 245.445 64.1086L242.585 67.2024V67.929ZM249.745 64.9993H253.683V64.05H249.745V64.9993ZM259.349 67.929H260.38V66.177H261.581V65.2336H260.38V59.4739H258.851C257.667 61.2375 256.372 63.3 255.23 65.2161V66.177H259.349V67.929ZM256.308 65.2395V65.1692C257.228 63.6165 258.335 61.8704 259.284 60.4524H259.355V65.2395H256.308ZM262.548 70.0793H263.304L264.224 66.7454H263.058L262.548 70.0793ZM272.726 68.1282C274.431 68.1282 275.685 66.9036 275.685 65.2161V65.2043C275.685 63.5813 274.501 62.3743 272.913 62.3743C271.771 62.3743 270.974 62.9895 270.663 63.6809H270.552C270.552 63.6165 270.552 63.5461 270.558 63.4817C270.622 61.718 271.249 60.218 272.784 60.218C273.64 60.218 274.232 60.6575 274.49 61.3665L274.513 61.4309H275.573L275.556 61.3547C275.269 60.1067 274.214 59.2747 272.796 59.2747C270.745 59.2747 269.544 60.9622 269.544 63.845V63.8567C269.544 67.0383 271.179 68.1282 272.726 68.1282ZM270.804 65.2043V65.1985C270.804 64.0969 271.636 63.2942 272.732 63.2942C273.827 63.2942 274.624 64.1028 274.624 65.2278V65.2395C274.624 66.3352 273.775 67.1965 272.714 67.1965C271.642 67.1965 270.804 66.3176 270.804 65.2043ZM279.628 67.9758C279.827 67.9758 280.021 67.9524 280.22 67.9172V67.05C280.032 67.0676 279.933 67.0735 279.751 67.0735C279.095 67.0735 278.837 66.7747 278.837 66.0305V62.4563H280.22V61.6125H278.837V59.9778H277.782V61.6125H276.786V62.4563H277.782V66.2883C277.782 67.4954 278.327 67.9758 279.628 67.9758ZM281.802 67.929H282.822V64.1907C282.822 63.0833 283.46 62.4036 284.468 62.4036C285.476 62.4036 285.945 62.9485 285.945 64.0852V67.929H286.964V63.8391C286.964 62.3391 286.173 61.5012 284.755 61.5012C283.823 61.5012 283.232 61.8938 282.915 62.5618H282.822V59.1047H281.802V67.929ZM292.314 67.929H297.552V66.9797H293.368V64.0735H297.335V63.136H293.368V60.4231H297.552V59.4739H292.314V67.929ZM299.462 67.929H300.517V64.9114H302.65C304.238 64.9114 305.363 63.7922 305.363 62.1868V62.175C305.363 60.5696 304.238 59.4739 302.65 59.4739H299.462V67.929ZM302.38 60.4114C303.587 60.4114 304.284 61.0735 304.284 62.1868V62.1985C304.284 63.3118 303.587 63.9739 302.38 63.9739H300.517V60.4114H302.38ZM307.091 67.929H312.224V66.9797H308.146V59.4739H307.091V67.929Z" fill="#7E7979"/>
<path d="M16.1333 22.2222H17.2407L18.0903 19.8022H21.4536L22.3032 22.2222H23.4106L20.2935 13.7671H19.2505L16.1333 22.2222ZM19.7251 15.1323H19.8188L21.1431 18.9058H18.4009L19.7251 15.1323ZM24.7642 24.3315H25.7837V21.2261H25.8774C26.2231 21.8999 26.979 22.3335 27.8462 22.3335C29.4517 22.3335 30.4946 21.0503 30.4946 19.0698V19.0581C30.4946 17.0894 29.4458 15.7944 27.8462 15.7944C26.9673 15.7944 26.2642 16.2104 25.8774 16.9136H25.7837V15.9058H24.7642V24.3315ZM27.6118 21.4312C26.4634 21.4312 25.7603 20.5288 25.7603 19.0698V19.0581C25.7603 17.5991 26.4634 16.6968 27.6118 16.6968C28.7661 16.6968 29.4517 17.5874 29.4517 19.0581V19.0698C29.4517 20.5405 28.7661 21.4312 27.6118 21.4312ZM32.0884 22.2222H33.1079V18.3081C33.1079 17.3823 33.7993 16.7671 34.772 16.7671C34.9946 16.7671 35.188 16.7905 35.3989 16.8257V15.8354C35.2993 15.8179 35.0825 15.7944 34.8892 15.7944C34.0337 15.7944 33.4419 16.1812 33.2017 16.8433H33.1079V15.9058H32.0884V22.2222ZM37.1978 14.687C37.5845 14.687 37.9009 14.3706 37.9009 13.9839C37.9009 13.5972 37.5845 13.2808 37.1978 13.2808C36.811 13.2808 36.4946 13.5972 36.4946 13.9839C36.4946 14.3706 36.811 14.687 37.1978 14.687ZM36.6821 22.2222H37.7017V15.9058H36.6821V22.2222ZM39.6821 22.2222H40.7017V13.3979H39.6821V22.2222ZM48.0962 22.2222H49.1509V13.7671H48.1021L45.8521 15.3843V16.4976L48.0024 14.939H48.0962V22.2222ZM67.1626 22.2222H68.2173V13.7671H67.1685L64.9185 15.3843V16.4976L67.0688 14.939H67.1626V22.2222ZM73.4907 22.4214C75.3599 22.4214 76.4849 20.7163 76.4849 17.9976V17.9858C76.4849 15.2671 75.3599 13.5679 73.4907 13.5679C71.6216 13.5679 70.5083 15.2671 70.5083 17.9858V17.9976C70.5083 20.7163 71.6216 22.4214 73.4907 22.4214ZM73.4907 21.5015C72.2778 21.5015 71.5688 20.1538 71.5688 17.9976V17.9858C71.5688 15.8296 72.2778 14.4937 73.4907 14.4937C74.7036 14.4937 75.4243 15.8296 75.4243 17.9858V17.9976C75.4243 20.1538 74.7036 21.5015 73.4907 21.5015ZM79.0571 16.4858C79.479 16.4858 79.8188 16.1401 79.8188 15.7241C79.8188 15.3022 79.479 14.9624 79.0571 14.9624C78.6411 14.9624 78.2954 15.3022 78.2954 15.7241C78.2954 16.1401 78.6411 16.4858 79.0571 16.4858ZM79.0571 21.021C79.479 21.021 79.8188 20.6753 79.8188 20.2593C79.8188 19.8374 79.479 19.4976 79.0571 19.4976C78.6411 19.4976 78.2954 19.8374 78.2954 20.2593C78.2954 20.6753 78.6411 21.021 79.0571 21.021ZM84.6118 22.4214C86.481 22.4214 87.606 20.7163 87.606 17.9976V17.9858C87.606 15.2671 86.481 13.5679 84.6118 13.5679C82.7427 13.5679 81.6294 15.2671 81.6294 17.9858V17.9976C81.6294 20.7163 82.7427 22.4214 84.6118 22.4214ZM84.6118 21.5015C83.3989 21.5015 82.6899 20.1538 82.6899 17.9976V17.9858C82.6899 15.8296 83.3989 14.4937 84.6118 14.4937C85.8247 14.4937 86.5454 15.8296 86.5454 17.9858V17.9976C86.5454 20.1538 85.8247 21.5015 84.6118 21.5015ZM92.1704 22.4214C94.0396 22.4214 95.1646 20.7163 95.1646 17.9976V17.9858C95.1646 15.2671 94.0396 13.5679 92.1704 13.5679C90.3013 13.5679 89.188 15.2671 89.188 17.9858V17.9976C89.188 20.7163 90.3013 22.4214 92.1704 22.4214ZM92.1704 21.5015C90.9575 21.5015 90.2485 20.1538 90.2485 17.9976V17.9858C90.2485 15.8296 90.9575 14.4937 92.1704 14.4937C93.3833 14.4937 94.104 15.8296 94.104 17.9858V17.9976C94.104 20.1538 93.3833 21.5015 92.1704 21.5015ZM99.7349 22.2222H100.842L101.692 19.8022H105.055L105.905 22.2222H107.012L103.895 13.7671H102.852L99.7349 22.2222ZM103.327 15.1323H103.42L104.745 18.9058H102.002L103.327 15.1323ZM108.495 22.2222H109.479V15.7651H109.543L112.215 22.2222H113.106L115.778 15.7651H115.842V22.2222H116.827V13.7671H115.602L112.708 20.8218H112.614L109.719 13.7671H108.495V22.2222Z" fill="white"/>
<path d="M14.5234 67.7453H15.8008V61.6047H15.8945L20.2363 67.7453H21.4199V59.2902H20.1426V65.4426H20.0547L15.707 59.2902H14.5234V67.7453ZM26.0957 67.8683C27.959 67.8683 29.1016 66.6203 29.1016 64.5695V64.5578C29.1016 62.507 27.9531 61.259 26.0957 61.259C24.2324 61.259 23.084 62.5129 23.084 64.5578V64.5695C23.084 66.6203 24.2266 67.8683 26.0957 67.8683ZM26.0957 66.8078C25 66.8078 24.3848 65.9816 24.3848 64.5695V64.5578C24.3848 63.1457 25 62.3195 26.0957 62.3195C27.1855 62.3195 27.8066 63.1457 27.8066 64.5578V64.5695C27.8066 65.9758 27.1855 66.8078 26.0957 66.8078ZM33.0215 67.7863C33.2676 67.7863 33.502 67.757 33.707 67.7219V66.7082C33.5312 66.7258 33.4199 66.7316 33.2266 66.7316C32.5996 66.7316 32.3418 66.4504 32.3418 65.7648V62.384H33.707V61.382H32.3418V59.7766H31.0469V61.382H30.0508V62.384H31.0469V66.0695C31.0469 67.2941 31.6211 67.7863 33.0215 67.7863ZM37.6152 67.7863C37.8613 67.7863 38.0957 67.757 38.3008 67.7219V66.7082C38.125 66.7258 38.0137 66.7316 37.8203 66.7316C37.1934 66.7316 36.9355 66.4504 36.9355 65.7648V62.384H38.3008V61.382H36.9355V59.7766H35.6406V61.382H34.6445V62.384H35.6406V66.0695C35.6406 67.2941 36.2148 67.7863 37.6152 67.7863ZM40.4453 60.2453C40.8789 60.2453 41.2422 59.8879 41.2422 59.4543C41.2422 59.0148 40.8789 58.6574 40.4453 58.6574C40.0059 58.6574 39.6484 59.0148 39.6484 59.4543C39.6484 59.8879 40.0059 60.2453 40.4453 60.2453ZM39.8066 67.7453H41.0723V61.382H39.8066V67.7453ZM42.9238 67.7453H44.1953V64.0129C44.1953 62.9875 44.7754 62.3488 45.707 62.3488C46.6387 62.3488 47.0781 62.8703 47.0781 63.925V67.7453H48.3438V63.6262C48.3438 62.1086 47.5586 61.259 46.1348 61.259C45.209 61.259 44.5996 61.6691 44.2891 62.3488H44.1953V61.382H42.9238V67.7453ZM52.8086 69.9894C54.6133 69.9894 55.7559 69.0637 55.7559 67.6164V61.382H54.4902V62.425H54.4141C54.0449 61.7101 53.3535 61.2707 52.4629 61.2707C50.8105 61.2707 49.7969 62.5539 49.7969 64.3703V64.382C49.7969 66.175 50.8047 67.4348 52.4395 67.4348C53.3125 67.4348 54.0156 67.048 54.4023 66.3566H54.4961V67.6105C54.4961 68.4777 53.875 68.9699 52.8262 68.9699C51.9648 68.9699 51.4492 68.6594 51.3438 68.2199L51.3379 68.2082H50.0547L50.043 68.2199C50.1953 69.2805 51.1914 69.9894 52.8086 69.9894ZM52.791 66.3859C51.707 66.3859 51.0977 65.5598 51.0977 64.3762V64.3644C51.0977 63.1808 51.707 62.3488 52.791 62.3488C53.8633 62.3488 54.5195 63.1808 54.5195 64.3644V64.3762C54.5195 65.5656 53.8691 66.3859 52.791 66.3859ZM57.6426 67.7453H58.9141V64.0129C58.9141 62.9875 59.4941 62.3488 60.4258 62.3488C61.3574 62.3488 61.7969 62.8703 61.7969 63.925V67.7453H63.0625V63.6262C63.0625 62.1086 62.2773 61.259 60.8535 61.259C59.9277 61.259 59.3184 61.6691 59.0078 62.3488H58.9141V58.8859H57.6426V67.7453ZM66.584 67.8508C67.4277 67.8508 68.0957 67.4875 68.4707 66.843H68.5703V67.7453H69.8301V63.3918C69.8301 62.0558 68.9277 61.259 67.3281 61.259C65.8809 61.259 64.8789 61.9562 64.7266 62.9992L64.7207 63.0402H65.9453L65.9512 63.0168C66.1035 62.5656 66.5664 62.3078 67.2695 62.3078C68.1309 62.3078 68.5703 62.6945 68.5703 63.3918V63.9543L66.8477 64.0539C65.3301 64.1476 64.4746 64.8098 64.4746 65.9465V65.9582C64.4746 67.1125 65.3711 67.8508 66.584 67.8508ZM65.7402 65.9055V65.8937C65.7402 65.3195 66.1387 65.0031 67.0176 64.9504L68.5703 64.8508V65.3957C68.5703 66.216 67.873 66.8371 66.9238 66.8371C66.2383 66.8371 65.7402 66.4914 65.7402 65.9055ZM71.623 67.7453H72.8945V63.8371C72.8945 63.0051 73.4629 62.3488 74.2305 62.3488C74.9805 62.3488 75.4551 62.8058 75.4551 63.5324V67.7453H76.7207V63.7199C76.7207 62.9523 77.2539 62.3488 78.0625 62.3488C78.8945 62.3488 79.293 62.7824 79.293 63.6613V67.7453H80.5586V63.3566C80.5586 62.0324 79.8086 61.259 78.5254 61.259C77.6406 61.259 76.9082 61.7101 76.5859 62.3957H76.4863C76.2051 61.7101 75.5898 61.259 74.7227 61.259C73.8906 61.259 73.2695 61.6633 72.9883 62.3605H72.8945V61.382H71.623V67.7453Z" fill="white"/>
<rect x="12.4304" y="85.0922" width="130.394" height="49.0461" rx="4" fill="#3F3C3C"/>
<path d="M22.7234 104.583H23.9187V98.3779H24.0125L26.491 104.583H27.4636L29.948 98.3779H30.0359V104.583H31.2312V96.1279H29.7195L27.0242 102.872H26.9304L24.2351 96.1279H22.7234V104.583ZM34.9519 104.688C35.7957 104.688 36.4636 104.325 36.8386 103.681H36.9382V104.583H38.198V100.229C38.198 98.8936 37.2957 98.0967 35.696 98.0967C34.2488 98.0967 33.2468 98.7939 33.0945 99.8369L33.0886 99.8779H34.3132L34.3191 99.8545C34.4714 99.4033 34.9343 99.1455 35.6375 99.1455C36.4988 99.1455 36.9382 99.5322 36.9382 100.229V100.792L35.2156 100.892C33.698 100.985 32.8425 101.647 32.8425 102.784V102.796C32.8425 103.95 33.739 104.688 34.9519 104.688ZM34.1082 102.743V102.731C34.1082 102.157 34.5066 101.841 35.3855 101.788L36.9382 101.688V102.233C36.9382 103.054 36.241 103.675 35.2917 103.675C34.6062 103.675 34.1082 103.329 34.1082 102.743ZM39.991 104.583H41.2625V100.851C41.2625 99.8252 41.8425 99.1865 42.7742 99.1865C43.7058 99.1865 44.1453 99.708 44.1453 100.763V104.583H45.4109V100.464C45.4109 98.9463 44.6257 98.0967 43.2019 98.0967C42.2761 98.0967 41.6667 98.5068 41.3562 99.1865H41.2625V98.2197H39.991V104.583ZM49.864 104.706C51.4402 104.706 52.3484 103.856 52.5769 102.62L52.5886 102.567H51.3699L51.3582 102.597C51.1531 103.282 50.6609 103.646 49.864 103.646C48.8152 103.646 48.1648 102.79 48.1648 101.384V101.372C48.1648 100.001 48.8035 99.1572 49.864 99.1572C50.7078 99.1572 51.2234 99.626 51.364 100.253L51.3699 100.271L52.5886 100.265V100.235C52.4128 98.999 51.4578 98.0967 49.8582 98.0967C48.0007 98.0967 46.8699 99.3564 46.8699 101.372V101.384C46.8699 103.44 48.0066 104.706 49.864 104.706ZM54.0886 104.583H55.3601V100.851C55.3601 99.8252 55.9402 99.1865 56.8718 99.1865C57.8035 99.1865 58.2429 99.708 58.2429 100.763V104.583H59.5085V100.464C59.5085 98.9463 58.7234 98.0967 57.2996 98.0967C56.3738 98.0967 55.7644 98.5068 55.4539 99.1865H55.3601V95.7236H54.0886V104.583ZM63.9558 104.706C65.5847 104.706 66.4636 103.769 66.6746 102.931L66.6863 102.878L65.4617 102.884L65.4382 102.931C65.2859 103.259 64.7996 103.663 63.9851 103.663C62.9363 103.663 62.2683 102.954 62.2449 101.735H66.7566V101.29C66.7566 99.3799 65.6667 98.0967 63.8914 98.0967C62.116 98.0967 60.9675 99.4268 60.9675 101.413V101.419C60.9675 103.435 62.0925 104.706 63.9558 104.706ZM63.8972 99.1396C64.7585 99.1396 65.3972 99.6904 65.4968 100.827H62.2625C62.3738 99.7314 63.03 99.1396 63.8972 99.1396ZM70.5828 104.706C72.0945 104.706 73.2195 103.903 73.2195 102.726V102.714C73.2195 101.794 72.6335 101.272 71.4089 100.985L70.4011 100.757C69.6863 100.587 69.3933 100.341 69.3933 99.9424V99.9307C69.3933 99.4209 69.8972 99.0752 70.5945 99.0752C71.3093 99.0752 71.7605 99.4092 71.8835 99.8545V99.8662H73.0964V99.8604C72.9851 98.8232 72.0535 98.0967 70.6003 98.0967C69.1589 98.0967 68.1277 98.8936 68.1277 100.001V100.007C68.1277 100.938 68.6843 101.483 69.8855 101.759L70.8992 101.993C71.6375 102.163 71.9363 102.433 71.9363 102.831V102.843C71.9363 103.364 71.3914 103.722 70.6062 103.722C69.8503 103.722 69.3875 103.399 69.2292 102.919L69.2234 102.913H67.9519V102.919C68.075 103.985 69.0476 104.706 70.5828 104.706ZM77.0925 104.624C77.3386 104.624 77.573 104.595 77.7781 104.56V103.546C77.6023 103.563 77.491 103.569 77.2976 103.569C76.6707 103.569 76.4128 103.288 76.4128 102.603V99.2217H77.7781V98.2197H76.4128V96.6143H75.1179V98.2197H74.1218V99.2217H75.1179V102.907C75.1179 104.132 75.6921 104.624 77.0925 104.624ZM81.8621 104.706C83.491 104.706 84.3699 103.769 84.5808 102.931L84.5925 102.878L83.3679 102.884L83.3445 102.931C83.1921 103.259 82.7058 103.663 81.8914 103.663C80.8425 103.663 80.1746 102.954 80.1511 101.735H84.6628V101.29C84.6628 99.3799 83.573 98.0967 81.7976 98.0967C80.0222 98.0967 78.8738 99.4268 78.8738 101.413V101.419C78.8738 103.435 79.9988 104.706 81.8621 104.706ZM81.8035 99.1396C82.6648 99.1396 83.3035 99.6904 83.4031 100.827H80.1687C80.28 99.7314 80.9363 99.1396 81.8035 99.1396ZM86.1746 104.583H87.446V100.78C87.446 99.8604 88.1082 99.2627 89.0808 99.2627C89.321 99.2627 89.5378 99.292 89.7664 99.3389V98.167C89.6375 98.1377 89.4148 98.1084 89.2097 98.1084C88.3601 98.1084 87.7683 98.5068 87.5398 99.1807H87.446V98.2197H86.1746V104.583ZM97.823 104.788C99.95 104.788 101.245 103.528 101.245 101.671V96.1279H99.9324V101.571C99.9324 102.796 99.1707 103.628 97.823 103.628C96.4753 103.628 95.7078 102.796 95.7078 101.571V96.1279H94.3953V101.671C94.3953 103.528 95.7019 104.788 97.823 104.788ZM103.214 104.583H104.485V100.851C104.485 99.8252 105.065 99.1865 105.997 99.1865C106.928 99.1865 107.368 99.708 107.368 100.763V104.583H108.634V100.464C108.634 98.9463 107.848 98.0967 106.425 98.0967C105.499 98.0967 104.889 98.5068 104.579 99.1865H104.485V98.2197H103.214V104.583ZM111.071 97.083C111.505 97.083 111.868 96.7256 111.868 96.292C111.868 95.8525 111.505 95.4951 111.071 95.4951C110.632 95.4951 110.274 95.8525 110.274 96.292C110.274 96.7256 110.632 97.083 111.071 97.083ZM110.432 104.583H111.698V98.2197H110.432V104.583ZM115.952 104.624C116.198 104.624 116.432 104.595 116.637 104.56V103.546C116.462 103.563 116.35 103.569 116.157 103.569C115.53 103.569 115.272 103.288 115.272 102.603V99.2217H116.637V98.2197H115.272V96.6143H113.977V98.2197H112.981V99.2217H113.977V102.907C113.977 104.132 114.552 104.624 115.952 104.624ZM120.721 104.706C122.35 104.706 123.229 103.769 123.44 102.931L123.452 102.878L122.227 102.884L122.204 102.931C122.052 103.259 121.565 103.663 120.751 103.663C119.702 103.663 119.034 102.954 119.01 101.735H123.522V101.29C123.522 99.3799 122.432 98.0967 120.657 98.0967C118.882 98.0967 117.733 99.4268 117.733 101.413V101.419C117.733 103.435 118.858 104.706 120.721 104.706ZM120.663 99.1396C121.524 99.1396 122.163 99.6904 122.262 100.827H119.028C119.139 99.7314 119.796 99.1396 120.663 99.1396ZM127.354 104.688C128.245 104.688 128.942 104.278 129.311 103.581H129.411V104.583H130.677V95.7236H129.411V99.2275H129.311C128.971 98.542 128.227 98.1084 127.354 98.1084C125.737 98.1084 124.718 99.3799 124.718 101.396V101.407C124.718 103.405 125.755 104.688 127.354 104.688ZM127.718 103.604C126.651 103.604 126.012 102.772 126.012 101.407V101.396C126.012 100.03 126.651 99.1982 127.718 99.1982C128.772 99.1982 129.428 100.036 129.428 101.396V101.407C129.428 102.767 128.778 103.604 127.718 103.604Z" fill="white"/>
<path d="M121.214 166.384H122.907V160.976H123.001L126.915 166.384H128.38V157.929H126.687V163.314H126.593L122.69 157.929H121.214V166.384ZM133.132 166.519C135.118 166.519 136.313 165.265 136.313 163.161V163.15C136.313 161.064 135.101 159.792 133.132 159.792C131.163 159.792 129.95 161.07 129.95 163.15V163.161C129.95 165.259 131.146 166.519 133.132 166.519ZM133.132 165.177C132.218 165.177 131.702 164.433 131.702 163.161V163.15C131.702 161.89 132.224 161.134 133.132 161.134C134.034 161.134 134.562 161.89 134.562 163.15V163.161C134.562 164.433 134.04 165.177 133.132 165.177ZM140.386 166.407C140.714 166.407 141.03 166.372 141.241 166.331V165.06C141.077 165.077 140.96 165.089 140.737 165.089C140.157 165.089 139.911 164.831 139.911 164.251V161.222H141.241V159.933H139.911V158.392H138.183V159.933H137.187V161.222H138.183V164.644C138.183 165.898 138.815 166.407 140.386 166.407ZM143.538 158.943C144.065 158.943 144.499 158.521 144.499 157.993C144.499 157.46 144.065 157.038 143.538 157.038C143.011 157.038 142.571 157.46 142.571 157.993C142.571 158.521 143.011 158.943 143.538 158.943ZM142.677 166.384H144.388V159.933H142.677V166.384ZM146.608 166.384H148.319V161.222H149.649V159.933H148.284V159.447C148.284 158.884 148.53 158.573 149.192 158.573C149.415 158.573 149.597 158.591 149.702 158.609V157.466C149.456 157.431 149.169 157.402 148.823 157.402C147.265 157.402 146.608 158.046 146.608 159.329V159.933H145.565V161.222H146.608V166.384ZM151.776 168.657C153.37 168.657 154.22 168.083 154.794 166.378L156.991 159.933H155.187L153.833 164.82H153.716L152.362 159.933H150.481L152.749 166.384L152.69 166.63C152.567 167.134 152.216 167.368 151.606 167.368C151.448 167.368 151.278 167.363 151.161 167.351V168.64C151.36 168.652 151.577 168.657 151.776 168.657ZM161.444 166.384H163.021V160.63H163.138L165.306 166.384H166.413L168.581 160.63H168.698V166.384H170.274V157.929H168.247L165.915 164.116H165.81L163.472 157.929H161.444V166.384ZM174.997 166.519C176.884 166.519 177.716 165.429 177.915 164.62L177.927 164.562H176.333L176.315 164.597C176.198 164.843 175.782 165.241 175.032 165.241C174.124 165.241 173.556 164.626 173.538 163.566H177.979V163.032C177.979 161.081 176.808 159.792 174.927 159.792C173.046 159.792 171.845 161.111 171.845 163.161V163.167C171.845 165.236 173.034 166.519 174.997 166.519ZM174.956 161.075C175.7 161.075 176.233 161.556 176.339 162.493H173.556C173.661 161.579 174.212 161.075 174.956 161.075Z" fill="#0379FF"/>
<path opacity="0.9" d="M68.8047 125H70.4268V117.25H68.8101L66.8066 118.63V120.139L68.708 118.829H68.8047V125ZM73.4077 125.145C73.9878 125.145 74.3584 124.753 74.3584 124.21C74.3584 123.668 73.9878 123.281 73.4077 123.281C72.833 123.281 72.457 123.668 72.457 124.21C72.457 124.753 72.833 125.145 73.4077 125.145ZM78.6714 125.199C80.5352 125.199 81.8081 124.275 81.8081 122.916C81.8081 121.928 81.126 121.144 80.0947 120.95V120.854C80.9434 120.655 81.4912 119.994 81.4912 119.167C81.4912 117.932 80.3203 117.051 78.6768 117.051C77.0278 117.051 75.8569 117.932 75.8569 119.167C75.8569 119.989 76.4102 120.66 77.2534 120.854V120.95C76.2168 121.181 75.5454 121.96 75.5454 122.932C75.5454 124.28 76.8076 125.199 78.6714 125.199ZM78.6714 123.974C77.8228 123.974 77.2319 123.485 77.2319 122.782C77.2319 122.073 77.8228 121.584 78.6714 121.584C79.5254 121.584 80.1162 122.073 80.1162 122.782C80.1162 123.485 79.5254 123.974 78.6714 123.974ZM78.6714 120.386C77.957 120.386 77.4575 119.946 77.4575 119.323C77.4575 118.694 77.9517 118.254 78.6714 118.254C79.3911 118.254 79.8906 118.694 79.8906 119.323C79.8906 119.946 79.3911 120.386 78.6714 120.386ZM85.1704 121.638H86.1318C87.002 121.638 87.5337 122.057 87.5337 122.733C87.5337 123.394 86.9697 123.851 86.1587 123.851C85.3262 123.851 84.7729 123.437 84.7246 122.782H83.1724C83.2422 124.243 84.4131 125.199 86.1426 125.199C87.9097 125.199 89.188 124.216 89.188 122.857C89.188 121.836 88.522 121.127 87.4585 121.009V120.913C88.3232 120.735 88.8872 120.037 88.8872 119.14C88.8872 117.921 87.7432 117.051 86.1533 117.051C84.4614 117.051 83.3711 117.975 83.3174 119.441H84.8159C84.8589 118.77 85.3584 118.345 86.1104 118.345C86.8677 118.345 87.3511 118.743 87.3511 119.366C87.3511 120 86.8516 120.429 86.1157 120.429H85.1704V121.638Z" fill="#0379FF"/>
<rect x="149.5" y="84.6124" width="68.7618" height="49.0461" rx="4" fill="#3F3C3C"/>
<path d="M170.25 104.583H173.303C175.822 104.583 177.281 103.024 177.281 100.341V100.329C177.281 97.6748 175.811 96.1279 173.303 96.1279H170.25V104.583ZM171.562 103.452V97.2588H173.156C174.908 97.2588 175.945 98.4014 175.945 100.347V100.358C175.945 102.321 174.926 103.452 173.156 103.452H171.562ZM178.916 104.583H180.188V100.78C180.188 99.8604 180.85 99.2627 181.822 99.2627C182.062 99.2627 182.279 99.292 182.508 99.3389V98.167C182.379 98.1377 182.156 98.1084 181.951 98.1084C181.102 98.1084 180.51 98.5068 180.281 99.1807H180.188V98.2197H178.916V104.583ZM185.42 104.688C186.264 104.688 186.932 104.325 187.307 103.681H187.406V104.583H188.666V100.229C188.666 98.8936 187.764 98.0967 186.164 98.0967C184.717 98.0967 183.715 98.7939 183.562 99.8369L183.557 99.8779H184.781L184.787 99.8545C184.939 99.4033 185.402 99.1455 186.105 99.1455C186.967 99.1455 187.406 99.5322 187.406 100.229V100.792L185.684 100.892C184.166 100.985 183.311 101.647 183.311 102.784V102.796C183.311 103.95 184.207 104.688 185.42 104.688ZM184.576 102.743V102.731C184.576 102.157 184.975 101.841 185.854 101.788L187.406 101.688V102.233C187.406 103.054 186.709 103.675 185.76 103.675C185.074 103.675 184.576 103.329 184.576 102.743ZM191.414 104.583H192.709L194.021 99.8369H194.121L195.439 104.583H196.746L198.498 98.2197H197.238L196.102 103.13H196.002L194.689 98.2197H193.482L192.17 103.13H192.076L190.934 98.2197H189.656L191.414 104.583Z" fill="white"/>
<path opacity="0.9" d="M175.814 125H177.502V123.523H178.609V122.053H177.502V116.545H175.023C173.541 118.777 172.439 120.523 171.678 121.959V123.523H175.814V125ZM173.266 122.012C174.232 120.26 174.988 119.076 175.762 117.922H175.855V122.105H173.266V122.012ZM181.146 125.158C181.779 125.158 182.184 124.73 182.184 124.139C182.184 123.547 181.779 123.125 181.146 123.125C180.52 123.125 180.109 123.547 180.109 124.139C180.109 124.73 180.52 125.158 181.146 125.158ZM185.512 125H187.281V116.545H185.518L183.332 118.051V119.697L185.406 118.268H185.512V125ZM192.883 125.217C194.975 125.217 196.24 123.559 196.24 120.764C196.24 117.957 194.957 116.328 192.883 116.328C190.803 116.328 189.525 117.957 189.525 120.758C189.525 123.564 190.791 125.217 192.883 125.217ZM192.883 123.775C191.916 123.775 191.318 122.732 191.318 120.758C191.318 118.795 191.922 117.775 192.883 117.775C193.85 117.775 194.447 118.789 194.447 120.758C194.447 122.738 193.855 123.775 192.883 123.775Z" fill="#0379FF"/>
<rect x="225.345" y="84.7747" width="89.0482" height="49.0461" rx="4" fill="#3F3C3C"/>
<path d="M237.523 104.745H238.801V98.6047H238.895L243.236 104.745H244.42V96.2902H243.143V102.443H243.055L238.707 96.2902H237.523V104.745ZM249.096 104.868C250.959 104.868 252.102 103.62 252.102 101.57V101.558C252.102 99.507 250.953 98.259 249.096 98.259C247.232 98.259 246.084 99.5129 246.084 101.558V101.57C246.084 103.62 247.227 104.868 249.096 104.868ZM249.096 103.808C248 103.808 247.385 102.982 247.385 101.57V101.558C247.385 100.146 248 99.3195 249.096 99.3195C250.186 99.3195 250.807 100.146 250.807 101.558V101.57C250.807 102.976 250.186 103.808 249.096 103.808ZM256.021 104.786C256.268 104.786 256.502 104.757 256.707 104.722V103.708C256.531 103.726 256.42 103.732 256.227 103.732C255.6 103.732 255.342 103.45 255.342 102.765V99.384H256.707V98.382H255.342V96.7766H254.047V98.382H253.051V99.384H254.047V103.07C254.047 104.294 254.621 104.786 256.021 104.786ZM260.615 104.786C260.861 104.786 261.096 104.757 261.301 104.722V103.708C261.125 103.726 261.014 103.732 260.82 103.732C260.193 103.732 259.936 103.45 259.936 102.765V99.384H261.301V98.382H259.936V96.7766H258.641V98.382H257.645V99.384H258.641V103.07C258.641 104.294 259.215 104.786 260.615 104.786ZM263.445 97.2453C263.879 97.2453 264.242 96.8879 264.242 96.4543C264.242 96.0148 263.879 95.6574 263.445 95.6574C263.006 95.6574 262.648 96.0148 262.648 96.4543C262.648 96.8879 263.006 97.2453 263.445 97.2453ZM262.807 104.745H264.072V98.382H262.807V104.745ZM265.924 104.745H267.195V101.013C267.195 99.9875 267.775 99.3488 268.707 99.3488C269.639 99.3488 270.078 99.8703 270.078 100.925V104.745H271.344V100.626C271.344 99.1086 270.559 98.259 269.135 98.259C268.209 98.259 267.6 98.6691 267.289 99.3488H267.195V98.382H265.924V104.745ZM275.809 106.989C277.613 106.989 278.756 106.064 278.756 104.616V98.382H277.49V99.425H277.414C277.045 98.7101 276.354 98.2707 275.463 98.2707C273.811 98.2707 272.797 99.5539 272.797 101.37V101.382C272.797 103.175 273.805 104.435 275.439 104.435C276.312 104.435 277.016 104.048 277.402 103.357H277.496V104.611C277.496 105.478 276.875 105.97 275.826 105.97C274.965 105.97 274.449 105.659 274.344 105.22L274.338 105.208H273.055L273.043 105.22C273.195 106.28 274.191 106.989 275.809 106.989ZM275.791 103.386C274.707 103.386 274.098 102.56 274.098 101.376V101.364C274.098 100.181 274.707 99.3488 275.791 99.3488C276.863 99.3488 277.52 100.181 277.52 101.364V101.376C277.52 102.566 276.869 103.386 275.791 103.386ZM280.643 104.745H281.914V101.013C281.914 99.9875 282.494 99.3488 283.426 99.3488C284.357 99.3488 284.797 99.8703 284.797 100.925V104.745H286.062V100.626C286.062 99.1086 285.277 98.259 283.854 98.259C282.928 98.259 282.318 98.6691 282.008 99.3488H281.914V95.8859H280.643V104.745ZM289.584 104.851C290.428 104.851 291.096 104.487 291.471 103.843H291.57V104.745H292.83V100.392C292.83 99.0558 291.928 98.259 290.328 98.259C288.881 98.259 287.879 98.9562 287.727 99.9992L287.721 100.04H288.945L288.951 100.017C289.104 99.5656 289.566 99.3078 290.27 99.3078C291.131 99.3078 291.57 99.6945 291.57 100.392V100.954L289.848 101.054C288.33 101.148 287.475 101.81 287.475 102.946V102.958C287.475 104.112 288.371 104.851 289.584 104.851ZM288.74 102.905V102.894C288.74 102.32 289.139 102.003 290.018 101.95L291.57 101.851V102.396C291.57 103.216 290.873 103.837 289.924 103.837C289.238 103.837 288.74 103.491 288.74 102.905ZM294.623 104.745H295.895V100.837C295.895 100.005 296.463 99.3488 297.23 99.3488C297.98 99.3488 298.455 99.8058 298.455 100.532V104.745H299.721V100.72C299.721 99.9523 300.254 99.3488 301.062 99.3488C301.895 99.3488 302.293 99.7824 302.293 100.661V104.745H303.559V100.357C303.559 99.0324 302.809 98.259 301.525 98.259C300.641 98.259 299.908 98.7101 299.586 99.3957H299.486C299.205 98.7101 298.59 98.259 297.723 98.259C296.891 98.259 296.27 98.6633 295.988 99.3605H295.895V98.382H294.623V104.745Z" fill="white"/>
<rect x="14.1396" y="147.04" width="298.344" height="32.2415" rx="3.65" stroke="#0379FF" stroke-width="0.7"/>
<defs>
<clipPath id="clip0_73_191">
<rect width="13" height="14" fill="white" transform="translate(190 155)"/>
</clipPath>
</defs>
</svg>
