<svg width="70" height="17" viewBox="0 0 70 17" fill="none" xmlns="http://www.w3.org/2000/svg">
<path d="M0.879883 13.5433H9.42285V11.8646H3.56055V11.6888L6.25 9.00818C8.55273 6.72302 9.2207 5.6156 9.2207 4.17419V4.14783C9.2207 2.05603 7.48047 0.553101 5.11621 0.553101C2.56738 0.553101 0.774414 2.18787 0.765625 4.50818L0.783203 4.52576H2.62891L2.6377 4.49939C2.6377 3.11072 3.58691 2.17908 5.01074 2.17908C6.39941 2.17908 7.25195 3.09314 7.25195 4.3324V4.35876C7.25195 5.38708 6.76855 6.03748 5.08984 7.7865L0.879883 12.2074V13.5433ZM12.0947 13.5433H14.002V7.9447C14.002 6.40662 14.8721 5.44861 16.2695 5.44861C17.667 5.44861 18.3262 6.23083 18.3262 7.81287V13.5433H20.2246V7.36462C20.2246 5.08826 19.0469 3.81384 16.9111 3.81384C15.5225 3.81384 14.6084 4.42908 14.1426 5.44861H14.002V0.254272H12.0947V13.5433ZM30.4287 13.7015C31.6943 13.7015 32.6963 13.1566 33.2588 12.1898H33.4082V13.5433H35.2979V7.01306C35.2979 5.00916 33.9443 3.81384 31.5449 3.81384C29.374 3.81384 27.8711 4.85974 27.6426 6.42419L27.6338 6.48572H29.4707L29.4795 6.45056C29.708 5.7738 30.4023 5.38708 31.457 5.38708C32.749 5.38708 33.4082 5.96716 33.4082 7.01306V7.85681L30.8242 8.00623C28.5479 8.14685 27.2646 9.14001 27.2646 10.8451V10.8627C27.2646 12.5941 28.6094 13.7015 30.4287 13.7015ZM29.1631 10.7836V10.766C29.1631 9.90466 29.7607 9.43005 31.0791 9.35095L33.4082 9.20154V10.0189C33.4082 11.2494 32.3623 12.181 30.9385 12.181C29.9102 12.181 29.1631 11.6625 29.1631 10.7836ZM42.0215 16.9095C44.7285 16.9095 46.4424 15.5209 46.4424 13.35V3.99841H44.5439V5.56287H44.4297C43.876 4.4906 42.8389 3.83142 41.5029 3.83142C39.0244 3.83142 37.5039 5.75623 37.5039 8.48083V8.49841C37.5039 11.1879 39.0156 13.0775 41.4678 13.0775C42.7773 13.0775 43.832 12.4974 44.4121 11.4603H44.5527V13.3412C44.5527 14.642 43.6211 15.3802 42.0479 15.3802C40.7559 15.3802 39.9824 14.9144 39.8242 14.2552L39.8154 14.2377H37.8906L37.873 14.2552C38.1016 15.8461 39.5957 16.9095 42.0215 16.9095ZM41.9951 11.5043C40.3691 11.5043 39.4551 10.265 39.4551 8.48962V8.47205C39.4551 6.69666 40.3691 5.44861 41.9951 5.44861C43.6035 5.44861 44.5879 6.69666 44.5879 8.47205V8.48962C44.5879 10.2738 43.6123 11.5043 41.9951 11.5043ZM53.2275 13.7279C56.0225 13.7279 57.7363 11.8558 57.7363 8.77966V8.76208C57.7363 5.68591 56.0137 3.81384 53.2275 3.81384C50.4326 3.81384 48.71 5.6947 48.71 8.76208V8.77966C48.71 11.8558 50.4238 13.7279 53.2275 13.7279ZM53.2275 12.1371C51.584 12.1371 50.6611 10.8978 50.6611 8.77966V8.76208C50.6611 6.64392 51.584 5.40466 53.2275 5.40466C54.8623 5.40466 55.7939 6.64392 55.7939 8.76208V8.77966C55.7939 10.889 54.8623 12.1371 53.2275 12.1371ZM69.8389 8.41931C69.8389 7.32068 68.9688 6.44177 67.8613 6.44177H67.8438C66.7363 6.44177 65.8574 7.32068 65.8574 8.41931V8.43689C65.8574 9.54431 66.7363 10.4232 67.8438 10.4232H67.8613C68.9688 10.4232 69.8389 9.54431 69.8389 8.43689V8.41931Z" fill="#888888"/>
</svg>
