<svg xmlns="http://www.w3.org/2000/svg" xmlns:xlink="http://www.w3.org/1999/xlink" width="500" zoomAndPan="magnify" viewBox="0 0 375 374.999991" height="500" preserveAspectRatio="xMidYMid meet" version="1.0"><defs><clipPath id="7d0f60a5f4"><path d="M 59.78125 59.78125 L 315.53125 59.78125 L 315.53125 315.53125 L 59.78125 315.53125 Z M 59.78125 59.78125 " clip-rule="nonzero"/></clipPath></defs><g clip-path="url(#7d0f60a5f4)"><path fill="#09cb6e" d="M 315.53125 187.65625 C 315.53125 189.746094 315.476562 191.839844 315.375 193.929688 C 315.273438 196.019531 315.117188 198.105469 314.914062 200.1875 C 314.707031 202.269531 314.453125 204.347656 314.144531 206.417969 C 313.839844 208.488281 313.480469 210.550781 313.070312 212.601562 C 312.664062 214.652344 312.207031 216.695312 311.695312 218.726562 C 311.1875 220.753906 310.628906 222.773438 310.023438 224.773438 C 309.414062 226.777344 308.757812 228.765625 308.054688 230.734375 C 307.347656 232.703125 306.597656 234.65625 305.796875 236.589844 C 304.996094 238.523438 304.148438 240.4375 303.253906 242.328125 C 302.355469 244.21875 301.417969 246.089844 300.429688 247.933594 C 299.445312 249.78125 298.414062 251.601562 297.335938 253.394531 C 296.261719 255.191406 295.140625 256.957031 293.980469 258.699219 C 292.816406 260.4375 291.609375 262.148438 290.363281 263.828125 C 289.117188 265.511719 287.832031 267.160156 286.503906 268.777344 C 285.175781 270.394531 283.808594 271.980469 282.402344 273.53125 C 281 275.082031 279.554688 276.597656 278.074219 278.074219 C 276.597656 279.554688 275.082031 281 273.53125 282.402344 C 271.980469 283.808594 270.394531 285.175781 268.777344 286.503906 C 267.160156 287.832031 265.511719 289.117188 263.828125 290.363281 C 262.148438 291.609375 260.4375 292.816406 258.699219 293.980469 C 256.957031 295.140625 255.191406 296.261719 253.394531 297.335938 C 251.601562 298.414062 249.78125 299.445312 247.933594 300.429688 C 246.089844 301.417969 244.21875 302.355469 242.328125 303.253906 C 240.4375 304.148438 238.523438 304.996094 236.589844 305.796875 C 234.65625 306.597656 232.703125 307.347656 230.734375 308.054688 C 228.765625 308.757812 226.777344 309.414062 224.773438 310.023438 C 222.773438 310.628906 220.753906 311.1875 218.726562 311.695312 C 216.695312 312.207031 214.652344 312.664062 212.601562 313.070312 C 210.550781 313.480469 208.488281 313.839844 206.417969 314.144531 C 204.347656 314.453125 202.269531 314.707031 200.1875 314.914062 C 198.105469 315.117188 196.019531 315.273438 193.929688 315.375 C 191.839844 315.476562 189.746094 315.53125 187.65625 315.53125 C 185.5625 315.53125 183.46875 315.476562 181.378906 315.375 C 179.289062 315.273438 177.203125 315.117188 175.121094 314.914062 C 173.039062 314.707031 170.960938 314.453125 168.890625 314.144531 C 166.820312 313.839844 164.757812 313.480469 162.707031 313.070312 C 160.65625 312.664062 158.613281 312.207031 156.582031 311.695312 C 154.554688 311.1875 152.535156 310.628906 150.535156 310.023438 C 148.53125 309.414062 146.546875 308.757812 144.574219 308.054688 C 142.605469 307.347656 140.652344 306.597656 138.71875 305.796875 C 136.785156 304.996094 134.871094 304.148438 132.980469 303.253906 C 131.089844 302.355469 129.21875 301.417969 127.375 300.429688 C 125.527344 299.445312 123.707031 298.414062 121.914062 297.335938 C 120.117188 296.261719 118.351562 295.140625 116.609375 293.980469 C 114.871094 292.816406 113.160156 291.609375 111.480469 290.363281 C 109.796875 289.117188 108.148438 287.832031 106.53125 286.503906 C 104.914062 285.175781 103.328125 283.808594 101.777344 282.402344 C 100.226562 281 98.714844 279.554688 97.234375 278.074219 C 95.753906 276.597656 94.3125 275.082031 92.90625 273.53125 C 91.5 271.980469 90.132812 270.394531 88.804688 268.777344 C 87.476562 267.160156 86.191406 265.511719 84.945312 263.828125 C 83.699219 262.148438 82.492188 260.4375 81.332031 258.699219 C 80.167969 256.957031 79.046875 255.191406 77.972656 253.394531 C 76.894531 251.601562 75.867188 249.78125 74.878906 247.933594 C 73.890625 246.089844 72.953125 244.21875 72.058594 242.328125 C 71.160156 240.4375 70.3125 238.523438 69.511719 236.589844 C 68.710938 234.65625 67.960938 232.703125 67.253906 230.734375 C 66.550781 228.765625 65.894531 226.777344 65.285156 224.773438 C 64.679688 222.773438 64.121094 220.753906 63.613281 218.726562 C 63.101562 216.695312 62.644531 214.652344 62.238281 212.601562 C 61.828125 210.550781 61.46875 208.488281 61.164062 206.417969 C 60.855469 204.347656 60.601562 202.269531 60.394531 200.1875 C 60.191406 198.105469 60.035156 196.019531 59.933594 193.929688 C 59.832031 191.839844 59.78125 189.746094 59.78125 187.65625 C 59.78125 185.5625 59.832031 183.46875 59.933594 181.378906 C 60.035156 179.289062 60.191406 177.203125 60.394531 175.121094 C 60.601562 173.039062 60.855469 170.960938 61.164062 168.890625 C 61.46875 166.820312 61.828125 164.757812 62.238281 162.707031 C 62.644531 160.65625 63.101562 158.613281 63.613281 156.582031 C 64.121094 154.554688 64.679688 152.535156 65.285156 150.535156 C 65.894531 148.53125 66.550781 146.546875 67.253906 144.574219 C 67.960938 142.605469 68.710938 140.652344 69.511719 138.71875 C 70.3125 136.785156 71.160156 134.871094 72.058594 132.980469 C 72.953125 131.089844 73.890625 129.21875 74.878906 127.375 C 75.867188 125.527344 76.894531 123.707031 77.972656 121.914062 C 79.046875 120.117188 80.167969 118.351562 81.332031 116.609375 C 82.492188 114.871094 83.699219 113.160156 84.945312 111.480469 C 86.191406 109.796875 87.476562 108.148438 88.804688 106.53125 C 90.132812 104.914062 91.5 103.328125 92.90625 101.777344 C 94.3125 100.226562 95.753906 98.714844 97.234375 97.234375 C 98.714844 95.753906 100.226562 94.3125 101.777344 92.90625 C 103.328125 91.5 104.914062 90.132812 106.53125 88.804688 C 108.148438 87.476562 109.796875 86.191406 111.480469 84.945312 C 113.160156 83.699219 114.871094 82.492188 116.609375 81.332031 C 118.351562 80.167969 120.117188 79.046875 121.914062 77.972656 C 123.707031 76.894531 125.527344 75.867188 127.375 74.878906 C 129.21875 73.890625 131.089844 72.953125 132.980469 72.058594 C 134.871094 71.160156 136.785156 70.3125 138.71875 69.511719 C 140.652344 68.710938 142.605469 67.960938 144.574219 67.253906 C 146.546875 66.550781 148.53125 65.894531 150.535156 65.285156 C 152.535156 64.679688 154.554688 64.121094 156.582031 63.613281 C 158.613281 63.101562 160.65625 62.644531 162.707031 62.238281 C 164.757812 61.828125 166.820312 61.46875 168.890625 61.164062 C 170.960938 60.855469 173.039062 60.601562 175.121094 60.394531 C 177.203125 60.191406 179.289062 60.035156 181.378906 59.933594 C 183.46875 59.832031 185.5625 59.78125 187.65625 59.78125 C 189.746094 59.78125 191.839844 59.832031 193.929688 59.933594 C 196.019531 60.035156 198.105469 60.191406 200.1875 60.394531 C 202.269531 60.601562 204.347656 60.855469 206.417969 61.164062 C 208.488281 61.46875 210.550781 61.828125 212.601562 62.238281 C 214.652344 62.644531 216.695312 63.101562 218.726562 63.613281 C 220.753906 64.121094 222.773438 64.679688 224.773438 65.285156 C 226.777344 65.894531 228.765625 66.550781 230.734375 67.253906 C 232.703125 67.960938 234.65625 68.710938 236.589844 69.511719 C 238.523438 70.3125 240.4375 71.160156 242.328125 72.058594 C 244.21875 72.953125 246.089844 73.890625 247.933594 74.878906 C 249.78125 75.867188 251.601562 76.894531 253.394531 77.972656 C 255.191406 79.046875 256.957031 80.167969 258.699219 81.332031 C 260.4375 82.492188 262.148438 83.699219 263.828125 84.945312 C 265.511719 86.191406 267.160156 87.476562 268.777344 88.804688 C 270.394531 90.132812 271.980469 91.5 273.53125 92.90625 C 275.082031 94.3125 276.597656 95.753906 278.074219 97.234375 C 279.554688 98.714844 281 100.226562 282.402344 101.777344 C 283.808594 103.328125 285.175781 104.914062 286.503906 106.53125 C 287.832031 108.148438 289.117188 109.796875 290.363281 111.480469 C 291.609375 113.160156 292.816406 114.871094 293.980469 116.609375 C 295.140625 118.351562 296.261719 120.117188 297.335938 121.914062 C 298.414062 123.707031 299.445312 125.527344 300.429688 127.375 C 301.417969 129.21875 302.355469 131.089844 303.253906 132.980469 C 304.148438 134.871094 304.996094 136.785156 305.796875 138.71875 C 306.597656 140.652344 307.347656 142.605469 308.054688 144.574219 C 308.757812 146.546875 309.414062 148.53125 310.023438 150.535156 C 310.628906 152.535156 311.1875 154.554688 311.695312 156.582031 C 312.207031 158.613281 312.664062 160.65625 313.074219 162.707031 C 313.480469 164.757812 313.839844 166.820312 314.144531 168.890625 C 314.453125 170.960938 314.707031 173.039062 314.914062 175.121094 C 315.117188 177.203125 315.273438 179.289062 315.375 181.378906 C 315.476562 183.46875 315.53125 185.5625 315.53125 187.65625 Z M 315.53125 187.65625 " fill-opacity="1" fill-rule="nonzero"/></g></svg>