<svg width="331" height="43" viewBox="0 0 331 43" fill="none" xmlns="http://www.w3.org/2000/svg">
<path d="M99.3749 26.3934C101.976 26.3934 103.844 24.8856 104.141 22.6278V22.5731H102.164L102.156 22.6122C101.867 23.8544 100.805 24.6512 99.3749 24.6512C97.453 24.6512 96.2577 23.0497 96.2577 20.4794V20.4637C96.2577 17.9012 97.453 16.2997 99.3671 16.2997C100.789 16.2997 101.867 17.1825 102.156 18.5184L102.164 18.5497H104.141V18.4872C103.875 16.1825 101.93 14.5575 99.3671 14.5575C96.1718 14.5575 94.1952 16.8153 94.1952 20.4716V20.4872C94.1952 24.1278 96.1796 26.3934 99.3749 26.3934ZM106.266 26.1122H108.211V21.1356C108.211 19.8544 108.93 19.0419 110.086 19.0419C111.266 19.0419 111.805 19.7137 111.805 21.0419V26.1122H113.75V20.5887C113.75 18.5575 112.711 17.4091 110.805 17.4091C109.57 17.4091 108.75 17.9637 108.344 18.8778H108.211V14.2684H106.266V26.1122ZM119.734 26.2841C122.289 26.2841 123.844 24.6122 123.844 21.8466V21.8309C123.844 19.0809 122.281 17.4091 119.734 17.4091C117.195 17.4091 115.625 19.0887 115.625 21.8309V21.8466C115.625 24.6122 117.172 26.2841 119.734 26.2841ZM119.734 24.7059C118.383 24.7059 117.609 23.6512 117.609 21.8544V21.8387C117.609 20.0419 118.383 18.9794 119.734 18.9794C121.078 18.9794 121.851 20.0419 121.851 21.8387V21.8544C121.851 23.6512 121.086 24.7059 119.734 24.7059ZM129.484 26.2841C132.039 26.2841 133.594 24.6122 133.594 21.8466V21.8309C133.594 19.0809 132.031 17.4091 129.484 17.4091C126.945 17.4091 125.375 19.0887 125.375 21.8309V21.8466C125.375 24.6122 126.922 26.2841 129.484 26.2841ZM129.484 24.7059C128.133 24.7059 127.359 23.6512 127.359 21.8544V21.8387C127.359 20.0419 128.133 18.9794 129.484 18.9794C130.828 18.9794 131.601 20.0419 131.601 21.8387V21.8544C131.601 23.6512 130.836 24.7059 129.484 24.7059ZM138.773 26.2841C140.875 26.2841 142.398 25.1981 142.398 23.5731V23.5575C142.398 22.3153 141.609 21.6044 139.937 21.2294L138.555 20.9247C137.633 20.7137 137.273 20.4091 137.273 19.9091V19.9012C137.273 19.2606 137.898 18.8387 138.766 18.8387C139.68 18.8387 140.242 19.2762 140.383 19.8153L140.391 19.8387H142.219V19.8231C142.094 18.4403 140.851 17.4091 138.773 17.4091C136.758 17.4091 135.351 18.4716 135.351 20.0106V20.0184C135.351 21.2762 136.125 22.0419 137.75 22.4012L139.133 22.7137C140.07 22.9247 140.445 23.2528 140.445 23.7528V23.7684C140.445 24.4091 139.773 24.8466 138.805 24.8466C137.836 24.8466 137.266 24.4325 137.062 23.8387L137.055 23.8231H135.125V23.8387C135.289 25.2841 136.601 26.2841 138.773 26.2841ZM148.016 26.2841C150.336 26.2841 151.476 24.9481 151.75 23.8466L151.773 23.7762H149.922L149.898 23.8309C149.711 24.2216 149.109 24.7528 148.055 24.7528C146.734 24.7528 145.906 23.8622 145.883 22.3309H151.851V21.6903C151.851 19.1122 150.351 17.4091 147.922 17.4091C145.492 17.4091 143.937 19.1669 143.937 21.8544V21.8622C143.937 24.5809 145.476 26.2841 148.016 26.2841ZM147.945 18.9325C149.031 18.9325 149.82 19.6278 149.953 21.0262H145.898C146.047 19.6669 146.859 18.9325 147.945 18.9325ZM158.976 29.1122C160.867 29.1122 161.844 28.4325 162.578 26.2919L165.641 17.5731H163.594L161.609 24.245H161.461L159.469 17.5731H157.344L160.398 26.12L160.297 26.5106C160.086 27.2841 159.609 27.6122 158.812 27.6122C158.609 27.6122 158.391 27.6044 158.234 27.5887V29.0809C158.469 29.1044 158.742 29.1122 158.976 29.1122ZM170.656 26.2841C173.211 26.2841 174.766 24.6122 174.766 21.8466V21.8309C174.766 19.0809 173.203 17.4091 170.656 17.4091C168.117 17.4091 166.547 19.0887 166.547 21.8309V21.8466C166.547 24.6122 168.094 26.2841 170.656 26.2841ZM170.656 24.7059C169.305 24.7059 168.531 23.6512 168.531 21.8544V21.8387C168.531 20.0419 169.305 18.9794 170.656 18.9794C172 18.9794 172.773 20.0419 172.773 21.8387V21.8544C172.773 23.6512 172.008 24.7059 170.656 24.7059ZM179.547 26.2841C180.781 26.2841 181.648 25.7294 182.047 24.8153H182.18V26.1122H184.125V17.5731H182.18V22.5497C182.18 23.8309 181.508 24.6434 180.25 24.6434C179.078 24.6434 178.586 23.9716 178.586 22.6512V17.5731H176.641V23.0966C176.641 25.1278 177.625 26.2841 179.547 26.2841ZM186.5 26.1122H188.445V21.1512C188.445 19.9325 189.297 19.1591 190.594 19.1591C190.93 19.1591 191.25 19.2059 191.562 19.2684V17.5262C191.375 17.4716 191.07 17.4325 190.773 17.4325C189.648 17.4325 188.867 17.9716 188.578 18.8856H188.445V17.5731H186.5V26.1122ZM197.422 28.9481H199.367V24.7528H199.5C199.945 25.6747 200.922 26.2528 202.094 26.2528C204.258 26.2528 205.601 24.5731 205.601 21.8544V21.8387C205.601 19.1356 204.234 17.4325 202.094 17.4325C200.898 17.4325 199.969 17.9794 199.5 18.9091H199.367V17.5731H197.422V28.9481ZM201.484 24.6122C200.164 24.6122 199.344 23.5575 199.344 21.8466V21.8309C199.344 20.12 200.164 19.0731 201.484 19.0731C202.812 19.0731 203.617 20.12 203.617 21.8387V21.8544C203.617 23.5653 202.812 24.6122 201.484 24.6122ZM208.562 16.1434C209.195 16.1434 209.719 15.6356 209.719 14.995C209.719 14.3622 209.195 13.8466 208.562 13.8466C207.922 13.8466 207.398 14.3622 207.398 14.995C207.398 15.6356 207.922 16.1434 208.562 16.1434ZM207.586 26.1122H209.531V17.5731H207.586V26.1122ZM215.586 26.2841C217.75 26.2841 219.008 25.12 219.289 23.37L219.305 23.3075L217.469 23.3153L217.453 23.3466C217.211 24.245 216.594 24.7059 215.586 24.7059C214.266 24.7059 213.476 23.6434 213.476 21.8309V21.8153C213.476 20.0262 214.258 18.9794 215.586 18.9794C216.648 18.9794 217.281 19.5731 217.461 20.4012L217.469 20.4247H219.305V20.3934C219.086 18.6278 217.773 17.4091 215.578 17.4091C213.008 17.4091 211.5 19.0575 211.5 21.8153V21.8309C211.5 24.62 213.016 26.2841 215.586 26.2841ZM221.234 26.1122H223.18V23.1122L223.859 22.4169L226.601 26.1122H228.945L225.273 21.1825L228.711 17.5731H226.461L223.312 21.0731H223.18V14.2684H221.234V26.1122ZM233.32 26.2841C235.422 26.2841 236.945 25.1981 236.945 23.5731V23.5575C236.945 22.3153 236.156 21.6044 234.484 21.2294L233.101 20.9247C232.18 20.7137 231.82 20.4091 231.82 19.9091V19.9012C231.82 19.2606 232.445 18.8387 233.312 18.8387C234.226 18.8387 234.789 19.2762 234.93 19.8153L234.937 19.8387H236.766V19.8231C236.641 18.4403 235.398 17.4091 233.32 17.4091C231.305 17.4091 229.898 18.4716 229.898 20.0106V20.0184C229.898 21.2762 230.672 22.0419 232.297 22.4012L233.68 22.7137C234.617 22.9247 234.992 23.2528 234.992 23.7528V23.7684C234.992 24.4091 234.32 24.8466 233.351 24.8466C232.383 24.8466 231.812 24.4325 231.609 23.8387L231.601 23.8231H229.672V23.8387C229.836 25.2841 231.148 26.2841 233.32 26.2841Z" fill="#0379FF"/>
<rect x="0.825586" y="1.29421" width="329.349" height="41.1692" rx="3.65" stroke="#0379FF" stroke-width="0.7"/>
</svg>
