<svg xmlns="http://www.w3.org/2000/svg" xmlns:xlink="http://www.w3.org/1999/xlink" width="6912" zoomAndPan="magnify" viewBox="0 0 5184 2592.000001" height="3456" preserveAspectRatio="xMidYMid meet" version="1.0"><defs><g/></defs><g fill="#ffffff" fill-opacity="1"><g transform="translate(297.155734, 1959.369118)"><g><path d="M 1250.28125 -1210.976562 L 473.203125 -1210.976562 L 229.796875 -514.023438 L 571.472656 -514.023438 C 612.289062 -559.375 669.742188 -582.054688 722.65625 -580.542969 C 790.6875 -579.03125 849.648438 -532.164062 849.648438 -455.0625 C 849.648438 -341.671875 761.960938 -244.917969 639.503906 -244.917969 C 557.863281 -244.917969 521.582031 -297.832031 511 -352.257812 L 146.648438 -320.507812 C 170.835938 -102.804688 284.222656 25.699219 601.707031 25.699219 C 952.453125 25.699219 1209.464844 -182.929688 1209.464844 -489.832031 C 1209.464844 -710.558594 1035.601562 -810.339844 852.671875 -810.339844 C 764.984375 -810.339844 675.789062 -786.152344 601.707031 -743.820312 L 674.277344 -925.238281 L 1198.878906 -925.238281 Z M 1250.28125 -1210.976562 "/></g></g></g><g fill="#ffffff" fill-opacity="1"><g transform="translate(1722.226962, 1560.897837)"><g><path d="M 85.65625 0 L 85.65625 -341.90625 L 20.140625 -341.90625 L 20.140625 -394.625 L 85.65625 -394.625 L 85.65625 -438.546875 C 85.65625 -516.148438 123.847656 -554.953125 200.234375 -554.953125 C 216.097656 -554.953125 230.253906 -553.734375 242.703125 -551.296875 L 242.703125 -500.046875 C 236.359375 -501.265625 226.472656 -501.875 213.046875 -501.875 C 190.597656 -501.875 174.25 -496.503906 164 -485.765625 C 153.75 -475.023438 148.625 -458.675781 148.625 -436.71875 L 148.625 -394.625 L 239.046875 -394.625 L 239.046875 -341.90625 L 148.625 -341.90625 L 148.625 0 Z M 85.65625 0 "/></g></g><g transform="translate(1993.484606, 1560.897837)"><g><path d="M 354.53125 -47.765625 C 321.957031 -11.285156 277.601562 6.953125 221.46875 6.953125 C 165.34375 6.953125 120.988281 -11.285156 88.40625 -47.765625 C 55.820312 -84.253906 39.53125 -134.101562 39.53125 -197.3125 C 39.53125 -260.757812 55.757812 -310.664062 88.21875 -347.03125 C 120.675781 -383.394531 165.09375 -401.578125 221.46875 -401.578125 C 277.84375 -401.578125 322.257812 -383.394531 354.71875 -347.03125 C 387.175781 -310.664062 403.40625 -260.757812 403.40625 -197.3125 C 403.40625 -134.101562 387.113281 -84.253906 354.53125 -47.765625 Z M 135.078125 -88.40625 C 155.335938 -62.65625 184.132812 -49.78125 221.46875 -49.78125 C 258.8125 -49.78125 287.609375 -62.65625 307.859375 -88.40625 C 328.117188 -114.15625 338.25 -150.457031 338.25 -197.3125 C 338.25 -244.164062 328.117188 -280.460938 307.859375 -306.203125 C 287.609375 -331.953125 258.8125 -344.828125 221.46875 -344.828125 C 184.132812 -344.828125 155.335938 -331.953125 135.078125 -306.203125 C 114.816406 -280.460938 104.6875 -244.164062 104.6875 -197.3125 C 104.6875 -150.457031 114.816406 -114.15625 135.078125 -88.40625 Z M 135.078125 -88.40625 "/></g></g><g transform="translate(2436.428932, 1560.897837)"><g><path d="M 59.296875 0 L 59.296875 -394.625 L 119.34375 -394.625 L 119.34375 -336.046875 L 125.1875 -336.046875 C 131.050781 -355.328125 144.234375 -371.066406 164.734375 -383.265625 C 185.234375 -395.472656 208.535156 -401.578125 234.640625 -401.578125 C 246.597656 -401.578125 257.09375 -400.96875 266.125 -399.75 L 266.125 -336.78125 C 257.582031 -339.21875 244.160156 -340.4375 225.859375 -340.4375 C 195.847656 -340.4375 171.078125 -331.40625 151.546875 -313.34375 C 132.023438 -295.289062 122.265625 -272.351562 122.265625 -244.53125 L 122.265625 0 Z M 59.296875 0 "/></g></g><g transform="translate(2721.963295, 1560.897837)"><g/></g><g transform="translate(2933.551575, 1560.897837)"><g><path d="M 267.953125 50.15625 L 218.90625 50.15625 L 218.90625 1.09375 C 169.363281 -2.5625 129.707031 -17.628906 99.9375 -44.109375 C 70.164062 -70.585938 55.15625 -104.082031 54.90625 -144.59375 L 117.5 -144.59375 C 119.457031 -120.1875 129.34375 -100.175781 147.15625 -84.5625 C 164.96875 -68.945312 188.882812 -59.304688 218.90625 -55.640625 L 218.90625 -246 L 189.625 -254.046875 C 150.332031 -264.546875 120.191406 -281.507812 99.203125 -304.9375 C 78.210938 -328.363281 67.71875 -356.914062 67.71875 -390.59375 C 67.71875 -430.375 81.257812 -463.132812 108.34375 -488.875 C 135.4375 -514.625 172.289062 -529.816406 218.90625 -534.453125 L 218.90625 -585.703125 L 267.953125 -585.703125 L 267.953125 -534.828125 C 313.347656 -530.921875 350.015625 -515.972656 377.953125 -489.984375 C 405.898438 -463.992188 420.484375 -431.109375 421.703125 -391.328125 L 359.484375 -391.328125 C 358.742188 -414.265625 350.015625 -433.664062 333.296875 -449.53125 C 316.585938 -465.394531 294.804688 -474.910156 267.953125 -478.078125 L 267.953125 -299.078125 L 299.4375 -291.390625 C 344.59375 -279.429688 377.84375 -261.921875 399.1875 -238.859375 C 420.539062 -215.796875 431.21875 -185.960938 431.21875 -149.359375 C 431.21875 -105.910156 416.941406 -71.066406 388.390625 -44.828125 C 359.835938 -18.597656 319.691406 -3.410156 267.953125 0.734375 Z M 367.890625 -144.234375 C 367.890625 -168.640625 359.835938 -188.222656 343.734375 -202.984375 C 327.628906 -217.742188 302.367188 -228.785156 267.953125 -236.109375 L 267.953125 -54.546875 C 299.679688 -56.253906 324.269531 -64.914062 341.71875 -80.53125 C 359.164062 -96.15625 367.890625 -117.390625 367.890625 -144.234375 Z M 130.6875 -394.25 C 130.6875 -372.53125 138.191406 -354.53125 153.203125 -340.25 C 168.210938 -325.976562 190.113281 -315.789062 218.90625 -309.6875 L 218.90625 -478.078125 C 193.28125 -476.617188 172.171875 -468.015625 155.578125 -452.265625 C 138.984375 -436.523438 130.6875 -417.1875 130.6875 -394.25 Z M 130.6875 -394.25 "/></g></g><g transform="translate(3419.692126, 1560.897837)"><g><path d="M 233.1875 12.453125 C 183.15625 12.453125 141.785156 -1.640625 109.078125 -29.828125 C 76.378906 -58.015625 58.566406 -94.925781 55.640625 -140.5625 L 120.4375 -140.5625 C 123.363281 -112.007812 135.257812 -89.007812 156.125 -71.5625 C 176.988281 -54.113281 202.921875 -45.390625 233.921875 -45.390625 C 269.304688 -45.390625 297.796875 -56.492188 319.390625 -78.703125 C 340.992188 -100.910156 351.796875 -130.070312 351.796875 -166.1875 C 351.796875 -202.3125 340.992188 -231.660156 319.390625 -254.234375 C 297.796875 -276.804688 269.671875 -288.09375 235.015625 -288.09375 C 211.097656 -288.09375 189.617188 -282.90625 170.578125 -272.53125 C 151.546875 -262.164062 136.660156 -247.585938 125.921875 -228.796875 L 64.0625 -228.796875 L 92.984375 -528.234375 L 387.65625 -528.234375 L 387.65625 -469.296875 L 144.59375 -469.296875 L 129.59375 -299.8125 L 135.4375 -299.8125 C 161.0625 -329.820312 198.28125 -344.828125 247.09375 -344.828125 C 297.363281 -344.828125 338.363281 -328.351562 370.09375 -295.40625 C 401.820312 -262.46875 417.6875 -220.007812 417.6875 -168.03125 C 417.6875 -114.332031 400.601562 -70.828125 366.4375 -37.515625 C 332.269531 -4.203125 287.851562 12.453125 233.1875 12.453125 Z M 233.1875 12.453125 "/></g></g><g transform="translate(3883.502422, 1560.897837)"><g><path d="M 236.484375 12.453125 C 176.929688 12.453125 130.800781 -11.707031 98.09375 -60.03125 C 65.394531 -108.351562 49.046875 -176.441406 49.046875 -264.296875 C 49.046875 -351.421875 65.519531 -419.265625 98.46875 -467.828125 C 131.414062 -516.390625 177.421875 -540.671875 236.484375 -540.671875 C 295.296875 -540.671875 341.113281 -516.265625 373.9375 -467.453125 C 406.757812 -418.648438 423.171875 -350.566406 423.171875 -263.203125 C 423.171875 -175.585938 406.878906 -107.738281 374.296875 -59.65625 C 341.722656 -11.582031 295.785156 12.453125 236.484375 12.453125 Z M 146.609375 -101.765625 C 167.472656 -63.941406 197.425781 -45.03125 236.46875 -45.03125 C 275.519531 -45.03125 305.359375 -63.878906 325.984375 -101.578125 C 346.609375 -139.285156 356.921875 -193.523438 356.921875 -264.296875 C 356.921875 -334.335938 346.484375 -388.269531 325.609375 -426.09375 C 304.742188 -463.925781 275.03125 -482.84375 236.46875 -482.84375 C 197.914062 -482.84375 168.082031 -463.867188 146.96875 -425.921875 C 125.863281 -387.972656 115.3125 -334.097656 115.3125 -264.296875 C 115.3125 -193.765625 125.742188 -139.585938 146.609375 -101.765625 Z M 146.609375 -101.765625 "/></g></g><g transform="translate(4355.732323, 1560.897837)"><g><path d="M 236.484375 12.453125 C 176.929688 12.453125 130.800781 -11.707031 98.09375 -60.03125 C 65.394531 -108.351562 49.046875 -176.441406 49.046875 -264.296875 C 49.046875 -351.421875 65.519531 -419.265625 98.46875 -467.828125 C 131.414062 -516.390625 177.421875 -540.671875 236.484375 -540.671875 C 295.296875 -540.671875 341.113281 -516.265625 373.9375 -467.453125 C 406.757812 -418.648438 423.171875 -350.566406 423.171875 -263.203125 C 423.171875 -175.585938 406.878906 -107.738281 374.296875 -59.65625 C 341.722656 -11.582031 295.785156 12.453125 236.484375 12.453125 Z M 146.609375 -101.765625 C 167.472656 -63.941406 197.425781 -45.03125 236.46875 -45.03125 C 275.519531 -45.03125 305.359375 -63.878906 325.984375 -101.578125 C 346.609375 -139.285156 356.921875 -193.523438 356.921875 -264.296875 C 356.921875 -334.335938 346.484375 -388.269531 325.609375 -426.09375 C 304.742188 -463.925781 275.03125 -482.84375 236.46875 -482.84375 C 197.914062 -482.84375 168.082031 -463.867188 146.96875 -425.921875 C 125.863281 -387.972656 115.3125 -334.097656 115.3125 -264.296875 C 115.3125 -193.765625 125.742188 -139.585938 146.609375 -101.765625 Z M 146.609375 -101.765625 "/></g></g></g><path stroke-linecap="butt" transform="matrix(0.749565, 0.00103154, -0.00103174, 0.74971, 415.559682, 2056.712706)" fill="none" stroke-linejoin="miter" d="M 0.000119439 39.002304 L 1453.296273 38.998251 " stroke="#ffde59" stroke-width="78" stroke-opacity="1" stroke-miterlimit="4"/></svg>