<svg width="27" height="26" viewBox="0 0 27 26" fill="none" xmlns="http://www.w3.org/2000/svg">
<path d="M20.0576 23.1722C19.1548 23.1722 18.3875 22.8684 17.7555 22.2607C17.1236 21.6531 16.8076 20.9153 16.8076 20.0472C16.8076 19.9257 16.8166 19.7996 16.8347 19.6691C16.8528 19.5385 16.8798 19.4215 16.916 19.318L9.27845 15.0472C8.97151 15.3076 8.62845 15.5118 8.24928 15.6597C7.87012 15.8076 7.4729 15.8812 7.05762 15.8805C6.15484 15.8805 5.38748 15.5767 4.75553 14.9691C4.12359 14.3614 3.80762 13.6236 3.80762 12.7555C3.80762 11.8875 4.12359 11.1496 4.75553 10.542C5.38748 9.93435 6.15484 9.63053 7.05762 9.63053C7.4729 9.63053 7.87012 9.70449 8.24928 9.85241C8.62845 10.0003 8.97151 10.2041 9.27845 10.4639L16.916 6.19303C16.8798 6.08887 16.8528 5.97185 16.8347 5.84199C16.8166 5.71213 16.8076 5.58609 16.8076 5.46387C16.8076 4.59581 17.1236 3.85796 17.7555 3.25033C18.3875 2.64269 19.1548 2.33887 20.0576 2.33887C20.9604 2.33887 21.7278 2.64269 22.3597 3.25033C22.9916 3.85796 23.3076 4.59581 23.3076 5.46387C23.3076 6.33192 22.9916 7.06977 22.3597 7.67741C21.7278 8.28505 20.9604 8.58887 20.0576 8.58887C19.6423 8.58887 19.2451 8.51526 18.866 8.36803C18.4868 8.22081 18.1437 8.01664 17.8368 7.75553L10.1993 12.0264C10.2354 12.1305 10.2625 12.2479 10.2805 12.3784C10.2986 12.509 10.3076 12.6347 10.3076 12.7555C10.3076 12.8771 10.2986 13.0031 10.2805 13.1337C10.2625 13.2642 10.2354 13.3812 10.1993 13.4847L17.8368 17.7555C18.1437 17.4951 18.4868 17.2913 18.866 17.1441C19.2451 16.9969 19.6423 16.9229 20.0576 16.9222C20.9604 16.9222 21.7278 17.226 22.3597 17.8337C22.9916 18.4413 23.3076 19.1791 23.3076 20.0472C23.3076 20.9153 22.9916 21.6531 22.3597 22.2607C21.7278 22.8684 20.9604 23.1722 20.0576 23.1722ZM20.0576 6.50553C20.3646 6.50553 20.622 6.40553 20.83 6.20553C21.038 6.00553 21.1417 5.75831 21.141 5.46387C21.141 5.16873 21.037 4.92116 20.829 4.72116C20.621 4.52116 20.3638 4.42151 20.0576 4.4222C19.7507 4.4222 19.4932 4.5222 19.2852 4.7222C19.0772 4.9222 18.9736 5.16942 18.9743 5.46387C18.9743 5.75901 19.0783 6.00658 19.2863 6.20658C19.4943 6.40658 19.7514 6.50623 20.0576 6.50553ZM7.05762 13.7972C7.36456 13.7972 7.62203 13.6972 7.83003 13.4972C8.03803 13.2972 8.14167 13.05 8.14095 12.7555C8.14095 12.4604 8.03695 12.2128 7.82895 12.0128C7.62095 11.8128 7.36384 11.7132 7.05762 11.7139C6.75067 11.7139 6.4932 11.8139 6.2852 12.0139C6.0772 12.2139 5.97356 12.4611 5.97428 12.7555C5.97428 13.0507 6.07828 13.2982 6.28628 13.4982C6.49428 13.6982 6.7514 13.7979 7.05762 13.7972ZM20.0576 21.0889C20.3646 21.0889 20.622 20.9889 20.83 20.7889C21.038 20.5889 21.1417 20.3416 21.141 20.0472C21.141 19.7521 21.037 19.5045 20.829 19.3045C20.621 19.1045 20.3638 19.0048 20.0576 19.0055C19.7507 19.0055 19.4932 19.1055 19.2852 19.3055C19.0772 19.5055 18.9736 19.7528 18.9743 20.0472C18.9743 20.3423 19.0783 20.5899 19.2863 20.7899C19.4943 20.9899 19.7514 21.0896 20.0576 21.0889Z" fill="white"/>
</svg>
