<svg xmlns="http://www.w3.org/2000/svg" xmlns:xlink="http://www.w3.org/1999/xlink" width="500" zoomAndPan="magnify" viewBox="0 0 375 374.999991" height="500" preserveAspectRatio="xMidYMid meet" version="1.0"><defs><clipPath id="e3b7dc1b0f"><path d="M 47.277344 54.160156 L 327.777344 54.160156 L 327.777344 321.160156 L 47.277344 321.160156 Z M 47.277344 54.160156 " clip-rule="nonzero"/></clipPath></defs><g clip-path="url(#e3b7dc1b0f)"><path fill="#737373" d="M 187.527344 54.160156 L 223.644531 135.445312 C 225.03125 138.566406 227.214844 141.265625 229.976562 143.277344 C 232.738281 145.285156 235.980469 146.527344 239.375 146.886719 L 327.761719 156.152344 L 261.695312 215.65625 C 259.160156 217.941406 257.269531 220.855469 256.214844 224.105469 C 255.160156 227.355469 254.976562 230.824219 255.6875 234.167969 L 274.199219 321.175781 L 197.25 276.667969 C 194.292969 274.957031 190.941406 274.058594 187.527344 274.058594 C 184.113281 274.058594 180.761719 274.957031 177.804688 276.667969 L 100.855469 321.175781 L 119.367188 234.167969 C 120.078125 230.824219 119.894531 227.355469 118.839844 224.105469 C 117.785156 220.855469 115.894531 217.941406 113.355469 215.65625 L 47.289062 156.152344 L 135.679688 146.886719 C 139.074219 146.527344 142.3125 145.285156 145.074219 143.277344 C 147.835938 141.265625 150.023438 138.566406 151.410156 135.445312 Z M 187.527344 54.160156 " fill-opacity="1" fill-rule="evenodd"/></g></svg>