<svg xmlns="http://www.w3.org/2000/svg" xmlns:xlink="http://www.w3.org/1999/xlink" width="500" zoomAndPan="magnify" viewBox="0 0 375 374.999991" height="500" preserveAspectRatio="xMidYMid meet" version="1.0"><defs><clipPath id="47effb9f61"><path d="M 21.023438 117.371094 L 354 117.371094 L 354 257.621094 L 21.023438 257.621094 Z M 21.023438 117.371094 " clip-rule="nonzero"/></clipPath></defs><g clip-path="url(#47effb9f61)"><path fill="#3ad800" d="M 283.425781 117.371094 L 91.621094 117.371094 C 52.886719 117.371094 21.484375 148.765625 21.484375 187.496094 C 21.484375 226.226562 52.886719 257.621094 91.621094 257.621094 L 283.425781 257.621094 C 322.164062 257.621094 353.5625 226.226562 353.5625 187.496094 C 353.5625 148.765625 322.164062 117.371094 283.425781 117.371094 " fill-opacity="1" fill-rule="nonzero"/></g><path fill="#f7f7f7" d="M 350.058594 187.496094 C 350.058594 224.289062 320.226562 254.117188 283.425781 254.117188 C 246.625 254.117188 216.792969 224.289062 216.792969 187.496094 C 216.792969 150.703125 246.625 120.878906 283.425781 120.878906 C 320.226562 120.878906 350.058594 150.703125 350.058594 187.496094 " fill-opacity="1" fill-rule="nonzero"/></svg>